<?xml version="1.0" encoding="UTF-8" standalone="no"?><svg xmlns="http://www.w3.org/2000/svg" xmlns:xlink="http://www.w3.org/1999/xlink" clip-rule="evenodd" stroke-miterlimit="10" viewBox="0 0 168 107"><desc>SVG generated by Keynote</desc><defs></defs><g transform="matrix(1.00, 0.00, -0.00, -1.00, 0.0, 107.0)"><image xlink:href="6AADE794AD2C455DFE5686D203252A23.png" width="165.00" height="100.00" transform="matrix(1.00, 0.00, -0.00, -1.00, 1.6, 101.5)" opacity="0.35"></image><path d="M 5.6 17.0 L 6.0 89.8 C 6.0 95.1 9.9 99.0 15.1 99.0 L 152.9 99.0 C 158.1 99.0 162.0 95.1 162.0 89.8 L 162.0 17.0 C 162.0 11.8 158.1 7.0 152.9 7.0 L 15.1 7.0 C 9.9 7.0 5.6 11.8 5.6 17.0 Z M 5.6 17.0 " fill="#FFFFFF"></path><path d="M 0.0 82.3 L 0.4 9.5 C 0.4 4.3 4.3 0.3 9.5 0.3 L 147.3 0.3 C 152.5 0.3 156.4 4.3 156.4 9.5 L 156.4 82.3 C 156.4 87.6 152.5 92.3 147.3 92.3 L 9.5 92.3 C 4.3 92.3 0.0 87.6 0.0 82.3 Z M 0.0 82.3 " fill="none" stroke="#4E81BD" stroke-width="2.00" stroke-linejoin="bevel" transform="matrix(1.00, 0.00, 0.00, -1.00, 5.6, 99.3)"></path><g><clipPath id="clip0x600000cb07a0"><path d="M 5.0 7.5 L 163.0 7.5 L 163.0 99.3 L 5.0 99.3 Z M 5.0 7.5 "></path></clipPath><g clip-path="url(#clip0x600000cb07a0)"><text xml:space="preserve" font-family="TrebuchetMS,Trebuchet MS" font-size="18.0" fill="#000000" transform="matrix(1.00, 0.00, -0.00, -1.00, 52.2, 46.7)">C</text><text xml:space="preserve" font-family="TrebuchetMS,Trebuchet MS" font-size="18.0" fill="#000000" transform="matrix(1.00, 0.00, -0.00, -1.00, 62.9, 46.7)">i</text><text xml:space="preserve" font-family="TrebuchetMS,Trebuchet MS" font-size="18.0" fill="#000000" transform="matrix(1.00, 0.00, -0.00, -1.00, 68.1, 46.7)">t</text><text xml:space="preserve" font-family="TrebuchetMS,Trebuchet MS" font-size="18.0" fill="#000000" transform="matrix(1.00, 0.00, -0.00, -1.00, 75.2, 46.7)">i</text><text xml:space="preserve" font-family="TrebuchetMS,Trebuchet MS" font-size="18.0" fill="#000000" transform="matrix(1.00, 0.00, -0.00, -1.00, 80.4, 46.7)">z</text><text xml:space="preserve" font-family="TrebuchetMS,Trebuchet MS" font-size="18.0" fill="#000000" transform="matrix(1.00, 0.00, -0.00, -1.00, 88.9, 46.7)">e</text><text xml:space="preserve" font-family="TrebuchetMS,Trebuchet MS" font-size="18.0" fill="#000000" transform="matrix(1.00, 0.00, -0.00, -1.00, 98.7, 46.7)">n</text><text xml:space="preserve" font-family="TrebuchetMS,Trebuchet MS" font-size="18.0" fill="#000000" transform="matrix(1.00, 0.00, -0.00, -1.00, 108.5, 46.7)">s</text></g></g></g></svg>