<?xml version="1.0" encoding="UTF-8" standalone="no"?><svg xmlns="http://www.w3.org/2000/svg" xmlns:xlink="http://www.w3.org/1999/xlink" clip-rule="evenodd" stroke-miterlimit="10" viewBox="0 0 720 540"><desc>SVG generated by Keynote</desc><defs></defs><g transform="matrix(1.00, 0.00, -0.00, -1.00, 0.0, 540.0)"><path d="M 0.0 540.0 L 720.0 540.0 L 720.0 0.0 L 0.0 0.0 Z M 0.0 540.0 " fill="#FFFFFF"></path><text xml:space="preserve" font-family="TimesNewRomanPSMT,Times New Roman" font-size="41.0" fill="#000000" transform="matrix(1.00, 0.00, -0.00, -1.00, 288.2, 485.4)">A</text><text xml:space="preserve" font-family="TimesNewRomanPSMT,Times New Roman" font-size="41.0" fill="#000000" transform="matrix(1.00, 0.00, -0.00, -1.00, 317.9, 485.4)">n</text><text xml:space="preserve" font-family="TimesNewRomanPSMT,Times New Roman" font-size="41.0" fill="#000000" transform="matrix(1.00, 0.00, -0.00, -1.00, 338.4, 485.4)">a</text><text xml:space="preserve" font-family="TimesNewRomanPSMT,Times New Roman" font-size="41.0" fill="#000000" transform="matrix(1.00, 0.00, -0.00, -1.00, 356.6, 485.4)">l</text><text xml:space="preserve" font-family="TimesNewRomanPSMT,Times New Roman" font-size="41.0" fill="#000000" transform="matrix(1.00, 0.00, -0.00, -1.00, 367.9, 485.4)">y</text><text xml:space="preserve" font-family="TimesNewRomanPSMT,Times New Roman" font-size="41.0" fill="#000000" transform="matrix(1.00, 0.00, -0.00, -1.00, 388.4, 485.4)">s</text><text xml:space="preserve" font-family="TimesNewRomanPSMT,Times New Roman" font-size="41.0" fill="#000000" transform="matrix(1.00, 0.00, -0.00, -1.00, 404.4, 485.4)">i</text><text xml:space="preserve" font-family="TimesNewRomanPSMT,Times New Roman" font-size="41.0" fill="#000000" transform="matrix(1.00, 0.00, -0.00, -1.00, 415.8, 485.4)">s</text></g></svg>