<?xml version="1.0" encoding="UTF-8" standalone="no"?><svg xmlns="http://www.w3.org/2000/svg" xmlns:xlink="http://www.w3.org/1999/xlink" clip-rule="evenodd" stroke-miterlimit="10" viewBox="0 0 720 540"><desc>SVG generated by Keynote</desc><defs></defs><g transform="matrix(1.00, 0.00, -0.00, -1.00, 0.0, 540.0)"><path d="M 0.0 540.0 L 720.0 540.0 L 720.0 0.0 L 0.0 0.0 Z M 0.0 540.0 " fill="#FFFFFF"></path><g><clipPath id="clip0x7fe48ac5baf0"><path d="M 218.0 561.0 L 758.0 561.0 L 758.0 156.0 L 218.0 156.0 Z M 218.2 561.1 "></path></clipPath><g clip-path="url(#clip0x7fe48ac5baf0)"><image xlink:href="../../6ECB4237-4C8B-4EE6-A6BA-520A79FD78A8/assets/2ED2DD0AC4A8F35CDDFB98929DB181ED.png" width="800.00" height="600.00" transform="matrix(0.67, 0.00, -0.00, -0.67, 218.2, 561.1)"></image></g></g><path d="M 286.0 194.0 L 690.0 194.0 L 690.0 166.0 L 286.0 166.0 Z M 285.6 194.3 " fill="#FFFFFF"></path><g><clipPath id="clip0x7fe48abb91f0"><path d="M 284.0 164.5 L 692.0 164.5 L 692.0 195.9 L 284.0 195.9 Z M 284.0 164.5 "></path></clipPath><g clip-path="url(#clip0x7fe48abb91f0)"><text xml:space="preserve" font-family="TrebuchetMS,Trebuchet MS" font-size="18.0" fill="#000000" transform="matrix(1.00, 0.00, -0.00, -1.00, 289.2, 173.7)"> </text><text xml:space="preserve" font-family="TrebuchetMS,Trebuchet MS" font-size="18.0" fill="#000000" transform="matrix(1.00, 0.00, -0.00, -1.00, 294.6, 173.7)"> </text><text xml:space="preserve" font-family="TrebuchetMS,Trebuchet MS" font-size="18.0" fill="#000000" transform="matrix(1.00, 0.00, -0.00, -1.00, 300.1, 173.7)"> </text><text xml:space="preserve" font-family="TrebuchetMS,Trebuchet MS" font-size="18.0" fill="#000000" transform="matrix(1.00, 0.00, -0.00, -1.00, 305.5, 173.7)"> </text><text xml:space="preserve" font-family="TrebuchetMS,Trebuchet MS" font-size="18.0" fill="#000000" transform="matrix(1.00, 0.00, -0.00, -1.00, 310.9, 173.7)"> </text><text xml:space="preserve" font-family="TrebuchetMS,Trebuchet MS" font-size="18.0" fill="#000000" transform="matrix(1.00, 0.00, -0.00, -1.00, 316.4, 173.7)"> </text></g></g><text xml:space="preserve" font-family="TrebuchetMS,Trebuchet MS" font-size="12.0" fill="#878787" transform="matrix(1.00, 0.00, -0.00, -1.00, 674.1, 20.8)">7</text><text xml:space="preserve" font-family="Times-Roman,Times" font-size="27.0" fill="#000000" transform="matrix(1.00, 0.00, -0.00, -1.00, 30.9, 479.4)">B</text><text xml:space="preserve" font-family="Times-Roman,Times" font-size="27.0" fill="#000000" transform="matrix(1.00, 0.00, -0.00, -1.00, 48.9, 479.4)">r</text><text xml:space="preserve" font-family="Times-Roman,Times" font-size="27.0" fill="#000000" transform="matrix(1.00, 0.00, -0.00, -1.00, 57.9, 479.4)">o</text><text xml:space="preserve" font-family="Times-Roman,Times" font-size="27.0" fill="#000000" transform="matrix(1.00, 0.00, -0.00, -1.00, 71.4, 479.4)">n</text><text xml:space="preserve" font-family="Times-Roman,Times" font-size="27.0" fill="#000000" transform="matrix(1.00, 0.00, -0.00, -1.00, 84.9, 479.4)">x</text><text xml:space="preserve" font-family="Times-Roman,Times" font-size="27.0" fill="#000000" transform="matrix(1.00, 0.00, -0.00, -1.00, 98.4, 479.4)"> </text><text xml:space="preserve" font-family="Times-Roman,Times" font-size="27.0" fill="#000000" transform="matrix(1.00, 0.00, -0.00, -1.00, 105.1, 479.4)">c</text><text xml:space="preserve" font-family="Times-Roman,Times" font-size="27.0" fill="#000000" transform="matrix(1.00, 0.00, -0.00, -1.00, 117.1, 479.4)">o</text><text xml:space="preserve" font-family="Times-Roman,Times" font-size="27.0" fill="#000000" transform="matrix(1.00, 0.00, -0.00, -1.00, 130.6, 479.4)">m</text><text xml:space="preserve" font-family="Times-Roman,Times" font-size="27.0" fill="#000000" transform="matrix(1.00, 0.00, -0.00, -1.00, 151.6, 479.4)">p</text><text xml:space="preserve" font-family="Times-Roman,Times" font-size="27.0" fill="#000000" transform="matrix(1.00, 0.00, -0.00, -1.00, 165.1, 479.4)">l</text><text xml:space="preserve" font-family="Times-Roman,Times" font-size="27.0" fill="#000000" transform="matrix(1.00, 0.00, -0.00, -1.00, 172.6, 479.4)">a</text><text xml:space="preserve" font-family="Times-Roman,Times" font-size="27.0" fill="#000000" transform="matrix(1.00, 0.00, -0.00, -1.00, 184.6, 479.4)">i</text><text xml:space="preserve" font-family="Times-Roman,Times" font-size="27.0" fill="#000000" transform="matrix(1.00, 0.00, -0.00, -1.00, 192.0, 479.4)">n</text><text xml:space="preserve" font-family="Times-Roman,Times" font-size="27.0" fill="#000000" transform="matrix(1.00, 0.00, -0.00, -1.00, 205.5, 479.4)">t</text><text xml:space="preserve" font-family="Times-Roman,Times" font-size="27.0" fill="#000000" transform="matrix(1.00, 0.00, -0.00, -1.00, 213.0, 479.4)">s</text><text xml:space="preserve" font-family="Times-Roman,Times" font-size="27.0" fill="#000000" transform="matrix(1.00, 0.00, -0.00, -1.00, 223.6, 479.4)"> </text><text xml:space="preserve" font-family="Times-Roman,Times" font-size="27.0" fill="#000000" transform="matrix(1.00, 0.00, -0.00, -1.00, 30.9, 447.4)">i</text><text xml:space="preserve" font-family="Times-Roman,Times" font-size="27.0" fill="#000000" transform="matrix(1.00, 0.00, -0.00, -1.00, 38.3, 447.4)">n</text><text xml:space="preserve" font-family="Times-Roman,Times" font-size="27.0" fill="#000000" transform="matrix(1.00, 0.00, -0.00, -1.00, 51.8, 447.4)"> </text><text xml:space="preserve" font-family="Times-Roman,Times" font-size="27.0" fill="#000000" transform="matrix(1.00, 0.00, -0.00, -1.00, 58.6, 447.4)">l</text><text xml:space="preserve" font-family="Times-Roman,Times" font-size="27.0" fill="#000000" transform="matrix(1.00, 0.00, -0.00, -1.00, 66.1, 447.4)">a</text><text xml:space="preserve" font-family="Times-Roman,Times" font-size="27.0" fill="#000000" transform="matrix(1.00, 0.00, -0.00, -1.00, 78.1, 447.4)">s</text><text xml:space="preserve" font-family="Times-Roman,Times" font-size="27.0" fill="#000000" transform="matrix(1.00, 0.00, -0.00, -1.00, 88.6, 447.4)">t</text><text xml:space="preserve" font-family="Times-Roman,Times" font-size="27.0" fill="#000000" transform="matrix(1.00, 0.00, -0.00, -1.00, 96.1, 447.4)"> </text><text xml:space="preserve" font-family="Times-Roman,Times" font-size="27.0" fill="#000000" transform="matrix(1.00, 0.00, -0.00, -1.00, 102.8, 447.4)">3</text><text xml:space="preserve" font-family="Times-Roman,Times" font-size="27.0" fill="#000000" transform="matrix(1.00, 0.00, -0.00, -1.00, 116.3, 447.4)"> </text><text xml:space="preserve" font-family="Times-Roman,Times" font-size="27.0" fill="#000000" transform="matrix(1.00, 0.00, -0.00, -1.00, 123.1, 447.4)">m</text><text xml:space="preserve" font-family="Times-Roman,Times" font-size="27.0" fill="#000000" transform="matrix(1.00, 0.00, -0.00, -1.00, 144.1, 447.4)">o</text><text xml:space="preserve" font-family="Times-Roman,Times" font-size="27.0" fill="#000000" transform="matrix(1.00, 0.00, -0.00, -1.00, 157.6, 447.4)">n</text><text xml:space="preserve" font-family="Times-Roman,Times" font-size="27.0" fill="#000000" transform="matrix(1.00, 0.00, -0.00, -1.00, 171.1, 447.4)">t</text><text xml:space="preserve" font-family="Times-Roman,Times" font-size="27.0" fill="#000000" transform="matrix(1.00, 0.00, -0.00, -1.00, 178.6, 447.4)">h</text><text xml:space="preserve" font-family="Times-Roman,Times" font-size="27.0" fill="#000000" transform="matrix(1.00, 0.00, -0.00, -1.00, 192.1, 447.4)">s</text><g><clipPath id="clip0x7fe48abe8010"><path d="M -5.0 167.0 L 778.0 167.0 L 778.0 -4.0 L -5.0 -4.0 Z M -5.0 166.7 "></path></clipPath><g clip-path="url(#clip0x7fe48abe8010)"><image xlink:href="../../6ECB4237-4C8B-4EE6-A6BA-520A79FD78A8/assets/BF9D5EE4FC9E8E82EF3ACF9E4F59B0DB.png" width="2328.00" height="506.00" transform="matrix(0.34, 0.00, -0.00, -0.34, -5.0, 166.7)"></image></g></g><text xml:space="preserve" font-family="TrebuchetMS,Trebuchet MS" font-size="14.0" fill="#000000" transform="matrix(1.00, 0.00, -0.00, -1.00, 301.7, 181.3)">S</text><text xml:space="preserve" font-family="TrebuchetMS,Trebuchet MS" font-size="14.0" fill="#000000" transform="matrix(1.00, 0.00, -0.00, -1.00, 308.4, 181.3)">e</text><text xml:space="preserve" font-family="TrebuchetMS,Trebuchet MS" font-size="14.0" fill="#000000" transform="matrix(1.00, 0.00, -0.00, -1.00, 316.1, 181.3)">p</text><text xml:space="preserve" font-family="TrebuchetMS,Trebuchet MS" font-size="14.0" fill="#000000" transform="matrix(1.00, 0.00, -0.00, -1.00, 323.9, 181.3)"> </text><text xml:space="preserve" font-family="TrebuchetMS,Trebuchet MS" font-size="14.0" fill="#000000" transform="matrix(1.00, 0.00, -0.00, -1.00, 305.5, 165.3)">1</text><text xml:space="preserve" font-family="TrebuchetMS,Trebuchet MS" font-size="14.0" fill="#000000" transform="matrix(1.00, 0.00, -0.00, -1.00, 312.8, 165.3)">0</text><text xml:space="preserve" font-family="TrebuchetMS,Trebuchet MS" font-size="14.0" fill="#000000" transform="matrix(1.00, 0.00, -0.00, -1.00, 404.5, 181.3)">S</text><text xml:space="preserve" font-family="TrebuchetMS,Trebuchet MS" font-size="14.0" fill="#000000" transform="matrix(1.00, 0.00, -0.00, -1.00, 411.2, 181.3)">e</text><text xml:space="preserve" font-family="TrebuchetMS,Trebuchet MS" font-size="14.0" fill="#000000" transform="matrix(1.00, 0.00, -0.00, -1.00, 418.9, 181.3)">p</text><text xml:space="preserve" font-family="TrebuchetMS,Trebuchet MS" font-size="14.0" fill="#000000" transform="matrix(1.00, 0.00, -0.00, -1.00, 426.7, 181.3)"> </text><text xml:space="preserve" font-family="TrebuchetMS,Trebuchet MS" font-size="14.0" fill="#000000" transform="matrix(1.00, 0.00, -0.00, -1.00, 408.3, 165.3)">1</text><text xml:space="preserve" font-family="TrebuchetMS,Trebuchet MS" font-size="14.0" fill="#000000" transform="matrix(1.00, 0.00, -0.00, -1.00, 415.6, 165.3)">1</text><text xml:space="preserve" font-family="TrebuchetMS,Trebuchet MS" font-size="14.0" fill="#000000" transform="matrix(1.00, 0.00, -0.00, -1.00, 507.3, 181.3)">S</text><text xml:space="preserve" font-family="TrebuchetMS,Trebuchet MS" font-size="14.0" fill="#000000" transform="matrix(1.00, 0.00, -0.00, -1.00, 514.0, 181.3)">e</text><text xml:space="preserve" font-family="TrebuchetMS,Trebuchet MS" font-size="14.0" fill="#000000" transform="matrix(1.00, 0.00, -0.00, -1.00, 521.7, 181.3)">p</text><text xml:space="preserve" font-family="TrebuchetMS,Trebuchet MS" font-size="14.0" fill="#000000" transform="matrix(1.00, 0.00, -0.00, -1.00, 529.5, 181.3)"> </text><text xml:space="preserve" font-family="TrebuchetMS,Trebuchet MS" font-size="14.0" fill="#000000" transform="matrix(1.00, 0.00, -0.00, -1.00, 511.1, 165.3)">1</text><text xml:space="preserve" font-family="TrebuchetMS,Trebuchet MS" font-size="14.0" fill="#000000" transform="matrix(1.00, 0.00, -0.00, -1.00, 518.4, 165.3)">2</text><text xml:space="preserve" font-family="TrebuchetMS,Trebuchet MS" font-size="14.0" fill="#000000" transform="matrix(1.00, 0.00, -0.00, -1.00, 602.1, 181.3)">S</text><text xml:space="preserve" font-family="TrebuchetMS,Trebuchet MS" font-size="14.0" fill="#000000" transform="matrix(1.00, 0.00, -0.00, -1.00, 608.8, 181.3)">e</text><text xml:space="preserve" font-family="TrebuchetMS,Trebuchet MS" font-size="14.0" fill="#000000" transform="matrix(1.00, 0.00, -0.00, -1.00, 616.5, 181.3)">p</text><text xml:space="preserve" font-family="TrebuchetMS,Trebuchet MS" font-size="14.0" fill="#000000" transform="matrix(1.00, 0.00, -0.00, -1.00, 624.3, 181.3)"> </text><text xml:space="preserve" font-family="TrebuchetMS,Trebuchet MS" font-size="14.0" fill="#000000" transform="matrix(1.00, 0.00, -0.00, -1.00, 605.9, 165.3)">1</text><text xml:space="preserve" font-family="TrebuchetMS,Trebuchet MS" font-size="14.0" fill="#000000" transform="matrix(1.00, 0.00, -0.00, -1.00, 613.2, 165.3)">3</text><text xml:space="preserve" font-family="TrebuchetMS,Trebuchet MS" font-size="14.0" fill="#000000" transform="matrix(1.00, 0.00, -0.00, -1.00, 348.6, 181.3)">M</text><text xml:space="preserve" font-family="TrebuchetMS,Trebuchet MS" font-size="14.0" fill="#000000" transform="matrix(1.00, 0.00, -0.00, -1.00, 358.6, 181.3)">a</text><text xml:space="preserve" font-family="TrebuchetMS,Trebuchet MS" font-size="14.0" fill="#000000" transform="matrix(1.00, 0.00, -0.00, -1.00, 365.9, 181.3)">r</text><text xml:space="preserve" font-family="TrebuchetMS,Trebuchet MS" font-size="14.0" fill="#000000" transform="matrix(1.00, 0.00, -0.00, -1.00, 371.4, 181.3)"> </text><text xml:space="preserve" font-family="TrebuchetMS,Trebuchet MS" font-size="14.0" fill="#000000" transform="matrix(1.00, 0.00, -0.00, -1.00, 352.7, 165.3)">1</text><text xml:space="preserve" font-family="TrebuchetMS,Trebuchet MS" font-size="14.0" fill="#000000" transform="matrix(1.00, 0.00, -0.00, -1.00, 360.0, 165.3)">1</text><text xml:space="preserve" font-family="TrebuchetMS,Trebuchet MS" font-size="14.0" fill="#000000" transform="matrix(1.00, 0.00, -0.00, -1.00, 451.6, 181.3)">M</text><text xml:space="preserve" font-family="TrebuchetMS,Trebuchet MS" font-size="14.0" fill="#000000" transform="matrix(1.00, 0.00, -0.00, -1.00, 461.6, 181.3)">a</text><text xml:space="preserve" font-family="TrebuchetMS,Trebuchet MS" font-size="14.0" fill="#000000" transform="matrix(1.00, 0.00, -0.00, -1.00, 468.9, 181.3)">r</text><text xml:space="preserve" font-family="TrebuchetMS,Trebuchet MS" font-size="14.0" fill="#000000" transform="matrix(1.00, 0.00, -0.00, -1.00, 474.4, 181.3)"> </text><text xml:space="preserve" font-family="TrebuchetMS,Trebuchet MS" font-size="14.0" fill="#000000" transform="matrix(1.00, 0.00, -0.00, -1.00, 455.7, 165.3)">1</text><text xml:space="preserve" font-family="TrebuchetMS,Trebuchet MS" font-size="14.0" fill="#000000" transform="matrix(1.00, 0.00, -0.00, -1.00, 463.0, 165.3)">2</text><text xml:space="preserve" font-family="TrebuchetMS,Trebuchet MS" font-size="14.0" fill="#000000" transform="matrix(1.00, 0.00, -0.00, -1.00, 555.0, 181.3)">M</text><text xml:space="preserve" font-family="TrebuchetMS,Trebuchet MS" font-size="14.0" fill="#000000" transform="matrix(1.00, 0.00, -0.00, -1.00, 564.9, 181.3)">a</text><text xml:space="preserve" font-family="TrebuchetMS,Trebuchet MS" font-size="14.0" fill="#000000" transform="matrix(1.00, 0.00, -0.00, -1.00, 572.3, 181.3)">r</text><text xml:space="preserve" font-family="TrebuchetMS,Trebuchet MS" font-size="14.0" fill="#000000" transform="matrix(1.00, 0.00, -0.00, -1.00, 577.7, 181.3)"> </text><text xml:space="preserve" font-family="TrebuchetMS,Trebuchet MS" font-size="14.0" fill="#000000" transform="matrix(1.00, 0.00, -0.00, -1.00, 559.0, 165.3)">1</text><text xml:space="preserve" font-family="TrebuchetMS,Trebuchet MS" font-size="14.0" fill="#000000" transform="matrix(1.00, 0.00, -0.00, -1.00, 566.4, 165.3)">3</text><text xml:space="preserve" font-family="TrebuchetMS,Trebuchet MS" font-size="14.0" fill="#000000" transform="matrix(1.00, 0.00, -0.00, -1.00, 649.0, 181.3)">M</text><text xml:space="preserve" font-family="TrebuchetMS,Trebuchet MS" font-size="14.0" fill="#000000" transform="matrix(1.00, 0.00, -0.00, -1.00, 659.0, 181.3)">a</text><text xml:space="preserve" font-family="TrebuchetMS,Trebuchet MS" font-size="14.0" fill="#000000" transform="matrix(1.00, 0.00, -0.00, -1.00, 666.3, 181.3)">r</text><text xml:space="preserve" font-family="TrebuchetMS,Trebuchet MS" font-size="14.0" fill="#000000" transform="matrix(1.00, 0.00, -0.00, -1.00, 671.8, 181.3)"> </text><text xml:space="preserve" font-family="TrebuchetMS,Trebuchet MS" font-size="14.0" fill="#000000" transform="matrix(1.00, 0.00, -0.00, -1.00, 653.1, 165.3)">1</text><text xml:space="preserve" font-family="TrebuchetMS,Trebuchet MS" font-size="14.0" fill="#000000" transform="matrix(1.00, 0.00, -0.00, -1.00, 660.4, 165.3)">4</text><path d="M 9.7 22.4 C -3.2 17.2 -3.2 9.0 9.7 3.8 C 22.7 -1.3 43.8 -1.3 56.7 3.8 C 69.7 9.0 69.7 17.2 56.7 22.4 C 43.8 27.5 22.7 27.5 9.7 22.4 Z M 9.7 22.4 " fill="none" stroke="#FF2600" stroke-width="2.00" stroke-linejoin="bevel" transform="matrix(1.00, 0.00, 0.00, -1.00, 312.5, 131.4)"></path><path d="M 8.6 3.8 C -2.9 9.0 -2.9 17.2 8.6 22.4 C 20.1 27.5 38.7 27.5 50.2 22.4 C 61.6 17.2 61.6 9.0 50.2 3.8 C 38.7 -1.3 20.1 -1.3 8.6 3.8 Z M 8.6 3.8 " fill="none" stroke="#FF2600" stroke-width="2.00" stroke-linejoin="bevel" transform="matrix(1.00, 0.00, 0.00, -1.00, 189.1, 79.8)"></path></g></svg>