<?xml version="1.0" encoding="UTF-8" standalone="no"?><svg xmlns="http://www.w3.org/2000/svg" xmlns:xlink="http://www.w3.org/1999/xlink" clip-rule="evenodd" stroke-miterlimit="10" viewBox="0 0 268 377"><desc>SVG generated by Keynote</desc><defs></defs><g transform="matrix(1.00, 0.00, -0.00, -1.00, 0.0, 377.0)"><g><clipPath id="clip0x7fe48da43fe0"><path d="M 0.1 0.4 L 267.9 0.4 L 267.9 205.4 L 0.1 205.4 Z M 0.1 0.4 "></path></clipPath><g clip-path="url(#clip0x7fe48da43fe0)"><image xlink:href="980EE830573F7D74CD99E2170890CA7C.png" width="901.00" height="690.00" transform="matrix(0.30, 0.00, -0.00, -0.30, 0.1, 205.4)"></image></g></g><g><clipPath id="clip0x7fe48da44e50"><path d="M 187.7 225.1 L 187.7 156.9 L 149.1 156.9 L 149.1 225.1 Z M 187.7 225.1 "></path></clipPath><g clip-path="url(#clip0x7fe48da44e50)"><image xlink:href="79682C095E6A152728992C271505578F.png" width="66.00" height="37.00" transform="matrix(0.00, -1.00, -0.99, 0.00, 186.7, 224.1)" opacity="0.35"></image><path d="M 164.0 187.0 L 154.0 187.0 L 168.4 163.2 L 182.8 187.0 L 173.0 187.0 L 173.0 222.0 L 164.0 222.0 Z M 163.9 187.2 " fill="#FFFFFF"></path><path d="M 34.9 18.8 L 34.9 28.9 L 58.7 14.4 L 34.9 0.0 L 34.9 9.8 L -0.1 9.8 L -0.1 18.8 Z M 34.7 18.9 " fill="none" stroke="#4E81BD" stroke-width="2.00" stroke-linejoin="bevel" transform="matrix(0.00, -1.00, -1.00, 0.00, 182.8, 221.9)"></path></g></g><g><clipPath id="clip0x7fe48da49e00"><path d="M 86.4 246.5 L 250.4 246.5 L 250.4 376.1 L 86.4 376.1 Z M 86.4 246.5 "></path></clipPath><g clip-path="url(#clip0x7fe48da49e00)"><image xlink:href="5298120C3491B74EAFC94DFD170C867B.jpeg" width="214.00" height="169.00" transform="matrix(0.77, 0.00, -0.00, -0.77, 86.4, 376.1)" opacity="0.82"></image></g></g></g></svg>