<?xml version="1.0" encoding="UTF-8" standalone="no"?><svg xmlns="http://www.w3.org/2000/svg" xmlns:xlink="http://www.w3.org/1999/xlink" clip-rule="evenodd" stroke-miterlimit="10" viewBox="0 0 720 540"><desc>SVG generated by Keynote</desc><defs></defs><g transform="matrix(1.00, 0.00, -0.00, -1.00, 0.0, 540.0)"><path d="M 0.0 540.0 L 720.0 540.0 L 720.0 0.0 L 0.0 0.0 Z M 0.0 540.0 " fill="#FFFFFF"></path><text xml:space="preserve" font-family="TimesNewRomanPSMT,Times New Roman" font-size="39.0" fill="#000000" transform="matrix(1.00, 0.00, -0.00, -1.00, 91.4, 475.8)">I</text><text xml:space="preserve" font-family="TimesNewRomanPSMT,Times New Roman" font-size="39.0" fill="#000000" transform="matrix(1.00, 0.00, -0.00, -1.00, 104.4, 475.8)">d</text><text xml:space="preserve" font-family="TimesNewRomanPSMT,Times New Roman" font-size="39.0" fill="#000000" transform="matrix(1.00, 0.00, -0.00, -1.00, 123.9, 475.8)">e</text><text xml:space="preserve" font-family="TimesNewRomanPSMT,Times New Roman" font-size="39.0" fill="#000000" transform="matrix(1.00, 0.00, -0.00, -1.00, 141.2, 475.8)">n</text><text xml:space="preserve" font-family="TimesNewRomanPSMT,Times New Roman" font-size="39.0" fill="#000000" transform="matrix(1.00, 0.00, -0.00, -1.00, 160.7, 475.8)">t</text><text xml:space="preserve" font-family="TimesNewRomanPSMT,Times New Roman" font-size="39.0" fill="#000000" transform="matrix(1.00, 0.00, -0.00, -1.00, 171.5, 475.8)">i</text><text xml:space="preserve" font-family="TimesNewRomanPSMT,Times New Roman" font-size="39.0" fill="#000000" transform="matrix(1.00, 0.00, -0.00, -1.00, 182.3, 475.8)">f</text><text xml:space="preserve" font-family="TimesNewRomanPSMT,Times New Roman" font-size="39.0" fill="#000000" transform="matrix(1.00, 0.00, -0.00, -1.00, 195.3, 475.8)">y</text><text xml:space="preserve" font-family="TimesNewRomanPSMT,Times New Roman" font-size="39.0" fill="#000000" transform="matrix(1.00, 0.00, -0.00, -1.00, 214.8, 475.8)">i</text><text xml:space="preserve" font-family="TimesNewRomanPSMT,Times New Roman" font-size="39.0" fill="#000000" transform="matrix(1.00, 0.00, -0.00, -1.00, 225.6, 475.8)">n</text><text xml:space="preserve" font-family="TimesNewRomanPSMT,Times New Roman" font-size="39.0" fill="#000000" transform="matrix(1.00, 0.00, -0.00, -1.00, 245.1, 475.8)">g</text><text xml:space="preserve" font-family="TimesNewRomanPSMT,Times New Roman" font-size="39.0" fill="#000000" transform="matrix(1.00, 0.00, -0.00, -1.00, 264.6, 475.8)"> </text><text xml:space="preserve" font-family="TimesNewRomanPSMT,Times New Roman" font-size="39.0" fill="#000000" transform="matrix(1.00, 0.00, -0.00, -1.00, 274.4, 475.8)">h</text><text xml:space="preserve" font-family="TimesNewRomanPSMT,Times New Roman" font-size="39.0" fill="#000000" transform="matrix(1.00, 0.00, -0.00, -1.00, 293.9, 475.8)">i</text><text xml:space="preserve" font-family="TimesNewRomanPSMT,Times New Roman" font-size="39.0" fill="#000000" transform="matrix(1.00, 0.00, -0.00, -1.00, 304.7, 475.8)">g</text><text xml:space="preserve" font-family="TimesNewRomanPSMT,Times New Roman" font-size="39.0" fill="#000000" transform="matrix(1.00, 0.00, -0.00, -1.00, 324.2, 475.8)">h</text><text xml:space="preserve" font-family="TimesNewRomanPSMT,Times New Roman" font-size="39.0" fill="#000000" transform="matrix(1.00, 0.00, -0.00, -1.00, 343.7, 475.8)">-</text><text xml:space="preserve" font-family="TimesNewRomanPSMT,Times New Roman" font-size="39.0" fill="#000000" transform="matrix(1.00, 0.00, -0.00, -1.00, 356.7, 475.8)">p</text><text xml:space="preserve" font-family="TimesNewRomanPSMT,Times New Roman" font-size="39.0" fill="#000000" transform="matrix(1.00, 0.00, -0.00, -1.00, 376.2, 475.8)">r</text><text xml:space="preserve" font-family="TimesNewRomanPSMT,Times New Roman" font-size="39.0" fill="#000000" transform="matrix(1.00, 0.00, -0.00, -1.00, 389.2, 475.8)">i</text><text xml:space="preserve" font-family="TimesNewRomanPSMT,Times New Roman" font-size="39.0" fill="#000000" transform="matrix(1.00, 0.00, -0.00, -1.00, 400.0, 475.8)">o</text><text xml:space="preserve" font-family="TimesNewRomanPSMT,Times New Roman" font-size="39.0" fill="#000000" transform="matrix(1.00, 0.00, -0.00, -1.00, 419.5, 475.8)">r</text><text xml:space="preserve" font-family="TimesNewRomanPSMT,Times New Roman" font-size="39.0" fill="#000000" transform="matrix(1.00, 0.00, -0.00, -1.00, 432.5, 475.8)">i</text><text xml:space="preserve" font-family="TimesNewRomanPSMT,Times New Roman" font-size="39.0" fill="#000000" transform="matrix(1.00, 0.00, -0.00, -1.00, 443.3, 475.8)">t</text><text xml:space="preserve" font-family="TimesNewRomanPSMT,Times New Roman" font-size="39.0" fill="#000000" transform="matrix(1.00, 0.00, -0.00, -1.00, 454.2, 475.8)">y</text><text xml:space="preserve" font-family="TimesNewRomanPSMT,Times New Roman" font-size="39.0" fill="#000000" transform="matrix(1.00, 0.00, -0.00, -1.00, 473.7, 475.8)"> </text><text xml:space="preserve" font-family="TimesNewRomanPSMT,Times New Roman" font-size="39.0" fill="#000000" transform="matrix(1.00, 0.00, -0.00, -1.00, 483.4, 475.8)">p</text><text xml:space="preserve" font-family="TimesNewRomanPSMT,Times New Roman" font-size="39.0" fill="#000000" transform="matrix(1.00, 0.00, -0.00, -1.00, 502.9, 475.8)">r</text><text xml:space="preserve" font-family="TimesNewRomanPSMT,Times New Roman" font-size="39.0" fill="#000000" transform="matrix(1.00, 0.00, -0.00, -1.00, 515.9, 475.8)">o</text><text xml:space="preserve" font-family="TimesNewRomanPSMT,Times New Roman" font-size="39.0" fill="#000000" transform="matrix(1.00, 0.00, -0.00, -1.00, 535.4, 475.8)">b</text><text xml:space="preserve" font-family="TimesNewRomanPSMT,Times New Roman" font-size="39.0" fill="#000000" transform="matrix(1.00, 0.00, -0.00, -1.00, 554.9, 475.8)">l</text><text xml:space="preserve" font-family="TimesNewRomanPSMT,Times New Roman" font-size="39.0" fill="#000000" transform="matrix(1.00, 0.00, -0.00, -1.00, 565.7, 475.8)">e</text><text xml:space="preserve" font-family="TimesNewRomanPSMT,Times New Roman" font-size="39.0" fill="#000000" transform="matrix(1.00, 0.00, -0.00, -1.00, 583.0, 475.8)">m</text><text xml:space="preserve" font-family="TimesNewRomanPSMT,Times New Roman" font-size="39.0" fill="#000000" transform="matrix(1.00, 0.00, -0.00, -1.00, 613.4, 475.8)">s</text><text xml:space="preserve" font-family="TrebuchetMS,Trebuchet MS" font-size="12.0" fill="#878787" transform="matrix(1.00, 0.00, -0.00, -1.00, 674.1, 20.8)">4</text><g><clipPath id="clip0x7feb77189ce0"><path d="M 367.4 140.1 L 697.7 140.1 L 697.7 365.4 L 367.4 365.4 Z M 367.4 140.1 "></path></clipPath><g clip-path="url(#clip0x7feb77189ce0)"><image xlink:href="../../8CC63B7D-617E-4B3C-AAA3-CB85D0779C4C/assets/33469B7037F525225288B3DFF2F26821.png" width="390.00" height="266.00" transform="matrix(0.85, 0.00, -0.00, -0.85, 367.4, 365.4)"></image></g></g><g><clipPath id="clip0x7feb78e69ae0"><path d="M 400.1 112.8 L 705.7 112.8 L 705.7 156.0 L 400.1 156.0 Z M 400.1 112.8 "></path></clipPath><g clip-path="url(#clip0x7feb78e69ae0)"><path d="M 401.0 155.0 L 705.0 155.0 L 705.0 114.0 L 401.0 114.0 Z M 401.1 155.0 " fill="#FFFFFF"></path></g></g><g><clipPath id="clip0x7feb78e810d0"><path d="M 400.3 113.0 L 705.4 113.0 L 705.4 155.7 L 400.3 155.7 Z M 400.3 113.0 "></path></clipPath><g clip-path="url(#clip0x7feb78e810d0)"><text xml:space="preserve" font-family="TrebuchetMS,Trebuchet MS" font-size="15.0" fill="#000000" transform="matrix(1.00, 0.00, -0.00, -1.00, 552.9, 137.7)"> </text><text xml:space="preserve" font-family="TrebuchetMS,Trebuchet MS" font-size="15.0" fill="#000000" transform="matrix(1.00, 0.00, -0.00, -1.00, 557.4, 137.7)"> </text><text xml:space="preserve" font-family="TrebuchetMS,Trebuchet MS" font-size="15.0" fill="#000000" transform="matrix(1.00, 0.00, -0.00, -1.00, 552.9, 120.7)"> </text><text xml:space="preserve" font-family="TrebuchetMS,Trebuchet MS" font-size="15.0" fill="#000000" transform="matrix(1.00, 0.00, -0.00, -1.00, 557.4, 120.7)"> </text><text xml:space="preserve" font-family="TrebuchetMS,Trebuchet MS" font-size="15.0" fill="#000000" transform="matrix(1.00, 0.00, -0.00, -1.00, 561.9, 120.7)"> </text><text xml:space="preserve" font-family="TrebuchetMS,Trebuchet MS" font-size="15.0" fill="#000000" transform="matrix(1.00, 0.00, -0.00, -1.00, 566.4, 120.7)"> </text></g></g><g><clipPath id="clip0x7feb78e6f0d0"><path d="M 406.3 120.1 L 441.2 120.1 L 441.2 157.3 L 406.3 157.3 Z M 406.3 120.1 "></path></clipPath><g clip-path="url(#clip0x7feb78e6f0d0)"><path d="M 407.0 156.0 L 440.0 156.0 L 440.0 121.0 L 407.0 121.0 Z M 407.3 156.3 " fill="#FFFFFF"></path></g></g><g><clipPath id="clip0x7feb78e6fed0"><path d="M 407.3 121.1 L 443.8 121.1 L 443.8 156.3 L 407.3 156.3 Z M 407.3 121.1 "></path></clipPath><g clip-path="url(#clip0x7feb78e6fed0)"><text xml:space="preserve" font-family="TrebuchetMS,Trebuchet MS" font-size="12.0" fill="#000000" transform="matrix(1.00, 0.00, -0.00, -1.00, 414.4, 141.3)">J</text><text xml:space="preserve" font-family="TrebuchetMS,Trebuchet MS" font-size="12.0" fill="#000000" transform="matrix(1.00, 0.00, -0.00, -1.00, 420.1, 141.3)">u</text><text xml:space="preserve" font-family="TrebuchetMS,Trebuchet MS" font-size="12.0" fill="#000000" transform="matrix(1.00, 0.00, -0.00, -1.00, 426.6, 141.3)">n</text><text xml:space="preserve" font-family="TrebuchetMS,Trebuchet MS" font-size="12.0" fill="#000000" transform="matrix(1.00, 0.00, -0.00, -1.00, 433.2, 141.3)"> </text><text xml:space="preserve" font-family="TrebuchetMS,Trebuchet MS" font-size="12.0" fill="#000000" transform="matrix(1.00, 0.00, -0.00, -1.00, 417.5, 127.3)">1</text><text xml:space="preserve" font-family="TrebuchetMS,Trebuchet MS" font-size="12.0" fill="#000000" transform="matrix(1.00, 0.00, -0.00, -1.00, 423.8, 127.3)">0</text></g></g><g><clipPath id="clip0x7feb78e736e0"><path d="M 470.3 120.5 L 505.2 120.5 L 505.2 157.7 L 470.3 157.7 Z M 470.3 120.5 "></path></clipPath><g clip-path="url(#clip0x7feb78e736e0)"><path d="M 471.0 157.0 L 504.0 157.0 L 504.0 122.0 L 471.0 122.0 Z M 471.3 156.7 " fill="#FFFFFF"></path></g></g><g><clipPath id="clip0x7feb78e744b0"><path d="M 471.3 121.5 L 507.8 121.5 L 507.8 156.7 L 471.3 156.7 Z M 471.3 121.5 "></path></clipPath><g clip-path="url(#clip0x7feb78e744b0)"><text xml:space="preserve" font-family="TrebuchetMS,Trebuchet MS" font-size="12.0" fill="#000000" transform="matrix(1.00, 0.00, -0.00, -1.00, 478.4, 141.8)">J</text><text xml:space="preserve" font-family="TrebuchetMS,Trebuchet MS" font-size="12.0" fill="#000000" transform="matrix(1.00, 0.00, -0.00, -1.00, 484.1, 141.8)">u</text><text xml:space="preserve" font-family="TrebuchetMS,Trebuchet MS" font-size="12.0" fill="#000000" transform="matrix(1.00, 0.00, -0.00, -1.00, 490.6, 141.8)">n</text><text xml:space="preserve" font-family="TrebuchetMS,Trebuchet MS" font-size="12.0" fill="#000000" transform="matrix(1.00, 0.00, -0.00, -1.00, 497.2, 141.8)"> </text><text xml:space="preserve" font-family="TrebuchetMS,Trebuchet MS" font-size="12.0" fill="#000000" transform="matrix(1.00, 0.00, -0.00, -1.00, 481.5, 127.8)">1</text><text xml:space="preserve" font-family="TrebuchetMS,Trebuchet MS" font-size="12.0" fill="#000000" transform="matrix(1.00, 0.00, -0.00, -1.00, 487.8, 127.8)">1</text></g></g><g><clipPath id="clip0x7feb78e77e90"><path d="M 532.2 120.5 L 567.1 120.5 L 567.1 157.7 L 532.2 157.7 Z M 532.2 120.5 "></path></clipPath><g clip-path="url(#clip0x7feb78e77e90)"><path d="M 533.0 157.0 L 566.0 157.0 L 566.0 122.0 L 533.0 122.0 Z M 533.2 156.7 " fill="#FFFFFF"></path></g></g><g><clipPath id="clip0x7feb78e78c60"><path d="M 533.2 121.5 L 569.7 121.5 L 569.7 156.7 L 533.2 156.7 Z M 533.2 121.5 "></path></clipPath><g clip-path="url(#clip0x7feb78e78c60)"><text xml:space="preserve" font-family="TrebuchetMS,Trebuchet MS" font-size="12.0" fill="#000000" transform="matrix(1.00, 0.00, -0.00, -1.00, 540.2, 141.8)">J</text><text xml:space="preserve" font-family="TrebuchetMS,Trebuchet MS" font-size="12.0" fill="#000000" transform="matrix(1.00, 0.00, -0.00, -1.00, 546.0, 141.8)">u</text><text xml:space="preserve" font-family="TrebuchetMS,Trebuchet MS" font-size="12.0" fill="#000000" transform="matrix(1.00, 0.00, -0.00, -1.00, 552.5, 141.8)">n</text><text xml:space="preserve" font-family="TrebuchetMS,Trebuchet MS" font-size="12.0" fill="#000000" transform="matrix(1.00, 0.00, -0.00, -1.00, 559.1, 141.8)"> </text><text xml:space="preserve" font-family="TrebuchetMS,Trebuchet MS" font-size="12.0" fill="#000000" transform="matrix(1.00, 0.00, -0.00, -1.00, 543.4, 127.8)">1</text><text xml:space="preserve" font-family="TrebuchetMS,Trebuchet MS" font-size="12.0" fill="#000000" transform="matrix(1.00, 0.00, -0.00, -1.00, 549.7, 127.8)">2</text></g></g><g><clipPath id="clip0x7feb78e7c3d0"><path d="M 594.5 120.5 L 629.4 120.5 L 629.4 157.7 L 594.5 157.7 Z M 594.5 120.5 "></path></clipPath><g clip-path="url(#clip0x7feb78e7c3d0)"><path d="M 596.0 157.0 L 628.0 157.0 L 628.0 122.0 L 596.0 122.0 Z M 595.5 156.7 " fill="#FFFFFF"></path></g></g><g><clipPath id="clip0x7feb78e7d1a0"><path d="M 595.5 121.5 L 632.0 121.5 L 632.0 156.7 L 595.5 156.7 Z M 595.5 121.5 "></path></clipPath><g clip-path="url(#clip0x7feb78e7d1a0)"><text xml:space="preserve" font-family="TrebuchetMS,Trebuchet MS" font-size="12.0" fill="#000000" transform="matrix(1.00, 0.00, -0.00, -1.00, 602.6, 141.8)">J</text><text xml:space="preserve" font-family="TrebuchetMS,Trebuchet MS" font-size="12.0" fill="#000000" transform="matrix(1.00, 0.00, -0.00, -1.00, 608.3, 141.8)">u</text><text xml:space="preserve" font-family="TrebuchetMS,Trebuchet MS" font-size="12.0" fill="#000000" transform="matrix(1.00, 0.00, -0.00, -1.00, 614.8, 141.8)">n</text><text xml:space="preserve" font-family="TrebuchetMS,Trebuchet MS" font-size="12.0" fill="#000000" transform="matrix(1.00, 0.00, -0.00, -1.00, 621.4, 141.8)"> </text><text xml:space="preserve" font-family="TrebuchetMS,Trebuchet MS" font-size="12.0" fill="#000000" transform="matrix(1.00, 0.00, -0.00, -1.00, 605.7, 127.8)">1</text><text xml:space="preserve" font-family="TrebuchetMS,Trebuchet MS" font-size="12.0" fill="#000000" transform="matrix(1.00, 0.00, -0.00, -1.00, 612.0, 127.8)">3</text></g></g><g><clipPath id="clip0x7feb78e80960"><path d="M 655.1 120.5 L 690.0 120.5 L 690.0 157.7 L 655.1 157.7 Z M 655.1 120.5 "></path></clipPath><g clip-path="url(#clip0x7feb78e80960)"><path d="M 656.0 157.0 L 689.0 157.0 L 689.0 122.0 L 656.0 122.0 Z M 656.1 156.7 " fill="#FFFFFF"></path></g></g><g><clipPath id="clip0x7feb78e81c10"><path d="M 656.1 121.5 L 692.6 121.5 L 692.6 156.7 L 656.1 156.7 Z M 656.1 121.5 "></path></clipPath><g clip-path="url(#clip0x7feb78e81c10)"><text xml:space="preserve" font-family="TrebuchetMS,Trebuchet MS" font-size="12.0" fill="#000000" transform="matrix(1.00, 0.00, -0.00, -1.00, 663.1, 141.8)">J</text><text xml:space="preserve" font-family="TrebuchetMS,Trebuchet MS" font-size="12.0" fill="#000000" transform="matrix(1.00, 0.00, -0.00, -1.00, 668.9, 141.8)">u</text><text xml:space="preserve" font-family="TrebuchetMS,Trebuchet MS" font-size="12.0" fill="#000000" transform="matrix(1.00, 0.00, -0.00, -1.00, 675.4, 141.8)">n</text><text xml:space="preserve" font-family="TrebuchetMS,Trebuchet MS" font-size="12.0" fill="#000000" transform="matrix(1.00, 0.00, -0.00, -1.00, 682.0, 141.8)"> </text><text xml:space="preserve" font-family="TrebuchetMS,Trebuchet MS" font-size="12.0" fill="#000000" transform="matrix(1.00, 0.00, -0.00, -1.00, 666.3, 127.8)">1</text><text xml:space="preserve" font-family="TrebuchetMS,Trebuchet MS" font-size="12.0" fill="#000000" transform="matrix(1.00, 0.00, -0.00, -1.00, 672.6, 127.8)">4</text></g></g><g><clipPath id="clip0x7feb78e85380"><path d="M 437.3 120.5 L 472.2 120.5 L 472.2 157.7 L 437.3 157.7 Z M 437.3 120.5 "></path></clipPath><g clip-path="url(#clip0x7feb78e85380)"><path d="M 438.0 157.0 L 471.0 157.0 L 471.0 122.0 L 438.0 122.0 Z M 438.3 156.7 " fill="#FFFFFF"></path></g></g><g><clipPath id="clip0x7feb78e86150"><path d="M 438.3 121.5 L 475.3 121.5 L 475.3 156.7 L 438.3 156.7 Z M 438.3 121.5 "></path></clipPath><g clip-path="url(#clip0x7feb78e86150)"><text xml:space="preserve" font-family="TrebuchetMS,Trebuchet MS" font-size="12.0" fill="#000000" transform="matrix(1.00, 0.00, -0.00, -1.00, 444.8, 141.8)">D</text><text xml:space="preserve" font-family="TrebuchetMS,Trebuchet MS" font-size="12.0" fill="#000000" transform="matrix(1.00, 0.00, -0.00, -1.00, 452.2, 141.8)">e</text><text xml:space="preserve" font-family="TrebuchetMS,Trebuchet MS" font-size="12.0" fill="#000000" transform="matrix(1.00, 0.00, -0.00, -1.00, 458.8, 141.8)">c</text><text xml:space="preserve" font-family="TrebuchetMS,Trebuchet MS" font-size="12.0" fill="#000000" transform="matrix(1.00, 0.00, -0.00, -1.00, 464.7, 141.8)"> </text><text xml:space="preserve" font-family="TrebuchetMS,Trebuchet MS" font-size="12.0" fill="#000000" transform="matrix(1.00, 0.00, -0.00, -1.00, 448.5, 127.8)">1</text><text xml:space="preserve" font-family="TrebuchetMS,Trebuchet MS" font-size="12.0" fill="#000000" transform="matrix(1.00, 0.00, -0.00, -1.00, 454.8, 127.8)">0</text></g></g><g><clipPath id="clip0x7feb78e897e0"><path d="M 501.9 120.5 L 536.8 120.5 L 536.8 157.7 L 501.9 157.7 Z M 501.9 120.5 "></path></clipPath><g clip-path="url(#clip0x7feb78e897e0)"><path d="M 503.0 157.0 L 536.0 157.0 L 536.0 122.0 L 503.0 122.0 Z M 502.9 156.7 " fill="#FFFFFF"></path></g></g><g><clipPath id="clip0x7feb78e8a5b0"><path d="M 502.9 121.5 L 539.9 121.5 L 539.9 156.7 L 502.9 156.7 Z M 502.9 121.5 "></path></clipPath><g clip-path="url(#clip0x7feb78e8a5b0)"><text xml:space="preserve" font-family="TrebuchetMS,Trebuchet MS" font-size="12.0" fill="#000000" transform="matrix(1.00, 0.00, -0.00, -1.00, 509.4, 141.8)">D</text><text xml:space="preserve" font-family="TrebuchetMS,Trebuchet MS" font-size="12.0" fill="#000000" transform="matrix(1.00, 0.00, -0.00, -1.00, 516.8, 141.8)">e</text><text xml:space="preserve" font-family="TrebuchetMS,Trebuchet MS" font-size="12.0" fill="#000000" transform="matrix(1.00, 0.00, -0.00, -1.00, 523.4, 141.8)">c</text><text xml:space="preserve" font-family="TrebuchetMS,Trebuchet MS" font-size="12.0" fill="#000000" transform="matrix(1.00, 0.00, -0.00, -1.00, 529.3, 141.8)"> </text><text xml:space="preserve" font-family="TrebuchetMS,Trebuchet MS" font-size="12.0" fill="#000000" transform="matrix(1.00, 0.00, -0.00, -1.00, 513.1, 127.8)">1</text><text xml:space="preserve" font-family="TrebuchetMS,Trebuchet MS" font-size="12.0" fill="#000000" transform="matrix(1.00, 0.00, -0.00, -1.00, 519.4, 127.8)">0</text></g></g><g><clipPath id="clip0x7feb78e8dc40"><path d="M 625.5 120.5 L 660.4 120.5 L 660.4 157.7 L 625.5 157.7 Z M 625.5 120.5 "></path></clipPath><g clip-path="url(#clip0x7feb78e8dc40)"><path d="M 627.0 157.0 L 659.0 157.0 L 659.0 122.0 L 627.0 122.0 Z M 626.5 156.7 " fill="#FFFFFF"></path></g></g><g><clipPath id="clip0x7feb78e8ea90"><path d="M 626.5 121.5 L 663.5 121.5 L 663.5 156.7 L 626.5 156.7 Z M 626.5 121.5 "></path></clipPath><g clip-path="url(#clip0x7feb78e8ea90)"><text xml:space="preserve" font-family="TrebuchetMS,Trebuchet MS" font-size="12.0" fill="#000000" transform="matrix(1.00, 0.00, -0.00, -1.00, 633.0, 141.8)">D</text><text xml:space="preserve" font-family="TrebuchetMS,Trebuchet MS" font-size="12.0" fill="#000000" transform="matrix(1.00, 0.00, -0.00, -1.00, 640.4, 141.8)">e</text><text xml:space="preserve" font-family="TrebuchetMS,Trebuchet MS" font-size="12.0" fill="#000000" transform="matrix(1.00, 0.00, -0.00, -1.00, 647.0, 141.8)">c</text><text xml:space="preserve" font-family="TrebuchetMS,Trebuchet MS" font-size="12.0" fill="#000000" transform="matrix(1.00, 0.00, -0.00, -1.00, 652.9, 141.8)"> </text><text xml:space="preserve" font-family="TrebuchetMS,Trebuchet MS" font-size="12.0" fill="#000000" transform="matrix(1.00, 0.00, -0.00, -1.00, 636.7, 127.8)">1</text><text xml:space="preserve" font-family="TrebuchetMS,Trebuchet MS" font-size="12.0" fill="#000000" transform="matrix(1.00, 0.00, -0.00, -1.00, 643.0, 127.8)">3</text></g></g><g><clipPath id="clip0x7feb78e92120"><path d="M 564.2 120.5 L 599.1 120.5 L 599.1 157.7 L 564.2 157.7 Z M 564.2 120.5 "></path></clipPath><g clip-path="url(#clip0x7feb78e92120)"><path d="M 565.0 157.0 L 598.0 157.0 L 598.0 122.0 L 565.0 122.0 Z M 565.2 156.7 " fill="#FFFFFF"></path></g></g><g><clipPath id="clip0x7feb78e92ef0"><path d="M 565.2 121.5 L 602.2 121.5 L 602.2 156.7 L 565.2 156.7 Z M 565.2 121.5 "></path></clipPath><g clip-path="url(#clip0x7feb78e92ef0)"><text xml:space="preserve" font-family="TrebuchetMS,Trebuchet MS" font-size="12.0" fill="#000000" transform="matrix(1.00, 0.00, -0.00, -1.00, 571.7, 141.8)">D</text><text xml:space="preserve" font-family="TrebuchetMS,Trebuchet MS" font-size="12.0" fill="#000000" transform="matrix(1.00, 0.00, -0.00, -1.00, 579.1, 141.8)">e</text><text xml:space="preserve" font-family="TrebuchetMS,Trebuchet MS" font-size="12.0" fill="#000000" transform="matrix(1.00, 0.00, -0.00, -1.00, 585.7, 141.8)">c</text><text xml:space="preserve" font-family="TrebuchetMS,Trebuchet MS" font-size="12.0" fill="#000000" transform="matrix(1.00, 0.00, -0.00, -1.00, 591.6, 141.8)"> </text><text xml:space="preserve" font-family="TrebuchetMS,Trebuchet MS" font-size="12.0" fill="#000000" transform="matrix(1.00, 0.00, -0.00, -1.00, 575.4, 127.8)">1</text><text xml:space="preserve" font-family="TrebuchetMS,Trebuchet MS" font-size="12.0" fill="#000000" transform="matrix(1.00, 0.00, -0.00, -1.00, 581.7, 127.8)">2</text></g></g><g><clipPath id="clip0x7feb78e96580"><path d="M -24.9 142.8 L 359.5 142.8 L 359.5 342.5 L -24.9 342.5 Z M -24.9 142.8 "></path></clipPath><g clip-path="url(#clip0x7feb78e96580)"><image xlink:href="../../8CC63B7D-617E-4B3C-AAA3-CB85D0779C4C/assets/85CF760B6701BE5794E16B466BE0438E.png" width="512.00" height="266.00" transform="matrix(0.75, 0.00, -0.00, -0.75, -24.9, 342.5)"></image></g></g><g><clipPath id="clip0x7feb7737d380"><path d="M 181.6 325.6 L 269.7 325.6 L 269.7 355.8 L 181.6 355.8 Z M 181.6 325.6 "></path></clipPath><g clip-path="url(#clip0x7feb7737d380)"><path d="M 183.0 355.0 L 269.0 355.0 L 269.0 327.0 L 183.0 327.0 Z M 182.6 354.8 " fill="#FFFFFF"></path></g></g><g><clipPath id="clip0x7feb77390d80"><path d="M 181.0 324.9 L 270.3 324.9 L 270.3 356.4 L 181.0 356.4 Z M 181.0 324.9 "></path></clipPath><g clip-path="url(#clip0x7feb77390d80)"><text xml:space="preserve" font-family="TrebuchetMS,Trebuchet MS" font-size="18.0" fill="#000000" transform="matrix(1.00, 0.00, -0.00, -1.00, 186.2, 334.2)">B</text><text xml:space="preserve" font-family="TrebuchetMS,Trebuchet MS" font-size="18.0" fill="#000000" transform="matrix(1.00, 0.00, -0.00, -1.00, 196.4, 334.2)">r</text><text xml:space="preserve" font-family="TrebuchetMS,Trebuchet MS" font-size="18.0" fill="#000000" transform="matrix(1.00, 0.00, -0.00, -1.00, 203.4, 334.2)">o</text><text xml:space="preserve" font-family="TrebuchetMS,Trebuchet MS" font-size="18.0" fill="#000000" transform="matrix(1.00, 0.00, -0.00, -1.00, 213.1, 334.2)">o</text><text xml:space="preserve" font-family="TrebuchetMS,Trebuchet MS" font-size="18.0" fill="#000000" transform="matrix(1.00, 0.00, -0.00, -1.00, 222.7, 334.2)">k</text><text xml:space="preserve" font-family="TrebuchetMS,Trebuchet MS" font-size="18.0" fill="#000000" transform="matrix(1.00, 0.00, -0.00, -1.00, 231.8, 334.2)">l</text><text xml:space="preserve" font-family="TrebuchetMS,Trebuchet MS" font-size="18.0" fill="#000000" transform="matrix(1.00, 0.00, -0.00, -1.00, 237.1, 334.2)">y</text><text xml:space="preserve" font-family="TrebuchetMS,Trebuchet MS" font-size="18.0" fill="#000000" transform="matrix(1.00, 0.00, -0.00, -1.00, 246.0, 334.2)">n</text></g></g><g><clipPath id="clip0x7feb76efb1f0"><path d="M -3.6 293.1 L 92.6 293.1 L 92.6 332.3 L -3.6 332.3 Z M -3.6 293.1 "></path></clipPath><g clip-path="url(#clip0x7feb76efb1f0)"><path d="M -3.0 331.0 L 92.0 331.0 L 92.0 294.0 L -3.0 294.0 Z M -2.6 331.3 " fill="#FFFFFF"></path></g></g><g><clipPath id="clip0x7feb76efbfa0"><path d="M -2.8 293.9 L 91.8 293.9 L 91.8 331.4 L -2.8 331.4 Z M -2.8 293.9 "></path></clipPath><g clip-path="url(#clip0x7feb76efbfa0)"><text xml:space="preserve" font-family="TrebuchetMS,Trebuchet MS" font-size="13.0" fill="#000000" transform="matrix(1.00, 0.00, -0.00, -1.00, 21.8, 315.6)">B</text><text xml:space="preserve" font-family="TrebuchetMS,Trebuchet MS" font-size="13.0" fill="#000000" transform="matrix(1.00, 0.00, -0.00, -1.00, 29.1, 315.6)">l</text><text xml:space="preserve" font-family="TrebuchetMS,Trebuchet MS" font-size="13.0" fill="#000000" transform="matrix(1.00, 0.00, -0.00, -1.00, 33.0, 315.6)">o</text><text xml:space="preserve" font-family="TrebuchetMS,Trebuchet MS" font-size="13.0" fill="#000000" transform="matrix(1.00, 0.00, -0.00, -1.00, 39.9, 315.6)">c</text><text xml:space="preserve" font-family="TrebuchetMS,Trebuchet MS" font-size="13.0" fill="#000000" transform="matrix(1.00, 0.00, -0.00, -1.00, 46.4, 315.6)">k</text><text xml:space="preserve" font-family="TrebuchetMS,Trebuchet MS" font-size="13.0" fill="#000000" transform="matrix(1.00, 0.00, -0.00, -1.00, 52.9, 315.6)">e</text><text xml:space="preserve" font-family="TrebuchetMS,Trebuchet MS" font-size="13.0" fill="#000000" transform="matrix(1.00, 0.00, -0.00, -1.00, 60.0, 315.6)">d</text><text xml:space="preserve" font-family="TrebuchetMS,Trebuchet MS" font-size="13.0" fill="#000000" transform="matrix(1.00, 0.00, -0.00, -1.00, 67.3, 315.6)"> </text><text xml:space="preserve" font-family="TrebuchetMS,Trebuchet MS" font-size="13.0" fill="#000000" transform="matrix(1.00, 0.00, -0.00, -1.00, 18.3, 300.6)">d</text><text xml:space="preserve" font-family="TrebuchetMS,Trebuchet MS" font-size="13.0" fill="#000000" transform="matrix(1.00, 0.00, -0.00, -1.00, 25.6, 300.6)">r</text><text xml:space="preserve" font-family="TrebuchetMS,Trebuchet MS" font-size="13.0" fill="#000000" transform="matrix(1.00, 0.00, -0.00, -1.00, 30.6, 300.6)">i</text><text xml:space="preserve" font-family="TrebuchetMS,Trebuchet MS" font-size="13.0" fill="#000000" transform="matrix(1.00, 0.00, -0.00, -1.00, 34.3, 300.6)">v</text><text xml:space="preserve" font-family="TrebuchetMS,Trebuchet MS" font-size="13.0" fill="#000000" transform="matrix(1.00, 0.00, -0.00, -1.00, 40.7, 300.6)">e</text><text xml:space="preserve" font-family="TrebuchetMS,Trebuchet MS" font-size="13.0" fill="#000000" transform="matrix(1.00, 0.00, -0.00, -1.00, 47.8, 300.6)">w</text><text xml:space="preserve" font-family="TrebuchetMS,Trebuchet MS" font-size="13.0" fill="#000000" transform="matrix(1.00, 0.00, -0.00, -1.00, 57.5, 300.6)">a</text><text xml:space="preserve" font-family="TrebuchetMS,Trebuchet MS" font-size="13.0" fill="#000000" transform="matrix(1.00, 0.00, -0.00, -1.00, 64.3, 300.6)">y</text></g></g><g><clipPath id="clip0x7feb76eb2b20"><path d="M 27.2 166.1 L 92.3 166.1 L 92.3 190.3 L 27.2 190.3 Z M 27.2 166.1 "></path></clipPath><g clip-path="url(#clip0x7feb76eb2b20)"><path d="M 28.0 189.0 L 91.0 189.0 L 91.0 167.0 L 28.0 167.0 Z M 28.2 189.3 " fill="#FFFFFF"></path></g></g><g><clipPath id="clip0x7feb76eb38d0"><path d="M 28.0 166.9 L 91.5 166.9 L 91.5 189.5 L 28.0 189.5 Z M 28.0 166.9 "></path></clipPath><g clip-path="url(#clip0x7feb76eb38d0)"><text xml:space="preserve" font-family="TrebuchetMS,Trebuchet MS" font-size="13.0" fill="#000000" transform="matrix(1.00, 0.00, -0.00, -1.00, 46.0, 173.6)">H</text><text xml:space="preserve" font-family="TrebuchetMS,Trebuchet MS" font-size="13.0" fill="#000000" transform="matrix(1.00, 0.00, -0.00, -1.00, 54.5, 173.6)">e</text><text xml:space="preserve" font-family="TrebuchetMS,Trebuchet MS" font-size="13.0" fill="#000000" transform="matrix(1.00, 0.00, -0.00, -1.00, 61.6, 173.6)">a</text><text xml:space="preserve" font-family="TrebuchetMS,Trebuchet MS" font-size="13.0" fill="#000000" transform="matrix(1.00, 0.00, -0.00, -1.00, 68.4, 173.6)">t</text></g></g><g><clipPath id="clip0x7feb76eb5f20"><path d="M 16.9 262.6 L 92.6 262.6 L 92.6 286.8 L 16.9 286.8 Z M 16.9 262.6 "></path></clipPath><g clip-path="url(#clip0x7feb76eb5f20)"><path d="M 18.0 286.0 L 92.0 286.0 L 92.0 264.0 L 18.0 264.0 Z M 17.9 285.8 " fill="#FFFFFF"></path></g></g><g><clipPath id="clip0x7feb76eb6f10"><path d="M 17.7 263.4 L 91.8 263.4 L 91.8 285.9 L 17.7 285.9 Z M 17.7 263.4 "></path></clipPath><g clip-path="url(#clip0x7feb76eb6f10)"><text xml:space="preserve" font-family="TrebuchetMS,Trebuchet MS" font-size="13.0" fill="#000000" transform="matrix(1.00, 0.00, -0.00, -1.00, 40.0, 270.0)">P</text><text xml:space="preserve" font-family="TrebuchetMS,Trebuchet MS" font-size="13.0" fill="#000000" transform="matrix(1.00, 0.00, -0.00, -1.00, 46.7, 270.0)">a</text><text xml:space="preserve" font-family="TrebuchetMS,Trebuchet MS" font-size="13.0" fill="#000000" transform="matrix(1.00, 0.00, -0.00, -1.00, 53.5, 270.0)">i</text><text xml:space="preserve" font-family="TrebuchetMS,Trebuchet MS" font-size="13.0" fill="#000000" transform="matrix(1.00, 0.00, -0.00, -1.00, 57.2, 270.0)">n</text><text xml:space="preserve" font-family="TrebuchetMS,Trebuchet MS" font-size="13.0" fill="#000000" transform="matrix(1.00, 0.00, -0.00, -1.00, 64.3, 270.0)">t</text></g></g><g><clipPath id="clip0x7feb76eb9c90"><path d="M 16.9 230.4 L 92.6 230.4 L 92.6 254.6 L 16.9 254.6 Z M 16.9 230.4 "></path></clipPath><g clip-path="url(#clip0x7feb76eb9c90)"><path d="M 18.0 254.0 L 92.0 254.0 L 92.0 231.0 L 18.0 231.0 Z M 17.9 253.6 " fill="#FFFFFF"></path></g></g><g><clipPath id="clip0x7feb76ebaa60"><path d="M 17.7 231.3 L 91.8 231.3 L 91.8 253.8 L 17.7 253.8 Z M 17.7 231.3 "></path></clipPath><g clip-path="url(#clip0x7feb76ebaa60)"><text xml:space="preserve" font-family="TrebuchetMS,Trebuchet MS" font-size="13.0" fill="#000000" transform="matrix(1.00, 0.00, -0.00, -1.00, 28.0, 237.9)">P</text><text xml:space="preserve" font-family="TrebuchetMS,Trebuchet MS" font-size="13.0" fill="#000000" transform="matrix(1.00, 0.00, -0.00, -1.00, 35.2, 237.9)">l</text><text xml:space="preserve" font-family="TrebuchetMS,Trebuchet MS" font-size="13.0" fill="#000000" transform="matrix(1.00, 0.00, -0.00, -1.00, 39.1, 237.9)">u</text><text xml:space="preserve" font-family="TrebuchetMS,Trebuchet MS" font-size="13.0" fill="#000000" transform="matrix(1.00, 0.00, -0.00, -1.00, 46.2, 237.9)">m</text><text xml:space="preserve" font-family="TrebuchetMS,Trebuchet MS" font-size="13.0" fill="#000000" transform="matrix(1.00, 0.00, -0.00, -1.00, 57.0, 237.9)">b</text><text xml:space="preserve" font-family="TrebuchetMS,Trebuchet MS" font-size="13.0" fill="#000000" transform="matrix(1.00, 0.00, -0.00, -1.00, 64.2, 237.9)">i</text><text xml:space="preserve" font-family="TrebuchetMS,Trebuchet MS" font-size="13.0" fill="#000000" transform="matrix(1.00, 0.00, -0.00, -1.00, 67.9, 237.9)">n</text><text xml:space="preserve" font-family="TrebuchetMS,Trebuchet MS" font-size="13.0" fill="#000000" transform="matrix(1.00, 0.00, -0.00, -1.00, 75.0, 237.9)">g</text></g></g><g><clipPath id="clip0x7feb76ebebe0"><path d="M -0.4 194.7 L 91.4 194.7 L 91.4 218.9 L -0.4 218.9 Z M -0.4 194.7 "></path></clipPath><g clip-path="url(#clip0x7feb76ebebe0)"><path d="M 1.0 218.0 L 90.0 218.0 L 90.0 196.0 L 1.0 196.0 Z M 0.6 217.9 " fill="#FFFFFF"></path></g></g><g><clipPath id="clip0x7feb76ebfce0"><path d="M 0.5 195.5 L 90.6 195.5 L 90.6 218.1 L 0.5 218.1 Z M 0.5 195.5 "></path></clipPath><g clip-path="url(#clip0x7feb76ebfce0)"><text xml:space="preserve" font-family="TrebuchetMS,Trebuchet MS" font-size="13.0" fill="#000000" transform="matrix(1.00, 0.00, -0.00, -1.00, 8.6, 202.2)">C</text><text xml:space="preserve" font-family="TrebuchetMS,Trebuchet MS" font-size="13.0" fill="#000000" transform="matrix(1.00, 0.00, -0.00, -1.00, 16.4, 202.2)">o</text><text xml:space="preserve" font-family="TrebuchetMS,Trebuchet MS" font-size="13.0" fill="#000000" transform="matrix(1.00, 0.00, -0.00, -1.00, 23.4, 202.2)">n</text><text xml:space="preserve" font-family="TrebuchetMS,Trebuchet MS" font-size="13.0" fill="#000000" transform="matrix(1.00, 0.00, -0.00, -1.00, 30.5, 202.2)">s</text><text xml:space="preserve" font-family="TrebuchetMS,Trebuchet MS" font-size="13.0" fill="#000000" transform="matrix(1.00, 0.00, -0.00, -1.00, 35.7, 202.2)">t</text><text xml:space="preserve" font-family="TrebuchetMS,Trebuchet MS" font-size="13.0" fill="#000000" transform="matrix(1.00, 0.00, -0.00, -1.00, 40.9, 202.2)">r</text><text xml:space="preserve" font-family="TrebuchetMS,Trebuchet MS" font-size="13.0" fill="#000000" transform="matrix(1.00, 0.00, -0.00, -1.00, 45.9, 202.2)">u</text><text xml:space="preserve" font-family="TrebuchetMS,Trebuchet MS" font-size="13.0" fill="#000000" transform="matrix(1.00, 0.00, -0.00, -1.00, 53.0, 202.2)">c</text><text xml:space="preserve" font-family="TrebuchetMS,Trebuchet MS" font-size="13.0" fill="#000000" transform="matrix(1.00, 0.00, -0.00, -1.00, 59.5, 202.2)">t</text><text xml:space="preserve" font-family="TrebuchetMS,Trebuchet MS" font-size="13.0" fill="#000000" transform="matrix(1.00, 0.00, -0.00, -1.00, 64.6, 202.2)">i</text><text xml:space="preserve" font-family="TrebuchetMS,Trebuchet MS" font-size="13.0" fill="#000000" transform="matrix(1.00, 0.00, -0.00, -1.00, 68.3, 202.2)">o</text><text xml:space="preserve" font-family="TrebuchetMS,Trebuchet MS" font-size="13.0" fill="#000000" transform="matrix(1.00, 0.00, -0.00, -1.00, 75.3, 202.2)">n</text></g></g><text xml:space="preserve" font-family="Times-Roman,Times" font-size="27.0" fill="#000000" transform="matrix(1.00, 0.00, -0.00, -1.00, 157.0, 65.5)">H</text><text xml:space="preserve" font-family="Times-Roman,Times" font-size="27.0" fill="#000000" transform="matrix(1.00, 0.00, -0.00, -1.00, 176.5, 65.5)">o</text><text xml:space="preserve" font-family="Times-Roman,Times" font-size="27.0" fill="#000000" transform="matrix(1.00, 0.00, -0.00, -1.00, 190.0, 65.5)">w</text><text xml:space="preserve" font-family="Times-Roman,Times" font-size="27.0" fill="#000000" transform="matrix(1.00, 0.00, -0.00, -1.00, 209.5, 65.5)"> </text><text xml:space="preserve" font-family="Times-Roman,Times" font-size="27.0" fill="#000000" transform="matrix(1.00, 0.00, -0.00, -1.00, 216.3, 65.5)">d</text><text xml:space="preserve" font-family="Times-Roman,Times" font-size="27.0" fill="#000000" transform="matrix(1.00, 0.00, -0.00, -1.00, 229.8, 65.5)">o</text><text xml:space="preserve" font-family="Times-Roman,Times" font-size="27.0" fill="#000000" transform="matrix(1.00, 0.00, -0.00, -1.00, 243.3, 65.5)"> </text><text xml:space="preserve" font-family="Times-Roman,Times" font-size="27.0" fill="#000000" transform="matrix(1.00, 0.00, -0.00, -1.00, 250.0, 65.5)">y</text><text xml:space="preserve" font-family="Times-Roman,Times" font-size="27.0" fill="#000000" transform="matrix(1.00, 0.00, -0.00, -1.00, 263.5, 65.5)">o</text><text xml:space="preserve" font-family="Times-Roman,Times" font-size="27.0" fill="#000000" transform="matrix(1.00, 0.00, -0.00, -1.00, 277.0, 65.5)">u</text><text xml:space="preserve" font-family="Times-Roman,Times" font-size="27.0" fill="#000000" transform="matrix(1.00, 0.00, -0.00, -1.00, 290.5, 65.5)"> </text><text xml:space="preserve" font-family="Times-Roman,Times" font-size="27.0" fill="#000000" transform="matrix(1.00, 0.00, -0.00, -1.00, 297.3, 65.5)">q</text><text xml:space="preserve" font-family="Times-Roman,Times" font-size="27.0" fill="#000000" transform="matrix(1.00, 0.00, -0.00, -1.00, 310.8, 65.5)">u</text><text xml:space="preserve" font-family="Times-Roman,Times" font-size="27.0" fill="#000000" transform="matrix(1.00, 0.00, -0.00, -1.00, 324.3, 65.5)">a</text><text xml:space="preserve" font-family="Times-Roman,Times" font-size="27.0" fill="#000000" transform="matrix(1.00, 0.00, -0.00, -1.00, 336.3, 65.5)">n</text><text xml:space="preserve" font-family="Times-Roman,Times" font-size="27.0" fill="#000000" transform="matrix(1.00, 0.00, -0.00, -1.00, 349.8, 65.5)">t</text><text xml:space="preserve" font-family="Times-Roman,Times" font-size="27.0" fill="#000000" transform="matrix(1.00, 0.00, -0.00, -1.00, 357.3, 65.5)">i</text><text xml:space="preserve" font-family="Times-Roman,Times" font-size="27.0" fill="#000000" transform="matrix(1.00, 0.00, -0.00, -1.00, 364.8, 65.5)">f</text><text xml:space="preserve" font-family="Times-Roman,Times" font-size="27.0" fill="#000000" transform="matrix(1.00, 0.00, -0.00, -1.00, 373.8, 65.5)">y</text><text xml:space="preserve" font-family="Times-Roman,Times" font-size="27.0" fill="#000000" transform="matrix(1.00, 0.00, -0.00, -1.00, 387.3, 65.5)"> </text><text xml:space="preserve" font-family="Times-Roman,Times" font-size="27.0" fill="#000000" transform="matrix(1.00, 0.00, -0.00, -1.00, 394.0, 65.5)">‘</text><text xml:space="preserve" font-family="Times-Roman,Times" font-size="27.0" fill="#000000" transform="matrix(1.00, 0.00, -0.00, -1.00, 403.0, 65.5)">h</text><text xml:space="preserve" font-family="Times-Roman,Times" font-size="27.0" fill="#000000" transform="matrix(1.00, 0.00, -0.00, -1.00, 416.5, 65.5)">i</text><text xml:space="preserve" font-family="Times-Roman,Times" font-size="27.0" fill="#000000" transform="matrix(1.00, 0.00, -0.00, -1.00, 424.0, 65.5)">g</text><text xml:space="preserve" font-family="Times-Roman,Times" font-size="27.0" fill="#000000" transform="matrix(1.00, 0.00, -0.00, -1.00, 437.5, 65.5)">h</text><text xml:space="preserve" font-family="Times-Roman,Times" font-size="27.0" fill="#000000" transform="matrix(1.00, 0.00, -0.00, -1.00, 451.0, 65.5)">-</text><text xml:space="preserve" font-family="Times-Roman,Times" font-size="27.0" fill="#000000" transform="matrix(1.00, 0.00, -0.00, -1.00, 460.0, 65.5)">p</text><text xml:space="preserve" font-family="Times-Roman,Times" font-size="27.0" fill="#000000" transform="matrix(1.00, 0.00, -0.00, -1.00, 473.5, 65.5)">r</text><text xml:space="preserve" font-family="Times-Roman,Times" font-size="27.0" fill="#000000" transform="matrix(1.00, 0.00, -0.00, -1.00, 482.5, 65.5)">i</text><text xml:space="preserve" font-family="Times-Roman,Times" font-size="27.0" fill="#000000" transform="matrix(1.00, 0.00, -0.00, -1.00, 490.0, 65.5)">o</text><text xml:space="preserve" font-family="Times-Roman,Times" font-size="27.0" fill="#000000" transform="matrix(1.00, 0.00, -0.00, -1.00, 503.5, 65.5)">r</text><text xml:space="preserve" font-family="Times-Roman,Times" font-size="27.0" fill="#000000" transform="matrix(1.00, 0.00, -0.00, -1.00, 512.5, 65.5)">i</text><text xml:space="preserve" font-family="Times-Roman,Times" font-size="27.0" fill="#000000" transform="matrix(1.00, 0.00, -0.00, -1.00, 520.0, 65.5)">t</text><text xml:space="preserve" font-family="Times-Roman,Times" font-size="27.0" fill="#000000" transform="matrix(1.00, 0.00, -0.00, -1.00, 527.5, 65.5)">y</text><text xml:space="preserve" font-family="Times-Roman,Times" font-size="27.0" fill="#000000" transform="matrix(1.00, 0.00, -0.00, -1.00, 541.0, 65.5)">’</text><text xml:space="preserve" font-family="Times-Roman,Times" font-size="27.0" fill="#000000" transform="matrix(1.00, 0.00, -0.00, -1.00, 549.9, 65.5)">?</text></g></svg>