<?xml version="1.0" encoding="UTF-8" standalone="no"?><svg xmlns="http://www.w3.org/2000/svg" xmlns:xlink="http://www.w3.org/1999/xlink" clip-rule="evenodd" stroke-miterlimit="10" viewBox="0 0 720 540"><desc>SVG generated by Keynote</desc><defs></defs><g transform="matrix(1.00, 0.00, -0.00, -1.00, 0.0, 540.0)"><path d="M 0.0 540.0 L 720.0 540.0 L 720.0 0.0 L 0.0 0.0 Z M 0.0 540.0 " fill="#FFFFFF"></path><text xml:space="preserve" font-family="TrebuchetMS,Trebuchet MS" font-size="12.0" fill="#878787" transform="matrix(1.00, 0.00, -0.00, -1.00, 674.1, 20.8)">5</text><g><clipPath id="clip0x7feb76eddf40"><path d="M 0.0 540.0 L 720.0 540.0 L 720.0 0.0 L 0.0 0.0 Z M 0.0 540.0 "></path></clipPath><g clip-path="url(#clip0x7feb76eddf40)"><image xlink:href="AAD23692472553EBC5AD7237F9F20344.png" width="800.00" height="600.00" transform="matrix(0.90, 0.00, -0.00, -0.90, 0.0, 540.0)"></image></g></g><text xml:space="preserve" font-family="TrebuchetMS,Trebuchet MS" font-size="18.0" fill="#000000" transform="matrix(1.00, 0.00, -0.00, -1.00, 218.8, 505.8)">B</text><text xml:space="preserve" font-family="TrebuchetMS,Trebuchet MS" font-size="18.0" fill="#000000" transform="matrix(1.00, 0.00, -0.00, -1.00, 229.0, 505.8)">R</text><text xml:space="preserve" font-family="TrebuchetMS,Trebuchet MS" font-size="18.0" fill="#000000" transform="matrix(1.00, 0.00, -0.00, -1.00, 239.5, 505.8)">O</text><text xml:space="preserve" font-family="TrebuchetMS,Trebuchet MS" font-size="18.0" fill="#000000" transform="matrix(1.00, 0.00, -0.00, -1.00, 251.6, 505.8)">N</text><text xml:space="preserve" font-family="TrebuchetMS,Trebuchet MS" font-size="18.0" fill="#000000" transform="matrix(1.00, 0.00, -0.00, -1.00, 263.1, 505.8)">X</text><text xml:space="preserve" font-family="TrebuchetMS,Trebuchet MS" font-size="18.0" fill="#000000" transform="matrix(1.00, 0.00, -0.00, -1.00, 273.1, 505.8)"> </text><text xml:space="preserve" font-family="TrebuchetMS,Trebuchet MS" font-size="18.0" fill="#000000" transform="matrix(1.00, 0.00, -0.00, -1.00, 278.5, 505.8)">c</text><text xml:space="preserve" font-family="TrebuchetMS,Trebuchet MS" font-size="18.0" fill="#000000" transform="matrix(1.00, 0.00, -0.00, -1.00, 287.4, 505.8)">o</text><text xml:space="preserve" font-family="TrebuchetMS,Trebuchet MS" font-size="18.0" fill="#000000" transform="matrix(1.00, 0.00, -0.00, -1.00, 297.1, 505.8)">m</text><text xml:space="preserve" font-family="TrebuchetMS,Trebuchet MS" font-size="18.0" fill="#000000" transform="matrix(1.00, 0.00, -0.00, -1.00, 312.0, 505.8)">p</text><text xml:space="preserve" font-family="TrebuchetMS,Trebuchet MS" font-size="18.0" fill="#000000" transform="matrix(1.00, 0.00, -0.00, -1.00, 322.1, 505.8)">l</text><text xml:space="preserve" font-family="TrebuchetMS,Trebuchet MS" font-size="18.0" fill="#000000" transform="matrix(1.00, 0.00, -0.00, -1.00, 327.4, 505.8)">a</text><text xml:space="preserve" font-family="TrebuchetMS,Trebuchet MS" font-size="18.0" fill="#000000" transform="matrix(1.00, 0.00, -0.00, -1.00, 336.8, 505.8)">i</text><text xml:space="preserve" font-family="TrebuchetMS,Trebuchet MS" font-size="18.0" fill="#000000" transform="matrix(1.00, 0.00, -0.00, -1.00, 342.0, 505.8)">n</text><text xml:space="preserve" font-family="TrebuchetMS,Trebuchet MS" font-size="18.0" fill="#000000" transform="matrix(1.00, 0.00, -0.00, -1.00, 351.8, 505.8)">t</text><text xml:space="preserve" font-family="TrebuchetMS,Trebuchet MS" font-size="18.0" fill="#000000" transform="matrix(1.00, 0.00, -0.00, -1.00, 359.0, 505.8)">s</text><text xml:space="preserve" font-family="TrebuchetMS,Trebuchet MS" font-size="18.0" fill="#000000" transform="matrix(1.00, 0.00, -0.00, -1.00, 366.2, 505.8)"> </text><text xml:space="preserve" font-family="TrebuchetMS,Trebuchet MS" font-size="18.0" fill="#000000" transform="matrix(1.00, 0.00, -0.00, -1.00, 371.7, 505.8)">i</text><text xml:space="preserve" font-family="TrebuchetMS,Trebuchet MS" font-size="18.0" fill="#000000" transform="matrix(1.00, 0.00, -0.00, -1.00, 376.8, 505.8)">n</text><text xml:space="preserve" font-family="TrebuchetMS,Trebuchet MS" font-size="18.0" fill="#000000" transform="matrix(1.00, 0.00, -0.00, -1.00, 386.6, 505.8)"> </text><text xml:space="preserve" font-family="TrebuchetMS,Trebuchet MS" font-size="18.0" fill="#000000" transform="matrix(1.00, 0.00, -0.00, -1.00, 392.1, 505.8)">l</text><text xml:space="preserve" font-family="TrebuchetMS,Trebuchet MS" font-size="18.0" fill="#000000" transform="matrix(1.00, 0.00, -0.00, -1.00, 397.4, 505.8)">a</text><text xml:space="preserve" font-family="TrebuchetMS,Trebuchet MS" font-size="18.0" fill="#000000" transform="matrix(1.00, 0.00, -0.00, -1.00, 406.8, 505.8)">s</text><text xml:space="preserve" font-family="TrebuchetMS,Trebuchet MS" font-size="18.0" fill="#000000" transform="matrix(1.00, 0.00, -0.00, -1.00, 414.1, 505.8)">t</text><text xml:space="preserve" font-family="TrebuchetMS,Trebuchet MS" font-size="18.0" fill="#000000" transform="matrix(1.00, 0.00, -0.00, -1.00, 421.3, 505.8)"> </text><text xml:space="preserve" font-family="TrebuchetMS,Trebuchet MS" font-size="18.0" fill="#000000" transform="matrix(1.00, 0.00, -0.00, -1.00, 426.7, 505.8)">3</text><text xml:space="preserve" font-family="TrebuchetMS,Trebuchet MS" font-size="18.0" fill="#000000" transform="matrix(1.00, 0.00, -0.00, -1.00, 436.1, 505.8)"> </text><text xml:space="preserve" font-family="TrebuchetMS,Trebuchet MS" font-size="18.0" fill="#000000" transform="matrix(1.00, 0.00, -0.00, -1.00, 441.6, 505.8)">m</text><text xml:space="preserve" font-family="TrebuchetMS,Trebuchet MS" font-size="18.0" fill="#000000" transform="matrix(1.00, 0.00, -0.00, -1.00, 456.5, 505.8)">o</text><text xml:space="preserve" font-family="TrebuchetMS,Trebuchet MS" font-size="18.0" fill="#000000" transform="matrix(1.00, 0.00, -0.00, -1.00, 466.2, 505.8)">n</text><text xml:space="preserve" font-family="TrebuchetMS,Trebuchet MS" font-size="18.0" fill="#000000" transform="matrix(1.00, 0.00, -0.00, -1.00, 476.0, 505.8)">t</text><text xml:space="preserve" font-family="TrebuchetMS,Trebuchet MS" font-size="18.0" fill="#000000" transform="matrix(1.00, 0.00, -0.00, -1.00, 483.2, 505.8)">h</text><text xml:space="preserve" font-family="TrebuchetMS,Trebuchet MS" font-size="18.0" fill="#000000" transform="matrix(1.00, 0.00, -0.00, -1.00, 493.0, 505.8)">s</text></g></svg>