<?xml version="1.0" encoding="UTF-8" standalone="no"?><svg xmlns="http://www.w3.org/2000/svg" xmlns:xlink="http://www.w3.org/1999/xlink" clip-rule="evenodd" stroke-miterlimit="10" viewBox="0 0 720 540"><desc>SVG generated by Keynote</desc><defs></defs><g transform="matrix(1.00, 0.00, -0.00, -1.00, 0.0, 540.0)"><path d="M 0.0 540.0 L 720.0 540.0 L 720.0 0.0 L 0.0 0.0 Z M 0.0 540.0 " fill="#FFFFFF"></path><image xlink:href="../../4CF03379-9224-4743-BA4E-00382A51921B/assets/99725BC0E6CBACF25EF739EA6D3534B0.png" width="278.00" height="299.00" transform="matrix(0.76, 0.00, -0.00, -0.76, 244.2, 331.9)"></image><text xml:space="preserve" font-family="TrebuchetMS,Trebuchet MS" font-size="12.0" fill="#878787" transform="matrix(1.00, 0.00, -0.00, -1.00, 674.1, 20.8)">8</text><text xml:space="preserve" font-family="TimesNewRomanPSMT,Times New Roman" font-size="44.0" fill="#0048A9" transform="matrix(1.00, 0.00, -0.00, -1.00, 507.4, 481.0)">D</text><text xml:space="preserve" font-family="TimesNewRomanPSMT,Times New Roman" font-size="44.0" fill="#0048A9" transform="matrix(1.00, 0.00, -0.00, -1.00, 539.1, 481.0)">a</text><text xml:space="preserve" font-family="TimesNewRomanPSMT,Times New Roman" font-size="44.0" fill="#0048A9" transform="matrix(1.00, 0.00, -0.00, -1.00, 558.7, 481.0)">h</text><text xml:space="preserve" font-family="TimesNewRomanPSMT,Times New Roman" font-size="44.0" fill="#0048A9" transform="matrix(1.00, 0.00, -0.00, -1.00, 580.7, 481.0)">l</text><text xml:space="preserve" font-family="TimesNewRomanPSMT,Times New Roman" font-size="44.0" fill="#0048A9" transform="matrix(1.00, 0.00, -0.00, -1.00, 592.9, 481.0)">i</text><text xml:space="preserve" font-family="TimesNewRomanPSMT,Times New Roman" font-size="44.0" fill="#0048A9" transform="matrix(1.00, 0.00, -0.00, -1.00, 605.1, 481.0)">a</text><text xml:space="preserve" font-family="TimesNewRomanPSMT,Times New Roman" font-size="44.0" fill="#0048A9" transform="matrix(1.00, 0.00, -0.00, -1.00, 624.6, 481.0)"> </text><text xml:space="preserve" font-family="TimesNewRomanPSMT,Times New Roman" font-size="44.0" fill="#0048A9" transform="matrix(1.00, 0.00, -0.00, -1.00, 484.1, 430.0)">N</text><text xml:space="preserve" font-family="TimesNewRomanPSMT,Times New Roman" font-size="44.0" fill="#0048A9" transform="matrix(1.00, 0.00, -0.00, -1.00, 515.9, 430.0)">a</text><text xml:space="preserve" font-family="TimesNewRomanPSMT,Times New Roman" font-size="44.0" fill="#0048A9" transform="matrix(1.00, 0.00, -0.00, -1.00, 535.4, 430.0)">d</text><text xml:space="preserve" font-family="TimesNewRomanPSMT,Times New Roman" font-size="44.0" fill="#0048A9" transform="matrix(1.00, 0.00, -0.00, -1.00, 557.4, 430.0)">k</text><text xml:space="preserve" font-family="TimesNewRomanPSMT,Times New Roman" font-size="44.0" fill="#0048A9" transform="matrix(1.00, 0.00, -0.00, -1.00, 579.4, 430.0)">a</text><text xml:space="preserve" font-family="TimesNewRomanPSMT,Times New Roman" font-size="44.0" fill="#0048A9" transform="matrix(1.00, 0.00, -0.00, -1.00, 599.0, 430.0)">r</text><text xml:space="preserve" font-family="TimesNewRomanPSMT,Times New Roman" font-size="44.0" fill="#0048A9" transform="matrix(1.00, 0.00, -0.00, -1.00, 613.6, 430.0)">n</text><text xml:space="preserve" font-family="TimesNewRomanPSMT,Times New Roman" font-size="44.0" fill="#0048A9" transform="matrix(1.00, 0.00, -0.00, -1.00, 635.6, 430.0)">i</text><image xlink:href="../../4CF03379-9224-4743-BA4E-00382A51921B/assets/B5CE26398A2C5503FCC0F526F61E732F.png" width="1229.00" height="637.00" transform="matrix(0.18, 0.00, -0.00, -0.18, 17.2, 122.4)"></image><g><clipPath id="clip0x7feb77410e70"><path d="M 439.1 6.4 L 706.9 6.4 L 706.9 211.4 L 439.1 211.4 Z M 439.1 6.4 "></path></clipPath><g clip-path="url(#clip0x7feb77410e70)"><image xlink:href="../../4CF03379-9224-4743-BA4E-00382A51921B/assets/980EE830573F7D74CD99E2170890CA7C.png" width="901.00" height="690.00" transform="matrix(0.30, 0.00, -0.00, -0.30, 439.1, 211.4)"></image></g></g><g><clipPath id="clip0x7feb77681170"><path d="M 626.7 231.1 L 626.7 162.9 L 588.1 162.9 L 588.1 231.1 Z M 626.7 231.1 "></path></clipPath><g clip-path="url(#clip0x7feb77681170)"><image xlink:href="../../4CF03379-9224-4743-BA4E-00382A51921B/assets/79682C095E6A152728992C271505578F.png" width="66.00" height="37.00" transform="matrix(0.00, -1.00, -0.99, 0.00, 625.7, 230.1)" opacity="0.35"></image><path d="M 603.0 193.0 L 593.0 193.0 L 607.4 169.2 L 621.8 193.0 L 612.0 193.0 L 612.0 228.0 L 603.0 228.0 Z M 602.9 193.2 " fill="#FFFFFF"></path><path d="M 34.9 18.8 L 34.9 28.9 L 58.7 14.4 L 34.9 0.0 L 34.9 9.8 L -0.1 9.8 L -0.1 18.8 Z M 34.7 18.9 " fill="none" stroke="#4E81BD" stroke-width="2.00" stroke-linejoin="bevel" transform="matrix(0.00, -1.00, -1.00, 0.00, 621.8, 227.9)"></path></g></g><g><clipPath id="clip0x7feb77683c80"><path d="M 525.4 252.5 L 689.4 252.5 L 689.4 382.1 L 525.4 382.1 Z M 525.4 252.5 "></path></clipPath><g clip-path="url(#clip0x7feb77683c80)"><image xlink:href="../../4CF03379-9224-4743-BA4E-00382A51921B/assets/5298120C3491B74EAFC94DFD170C867B.jpeg" width="214.00" height="169.00" transform="matrix(0.77, 0.00, -0.00, -0.77, 525.4, 382.1)" opacity="0.82"></image></g></g><image xlink:href="../../4CF03379-9224-4743-BA4E-00382A51921B/assets/A452FF29800BCD837FDDBA542EDAEA80.jpeg" width="256.00" height="160.00" transform="matrix(0.93, 0.00, -0.00, -0.93, 9.4, 368.5)"></image><g><clipPath id="clip0x7feb77412300"><path d="M 6.1 409.6 L 124.5 409.6 L 124.5 527.9 L 6.1 527.9 Z M 6.1 409.6 "></path></clipPath><g clip-path="url(#clip0x7feb77412300)"><image xlink:href="../../4CF03379-9224-4743-BA4E-00382A51921B/assets/A3A241DF3ACE367C8B812249FB341548.jpeg" width="1179.00" height="1178.00" transform="matrix(0.10, 0.00, -0.00, -0.10, 6.1, 527.9)"></image></g></g><g><clipPath id="clip0x7feb77441030"><path d="M 164.4 345.6 L 418.1 345.6 L 418.1 535.9 L 164.4 535.9 Z M 164.4 345.6 "></path></clipPath><g clip-path="url(#clip0x7feb77441030)"><image xlink:href="../../4CF03379-9224-4743-BA4E-00382A51921B/assets/7D52BD4CAF9766E2640BCBE3641CB7A3.jpeg" width="1280.00" height="960.00" transform="matrix(0.20, 0.00, -0.00, -0.20, 164.4, 535.9)" opacity="0.87"></image></g></g></g></svg>