<?xml version="1.0" encoding="UTF-8" standalone="no"?><svg xmlns="http://www.w3.org/2000/svg" xmlns:xlink="http://www.w3.org/1999/xlink" clip-rule="evenodd" stroke-miterlimit="10" viewBox="0 0 390 27"><desc>SVG generated by Keynote</desc><defs></defs><g transform="matrix(1.00, 0.00, -0.00, -1.00, 0.0, 27.0)"><text xml:space="preserve" font-family="ArialMT,Arial" font-size="22.8" fill="#000000" transform="matrix(1.00, 0.00, -0.00, -1.00, 0.4, 5.7)">•</text><text xml:space="preserve" font-family="TimesNewRomanPSMT,Times New Roman" font-size="22.8" fill="#000000" transform="matrix(1.00, 0.00, -0.00, -1.00, 24.9, 6.4)">T</text><text xml:space="preserve" font-family="TimesNewRomanPSMT,Times New Roman" font-size="22.8" fill="#000000" transform="matrix(1.00, 0.00, -0.00, -1.00, 38.0, 6.4)">i</text><text xml:space="preserve" font-family="TimesNewRomanPSMT,Times New Roman" font-size="22.8" fill="#000000" transform="matrix(1.00, 0.00, -0.00, -1.00, 44.4, 6.4)">m</text><text xml:space="preserve" font-family="TimesNewRomanPSMT,Times New Roman" font-size="22.8" fill="#000000" transform="matrix(1.00, 0.00, -0.00, -1.00, 62.0, 6.4)">e</text><text xml:space="preserve" font-family="TimesNewRomanPSMT,Times New Roman" font-size="22.8" fill="#000000" transform="matrix(1.00, 0.00, -0.00, -1.00, 72.1, 6.4)">s</text><text xml:space="preserve" font-family="TimesNewRomanPSMT,Times New Roman" font-size="22.8" fill="#000000" transform="matrix(1.00, 0.00, -0.00, -1.00, 81.0, 6.4)">t</text><text xml:space="preserve" font-family="TimesNewRomanPSMT,Times New Roman" font-size="22.8" fill="#000000" transform="matrix(1.00, 0.00, -0.00, -1.00, 87.3, 6.4)">a</text><text xml:space="preserve" font-family="TimesNewRomanPSMT,Times New Roman" font-size="22.8" fill="#000000" transform="matrix(1.00, 0.00, -0.00, -1.00, 97.4, 6.4)">m</text><text xml:space="preserve" font-family="TimesNewRomanPSMT,Times New Roman" font-size="22.8" fill="#000000" transform="matrix(1.00, 0.00, -0.00, -1.00, 115.1, 6.4)">p</text><text xml:space="preserve" font-family="TimesNewRomanPSMT,Times New Roman" font-size="22.8" fill="#000000" transform="matrix(1.00, 0.00, -0.00, -1.00, 126.5, 6.4)">s</text><text xml:space="preserve" font-family="TimesNewRomanPSMT,Times New Roman" font-size="22.8" fill="#000000" transform="matrix(1.00, 0.00, -0.00, -1.00, 135.3, 6.4)">:</text><text xml:space="preserve" font-family="TimesNewRomanPSMT,Times New Roman" font-size="22.8" fill="#000000" transform="matrix(1.00, 0.00, -0.00, -1.00, 141.6, 6.4)"> </text><text xml:space="preserve" font-family="TimesNewRomanPSMT,Times New Roman" font-size="22.8" fill="#000000" transform="matrix(1.00, 0.00, -0.00, -1.00, 147.3, 6.4)">c</text><text xml:space="preserve" font-family="TimesNewRomanPSMT,Times New Roman" font-size="22.8" fill="#000000" transform="matrix(1.00, 0.00, -0.00, -1.00, 157.4, 6.4)">r</text><text xml:space="preserve" font-family="TimesNewRomanPSMT,Times New Roman" font-size="22.8" fill="#000000" transform="matrix(1.00, 0.00, -0.00, -1.00, 165.0, 6.4)">e</text><text xml:space="preserve" font-family="TimesNewRomanPSMT,Times New Roman" font-size="22.8" fill="#000000" transform="matrix(1.00, 0.00, -0.00, -1.00, 175.1, 6.4)">a</text><text xml:space="preserve" font-family="TimesNewRomanPSMT,Times New Roman" font-size="22.8" fill="#000000" transform="matrix(1.00, 0.00, -0.00, -1.00, 185.2, 6.4)">t</text><text xml:space="preserve" font-family="TimesNewRomanPSMT,Times New Roman" font-size="22.8" fill="#000000" transform="matrix(1.00, 0.00, -0.00, -1.00, 191.5, 6.4)">e</text><text xml:space="preserve" font-family="TimesNewRomanPSMT,Times New Roman" font-size="22.8" fill="#000000" transform="matrix(1.00, 0.00, -0.00, -1.00, 201.6, 6.4)">d</text><text xml:space="preserve" font-family="TimesNewRomanPSMT,Times New Roman" font-size="22.8" fill="#000000" transform="matrix(1.00, 0.00, -0.00, -1.00, 213.0, 6.4)">,</text><text xml:space="preserve" font-family="TimesNewRomanPSMT,Times New Roman" font-size="22.8" fill="#000000" transform="matrix(1.00, 0.00, -0.00, -1.00, 218.7, 6.4)"> </text><text xml:space="preserve" font-family="TimesNewRomanPSMT,Times New Roman" font-size="22.8" fill="#000000" transform="matrix(1.00, 0.00, -0.00, -1.00, 224.4, 6.4)">r</text><text xml:space="preserve" font-family="TimesNewRomanPSMT,Times New Roman" font-size="22.8" fill="#000000" transform="matrix(1.00, 0.00, -0.00, -1.00, 231.9, 6.4)">e</text><text xml:space="preserve" font-family="TimesNewRomanPSMT,Times New Roman" font-size="22.8" fill="#000000" transform="matrix(1.00, 0.00, -0.00, -1.00, 242.0, 6.4)">s</text><text xml:space="preserve" font-family="TimesNewRomanPSMT,Times New Roman" font-size="22.8" fill="#000000" transform="matrix(1.00, 0.00, -0.00, -1.00, 250.9, 6.4)">o</text><text xml:space="preserve" font-family="TimesNewRomanPSMT,Times New Roman" font-size="22.8" fill="#000000" transform="matrix(1.00, 0.00, -0.00, -1.00, 262.3, 6.4)">l</text><text xml:space="preserve" font-family="TimesNewRomanPSMT,Times New Roman" font-size="22.8" fill="#000000" transform="matrix(1.00, 0.00, -0.00, -1.00, 268.6, 6.4)">v</text><text xml:space="preserve" font-family="TimesNewRomanPSMT,Times New Roman" font-size="22.8" fill="#000000" transform="matrix(1.00, 0.00, -0.00, -1.00, 279.9, 6.4)">e</text><text xml:space="preserve" font-family="TimesNewRomanPSMT,Times New Roman" font-size="22.8" fill="#000000" transform="matrix(1.00, 0.00, -0.00, -1.00, 290.0, 6.4)">d</text><text xml:space="preserve" font-family="TimesNewRomanPSMT,Times New Roman" font-size="22.8" fill="#000000" transform="matrix(1.00, 0.00, -0.00, -1.00, 301.4, 6.4)">,</text><text xml:space="preserve" font-family="TimesNewRomanPSMT,Times New Roman" font-size="22.8" fill="#000000" transform="matrix(1.00, 0.00, -0.00, -1.00, 307.1, 6.4)"> </text><text xml:space="preserve" font-family="TimesNewRomanPSMT,Times New Roman" font-size="22.8" fill="#000000" transform="matrix(1.00, 0.00, -0.00, -1.00, 312.8, 6.4)">d</text><text xml:space="preserve" font-family="TimesNewRomanPSMT,Times New Roman" font-size="22.8" fill="#000000" transform="matrix(1.00, 0.00, -0.00, -1.00, 324.2, 6.4)">u</text><text xml:space="preserve" font-family="TimesNewRomanPSMT,Times New Roman" font-size="22.8" fill="#000000" transform="matrix(1.00, 0.00, -0.00, -1.00, 335.5, 6.4)">e</text><text xml:space="preserve" font-family="TimesNewRomanPSMT,Times New Roman" font-size="22.8" fill="#000000" transform="matrix(1.00, 0.00, -0.00, -1.00, 345.6, 6.4)"> </text><text xml:space="preserve" font-family="TimesNewRomanPSMT,Times New Roman" font-size="22.8" fill="#000000" transform="matrix(1.00, 0.00, -0.00, -1.00, 351.3, 6.4)">d</text><text xml:space="preserve" font-family="TimesNewRomanPSMT,Times New Roman" font-size="22.8" fill="#000000" transform="matrix(1.00, 0.00, -0.00, -1.00, 362.7, 6.4)">a</text><text xml:space="preserve" font-family="TimesNewRomanPSMT,Times New Roman" font-size="22.8" fill="#000000" transform="matrix(1.00, 0.00, -0.00, -1.00, 372.8, 6.4)">t</text><text xml:space="preserve" font-family="TimesNewRomanPSMT,Times New Roman" font-size="22.8" fill="#000000" transform="matrix(1.00, 0.00, -0.00, -1.00, 379.1, 6.4)">e</text></g></svg>