<?xml version="1.0" encoding="UTF-8" standalone="no"?><svg xmlns="http://www.w3.org/2000/svg" xmlns:xlink="http://www.w3.org/1999/xlink" clip-rule="evenodd" stroke-miterlimit="10" viewBox="0 0 720 540"><desc>SVG generated by Keynote</desc><defs></defs><g transform="matrix(1.00, 0.00, -0.00, -1.00, 0.0, 540.0)"><path d="M 0.0 540.0 L 720.0 540.0 L 720.0 0.0 L 0.0 0.0 Z M 0.0 540.0 " fill="#EAEAEA"></path><image xlink:href="F6BC3D097E0E35FE663121757FBDCBD4.jpeg" width="468.00" height="286.00" transform="matrix(0.70, 0.00, -0.00, -0.70, 514.6, 198.8)"></image><image xlink:href="42C0BB589944248CDB1CF28D2458E53E.jpeg" width="275.00" height="183.00" transform="matrix(1.09, 0.00, -0.00, -1.09, 215.2, 198.8)"></image><image xlink:href="93F11F6BBD6DFC23A7F9A46FD8235D0A.jpeg" width="398.00" height="264.00" transform="matrix(0.75, 0.00, -0.00, -0.75, -23.6, 197.8)"></image><text xml:space="preserve" font-family="TimesNewRomanPSMT,Times New Roman" font-size="45.0" fill="#011EA9" transform="matrix(1.00, 0.00, -0.00, -1.00, 203.2, 402.4)">L</text><text xml:space="preserve" font-family="TimesNewRomanPSMT,Times New Roman" font-size="45.0" fill="#011EA9" transform="matrix(1.00, 0.00, -0.00, -1.00, 230.6, 402.4)">o</text><text xml:space="preserve" font-family="TimesNewRomanPSMT,Times New Roman" font-size="45.0" fill="#011EA9" transform="matrix(1.00, 0.00, -0.00, -1.00, 253.1, 402.4)">c</text><text xml:space="preserve" font-family="TimesNewRomanPSMT,Times New Roman" font-size="45.0" fill="#011EA9" transform="matrix(1.00, 0.00, -0.00, -1.00, 273.1, 402.4)">a</text><text xml:space="preserve" font-family="TimesNewRomanPSMT,Times New Roman" font-size="45.0" fill="#011EA9" transform="matrix(1.00, 0.00, -0.00, -1.00, 293.1, 402.4)">l</text><text xml:space="preserve" font-family="TimesNewRomanPSMT,Times New Roman" font-size="45.0" fill="#011EA9" transform="matrix(1.00, 0.00, -0.00, -1.00, 305.6, 402.4)">i</text><text xml:space="preserve" font-family="TimesNewRomanPSMT,Times New Roman" font-size="45.0" fill="#011EA9" transform="matrix(1.00, 0.00, -0.00, -1.00, 318.1, 402.4)">t</text><text xml:space="preserve" font-family="TimesNewRomanPSMT,Times New Roman" font-size="45.0" fill="#011EA9" transform="matrix(1.00, 0.00, -0.00, -1.00, 330.5, 402.4)">y</text><text xml:space="preserve" font-family="TimesNewRomanPSMT,Times New Roman" font-size="45.0" fill="#011EA9" transform="matrix(1.00, 0.00, -0.00, -1.00, 353.0, 402.4)"> </text><text xml:space="preserve" font-family="TimesNewRomanPSMT,Times New Roman" font-size="45.0" fill="#011EA9" transform="matrix(1.00, 0.00, -0.00, -1.00, 364.3, 402.4)">L</text><text xml:space="preserve" font-family="TimesNewRomanPSMT,Times New Roman" font-size="45.0" fill="#011EA9" transform="matrix(1.00, 0.00, -0.00, -1.00, 391.8, 402.4)">o</text><text xml:space="preserve" font-family="TimesNewRomanPSMT,Times New Roman" font-size="45.0" fill="#011EA9" transform="matrix(1.00, 0.00, -0.00, -1.00, 414.3, 402.4)">o</text><text xml:space="preserve" font-family="TimesNewRomanPSMT,Times New Roman" font-size="45.0" fill="#011EA9" transform="matrix(1.00, 0.00, -0.00, -1.00, 436.8, 402.4)">k</text><text xml:space="preserve" font-family="TimesNewRomanPSMT,Times New Roman" font-size="45.0" fill="#011EA9" transform="matrix(1.00, 0.00, -0.00, -1.00, 459.3, 402.4)">o</text><text xml:space="preserve" font-family="TimesNewRomanPSMT,Times New Roman" font-size="45.0" fill="#011EA9" transform="matrix(1.00, 0.00, -0.00, -1.00, 481.8, 402.4)">u</text><text xml:space="preserve" font-family="TimesNewRomanPSMT,Times New Roman" font-size="45.0" fill="#011EA9" transform="matrix(1.00, 0.00, -0.00, -1.00, 504.3, 402.4)">t</text><text xml:space="preserve" font-family="TimesNewRomanPSMT,Times New Roman" font-size="28.0" fill="#011EA9" transform="matrix(1.00, 0.00, -0.00, -1.00, 68.4, 343.8)">I</text><text xml:space="preserve" font-family="TimesNewRomanPSMT,Times New Roman" font-size="28.0" fill="#011EA9" transform="matrix(1.00, 0.00, -0.00, -1.00, 77.7, 343.8)">d</text><text xml:space="preserve" font-family="TimesNewRomanPSMT,Times New Roman" font-size="28.0" fill="#011EA9" transform="matrix(1.00, 0.00, -0.00, -1.00, 91.7, 343.8)">e</text><text xml:space="preserve" font-family="TimesNewRomanPSMT,Times New Roman" font-size="28.0" fill="#011EA9" transform="matrix(1.00, 0.00, -0.00, -1.00, 104.2, 343.8)">n</text><text xml:space="preserve" font-family="TimesNewRomanPSMT,Times New Roman" font-size="28.0" fill="#011EA9" transform="matrix(1.00, 0.00, -0.00, -1.00, 118.2, 343.8)">t</text><text xml:space="preserve" font-family="TimesNewRomanPSMT,Times New Roman" font-size="28.0" fill="#011EA9" transform="matrix(1.00, 0.00, -0.00, -1.00, 125.9, 343.8)">i</text><text xml:space="preserve" font-family="TimesNewRomanPSMT,Times New Roman" font-size="28.0" fill="#011EA9" transform="matrix(1.00, 0.00, -0.00, -1.00, 133.7, 343.8)">f</text><text xml:space="preserve" font-family="TimesNewRomanPSMT,Times New Roman" font-size="28.0" fill="#011EA9" transform="matrix(1.00, 0.00, -0.00, -1.00, 143.0, 343.8)">y</text><text xml:space="preserve" font-family="TimesNewRomanPSMT,Times New Roman" font-size="28.0" fill="#011EA9" transform="matrix(1.00, 0.00, -0.00, -1.00, 157.0, 343.8)">i</text><text xml:space="preserve" font-family="TimesNewRomanPSMT,Times New Roman" font-size="28.0" fill="#011EA9" transform="matrix(1.00, 0.00, -0.00, -1.00, 164.8, 343.8)">n</text><text xml:space="preserve" font-family="TimesNewRomanPSMT,Times New Roman" font-size="28.0" fill="#011EA9" transform="matrix(1.00, 0.00, -0.00, -1.00, 178.8, 343.8)">g</text><text xml:space="preserve" font-family="TimesNewRomanPSMT,Times New Roman" font-size="28.0" fill="#011EA9" transform="matrix(1.00, 0.00, -0.00, -1.00, 192.8, 343.8)"> </text><text xml:space="preserve" font-family="TimesNewRomanPSMT,Times New Roman" font-size="28.0" fill="#011EA9" transform="matrix(1.00, 0.00, -0.00, -1.00, 199.8, 343.8)">a</text><text xml:space="preserve" font-family="TimesNewRomanPSMT,Times New Roman" font-size="28.0" fill="#011EA9" transform="matrix(1.00, 0.00, -0.00, -1.00, 212.2, 343.8)">n</text><text xml:space="preserve" font-family="TimesNewRomanPSMT,Times New Roman" font-size="28.0" fill="#011EA9" transform="matrix(1.00, 0.00, -0.00, -1.00, 226.2, 343.8)">d</text><text xml:space="preserve" font-family="TimesNewRomanPSMT,Times New Roman" font-size="28.0" fill="#011EA9" transform="matrix(1.00, 0.00, -0.00, -1.00, 240.2, 343.8)"> </text><text xml:space="preserve" font-family="TimesNewRomanPSMT,Times New Roman" font-size="28.0" fill="#011EA9" transform="matrix(1.00, 0.00, -0.00, -1.00, 247.2, 343.8)">p</text><text xml:space="preserve" font-family="TimesNewRomanPSMT,Times New Roman" font-size="28.0" fill="#011EA9" transform="matrix(1.00, 0.00, -0.00, -1.00, 261.2, 343.8)">r</text><text xml:space="preserve" font-family="TimesNewRomanPSMT,Times New Roman" font-size="28.0" fill="#011EA9" transform="matrix(1.00, 0.00, -0.00, -1.00, 270.6, 343.8)">e</text><text xml:space="preserve" font-family="TimesNewRomanPSMT,Times New Roman" font-size="28.0" fill="#011EA9" transform="matrix(1.00, 0.00, -0.00, -1.00, 283.0, 343.8)">d</text><text xml:space="preserve" font-family="TimesNewRomanPSMT,Times New Roman" font-size="28.0" fill="#011EA9" transform="matrix(1.00, 0.00, -0.00, -1.00, 297.0, 343.8)">i</text><text xml:space="preserve" font-family="TimesNewRomanPSMT,Times New Roman" font-size="28.0" fill="#011EA9" transform="matrix(1.00, 0.00, -0.00, -1.00, 304.7, 343.8)">c</text><text xml:space="preserve" font-family="TimesNewRomanPSMT,Times New Roman" font-size="28.0" fill="#011EA9" transform="matrix(1.00, 0.00, -0.00, -1.00, 317.2, 343.8)">t</text><text xml:space="preserve" font-family="TimesNewRomanPSMT,Times New Roman" font-size="28.0" fill="#011EA9" transform="matrix(1.00, 0.00, -0.00, -1.00, 324.9, 343.8)">i</text><text xml:space="preserve" font-family="TimesNewRomanPSMT,Times New Roman" font-size="28.0" fill="#011EA9" transform="matrix(1.00, 0.00, -0.00, -1.00, 332.7, 343.8)">n</text><text xml:space="preserve" font-family="TimesNewRomanPSMT,Times New Roman" font-size="28.0" fill="#011EA9" transform="matrix(1.00, 0.00, -0.00, -1.00, 346.7, 343.8)">g</text><text xml:space="preserve" font-family="TimesNewRomanPSMT,Times New Roman" font-size="28.0" fill="#011EA9" transform="matrix(1.00, 0.00, -0.00, -1.00, 360.7, 343.8)"> </text><text xml:space="preserve" font-family="TimesNewRomanPSMT,Times New Roman" font-size="28.0" fill="#011EA9" transform="matrix(1.00, 0.00, -0.00, -1.00, 367.7, 343.8)">c</text><text xml:space="preserve" font-family="TimesNewRomanPSMT,Times New Roman" font-size="28.0" fill="#011EA9" transform="matrix(1.00, 0.00, -0.00, -1.00, 380.1, 343.8)">o</text><text xml:space="preserve" font-family="TimesNewRomanPSMT,Times New Roman" font-size="28.0" fill="#011EA9" transform="matrix(1.00, 0.00, -0.00, -1.00, 394.1, 343.8)">m</text><text xml:space="preserve" font-family="TimesNewRomanPSMT,Times New Roman" font-size="28.0" fill="#011EA9" transform="matrix(1.00, 0.00, -0.00, -1.00, 415.9, 343.8)">p</text><text xml:space="preserve" font-family="TimesNewRomanPSMT,Times New Roman" font-size="28.0" fill="#011EA9" transform="matrix(1.00, 0.00, -0.00, -1.00, 429.9, 343.8)">l</text><text xml:space="preserve" font-family="TimesNewRomanPSMT,Times New Roman" font-size="28.0" fill="#011EA9" transform="matrix(1.00, 0.00, -0.00, -1.00, 437.7, 343.8)">a</text><text xml:space="preserve" font-family="TimesNewRomanPSMT,Times New Roman" font-size="28.0" fill="#011EA9" transform="matrix(1.00, 0.00, -0.00, -1.00, 450.1, 343.8)">i</text><text xml:space="preserve" font-family="TimesNewRomanPSMT,Times New Roman" font-size="28.0" fill="#011EA9" transform="matrix(1.00, 0.00, -0.00, -1.00, 457.9, 343.8)">n</text><text xml:space="preserve" font-family="TimesNewRomanPSMT,Times New Roman" font-size="28.0" fill="#011EA9" transform="matrix(1.00, 0.00, -0.00, -1.00, 471.9, 343.8)">t</text><text xml:space="preserve" font-family="TimesNewRomanPSMT,Times New Roman" font-size="28.0" fill="#011EA9" transform="matrix(1.00, 0.00, -0.00, -1.00, 479.7, 343.8)">s</text><text xml:space="preserve" font-family="TimesNewRomanPSMT,Times New Roman" font-size="28.0" fill="#011EA9" transform="matrix(1.00, 0.00, -0.00, -1.00, 490.6, 343.8)"> </text><text xml:space="preserve" font-family="TimesNewRomanPSMT,Times New Roman" font-size="28.0" fill="#011EA9" transform="matrix(1.00, 0.00, -0.00, -1.00, 497.6, 343.8)">i</text><text xml:space="preserve" font-family="TimesNewRomanPSMT,Times New Roman" font-size="28.0" fill="#011EA9" transform="matrix(1.00, 0.00, -0.00, -1.00, 505.3, 343.8)">n</text><text xml:space="preserve" font-family="TimesNewRomanPSMT,Times New Roman" font-size="28.0" fill="#011EA9" transform="matrix(1.00, 0.00, -0.00, -1.00, 519.3, 343.8)"> </text><text xml:space="preserve" font-family="TimesNewRomanPSMT,Times New Roman" font-size="28.0" fill="#011EA9" transform="matrix(1.00, 0.00, -0.00, -1.00, 526.3, 343.8)">y</text><text xml:space="preserve" font-family="TimesNewRomanPSMT,Times New Roman" font-size="28.0" fill="#011EA9" transform="matrix(1.00, 0.00, -0.00, -1.00, 540.3, 343.8)">o</text><text xml:space="preserve" font-family="TimesNewRomanPSMT,Times New Roman" font-size="28.0" fill="#011EA9" transform="matrix(1.00, 0.00, -0.00, -1.00, 554.3, 343.8)">u</text><text xml:space="preserve" font-family="TimesNewRomanPSMT,Times New Roman" font-size="28.0" fill="#011EA9" transform="matrix(1.00, 0.00, -0.00, -1.00, 568.3, 343.8)">r</text><text xml:space="preserve" font-family="TimesNewRomanPSMT,Times New Roman" font-size="28.0" fill="#011EA9" transform="matrix(1.00, 0.00, -0.00, -1.00, 577.7, 343.8)"> </text><text xml:space="preserve" font-family="TimesNewRomanPSMT,Times New Roman" font-size="28.0" fill="#011EA9" transform="matrix(1.00, 0.00, -0.00, -1.00, 584.7, 343.8)">l</text><text xml:space="preserve" font-family="TimesNewRomanPSMT,Times New Roman" font-size="28.0" fill="#011EA9" transform="matrix(1.00, 0.00, -0.00, -1.00, 592.4, 343.8)">o</text><text xml:space="preserve" font-family="TimesNewRomanPSMT,Times New Roman" font-size="28.0" fill="#011EA9" transform="matrix(1.00, 0.00, -0.00, -1.00, 606.4, 343.8)">c</text><text xml:space="preserve" font-family="TimesNewRomanPSMT,Times New Roman" font-size="28.0" fill="#011EA9" transform="matrix(1.00, 0.00, -0.00, -1.00, 618.9, 343.8)">a</text><text xml:space="preserve" font-family="TimesNewRomanPSMT,Times New Roman" font-size="28.0" fill="#011EA9" transform="matrix(1.00, 0.00, -0.00, -1.00, 631.3, 343.8)">l</text><text xml:space="preserve" font-family="TimesNewRomanPSMT,Times New Roman" font-size="28.0" fill="#011EA9" transform="matrix(1.00, 0.00, -0.00, -1.00, 639.0, 343.8)">e</text><text xml:space="preserve" font-family="TimesNewRomanPSMT,Times New Roman" font-size="28.0" fill="#011EA9" transform="matrix(1.00, 0.00, -0.00, -1.00, 651.5, 343.8)"> </text><text xml:space="preserve" font-family="TimesNewRomanPSMT,Times New Roman" font-size="26.2" fill="#011892" transform="matrix(1.00, 0.00, -0.00, -1.00, 272.9, 252.2)">D</text><text xml:space="preserve" font-family="TimesNewRomanPSMT,Times New Roman" font-size="26.2" fill="#011892" transform="matrix(1.00, 0.00, -0.00, -1.00, 291.9, 252.2)">a</text><text xml:space="preserve" font-family="TimesNewRomanPSMT,Times New Roman" font-size="26.2" fill="#011892" transform="matrix(1.00, 0.00, -0.00, -1.00, 303.5, 252.2)">h</text><text xml:space="preserve" font-family="TimesNewRomanPSMT,Times New Roman" font-size="26.2" fill="#011892" transform="matrix(1.00, 0.00, -0.00, -1.00, 316.6, 252.2)">l</text><text xml:space="preserve" font-family="TimesNewRomanPSMT,Times New Roman" font-size="26.2" fill="#011892" transform="matrix(1.00, 0.00, -0.00, -1.00, 323.9, 252.2)">i</text><text xml:space="preserve" font-family="TimesNewRomanPSMT,Times New Roman" font-size="26.2" fill="#011892" transform="matrix(1.00, 0.00, -0.00, -1.00, 331.2, 252.2)">a</text><text xml:space="preserve" font-family="TimesNewRomanPSMT,Times New Roman" font-size="26.2" fill="#011892" transform="matrix(1.00, 0.00, -0.00, -1.00, 342.9, 252.2)"> </text><text xml:space="preserve" font-family="TimesNewRomanPSMT,Times New Roman" font-size="26.2" fill="#011892" transform="matrix(1.00, 0.00, -0.00, -1.00, 349.4, 252.2)">N</text><text xml:space="preserve" font-family="TimesNewRomanPSMT,Times New Roman" font-size="26.2" fill="#011892" transform="matrix(1.00, 0.00, -0.00, -1.00, 368.4, 252.2)">a</text><text xml:space="preserve" font-family="TimesNewRomanPSMT,Times New Roman" font-size="26.2" fill="#011892" transform="matrix(1.00, 0.00, -0.00, -1.00, 380.0, 252.2)">d</text><text xml:space="preserve" font-family="TimesNewRomanPSMT,Times New Roman" font-size="26.2" fill="#011892" transform="matrix(1.00, 0.00, -0.00, -1.00, 393.1, 252.2)">k</text><text xml:space="preserve" font-family="TimesNewRomanPSMT,Times New Roman" font-size="26.2" fill="#011892" transform="matrix(1.00, 0.00, -0.00, -1.00, 406.3, 252.2)">a</text><text xml:space="preserve" font-family="TimesNewRomanPSMT,Times New Roman" font-size="26.2" fill="#011892" transform="matrix(1.00, 0.00, -0.00, -1.00, 417.9, 252.2)">r</text><text xml:space="preserve" font-family="TimesNewRomanPSMT,Times New Roman" font-size="26.2" fill="#011892" transform="matrix(1.00, 0.00, -0.00, -1.00, 426.6, 252.2)">n</text><text xml:space="preserve" font-family="TimesNewRomanPSMT,Times New Roman" font-size="26.2" fill="#011892" transform="matrix(1.00, 0.00, -0.00, -1.00, 439.8, 252.2)">i</text><text xml:space="preserve" font-family="TimesNewRomanPSMT,Times New Roman" font-size="26.2" fill="#011892" transform="matrix(1.00, 0.00, -0.00, -1.00, 447.0, 252.2)"> </text></g></svg>