<?xml version="1.0" encoding="UTF-8" standalone="no"?><svg xmlns="http://www.w3.org/2000/svg" xmlns:xlink="http://www.w3.org/1999/xlink" clip-rule="evenodd" stroke-miterlimit="10" viewBox="0 0 403 28"><desc>SVG generated by Keynote</desc><defs></defs><g transform="matrix(1.00, 0.00, -0.00, -1.00, 0.0, 28.0)"><text xml:space="preserve" font-family="ArialMT,Arial" font-size="23.5" fill="#000000" transform="matrix(1.00, 0.00, -0.00, -1.00, 0.1, 6.2)">•</text><text xml:space="preserve" font-family="TimesNewRomanPSMT,Times New Roman" font-size="23.5" fill="#000000" transform="matrix(1.00, 0.00, -0.00, -1.00, 25.5, 6.4)">T</text><text xml:space="preserve" font-family="TimesNewRomanPSMT,Times New Roman" font-size="23.5" fill="#000000" transform="matrix(1.00, 0.00, -0.00, -1.00, 39.0, 6.4)">i</text><text xml:space="preserve" font-family="TimesNewRomanPSMT,Times New Roman" font-size="23.5" fill="#000000" transform="matrix(1.00, 0.00, -0.00, -1.00, 45.5, 6.4)">m</text><text xml:space="preserve" font-family="TimesNewRomanPSMT,Times New Roman" font-size="23.5" fill="#000000" transform="matrix(1.00, 0.00, -0.00, -1.00, 63.8, 6.4)">e</text><text xml:space="preserve" font-family="TimesNewRomanPSMT,Times New Roman" font-size="23.5" fill="#000000" transform="matrix(1.00, 0.00, -0.00, -1.00, 74.2, 6.4)">s</text><text xml:space="preserve" font-family="TimesNewRomanPSMT,Times New Roman" font-size="23.5" fill="#000000" transform="matrix(1.00, 0.00, -0.00, -1.00, 83.4, 6.4)">t</text><text xml:space="preserve" font-family="TimesNewRomanPSMT,Times New Roman" font-size="23.5" fill="#000000" transform="matrix(1.00, 0.00, -0.00, -1.00, 89.9, 6.4)">a</text><text xml:space="preserve" font-family="TimesNewRomanPSMT,Times New Roman" font-size="23.5" fill="#000000" transform="matrix(1.00, 0.00, -0.00, -1.00, 100.3, 6.4)">m</text><text xml:space="preserve" font-family="TimesNewRomanPSMT,Times New Roman" font-size="23.5" fill="#000000" transform="matrix(1.00, 0.00, -0.00, -1.00, 118.6, 6.4)">p</text><text xml:space="preserve" font-family="TimesNewRomanPSMT,Times New Roman" font-size="23.5" fill="#000000" transform="matrix(1.00, 0.00, -0.00, -1.00, 130.4, 6.4)">s</text><text xml:space="preserve" font-family="TimesNewRomanPSMT,Times New Roman" font-size="23.5" fill="#000000" transform="matrix(1.00, 0.00, -0.00, -1.00, 139.5, 6.4)">:</text><text xml:space="preserve" font-family="TimesNewRomanPSMT,Times New Roman" font-size="23.5" fill="#000000" transform="matrix(1.00, 0.00, -0.00, -1.00, 146.0, 6.4)"> </text><text xml:space="preserve" font-family="TimesNewRomanPSMT,Times New Roman" font-size="23.5" fill="#000000" transform="matrix(1.00, 0.00, -0.00, -1.00, 151.9, 6.4)">c</text><text xml:space="preserve" font-family="TimesNewRomanPSMT,Times New Roman" font-size="23.5" fill="#000000" transform="matrix(1.00, 0.00, -0.00, -1.00, 162.3, 6.4)">r</text><text xml:space="preserve" font-family="TimesNewRomanPSMT,Times New Roman" font-size="23.5" fill="#000000" transform="matrix(1.00, 0.00, -0.00, -1.00, 170.2, 6.4)">e</text><text xml:space="preserve" font-family="TimesNewRomanPSMT,Times New Roman" font-size="23.5" fill="#000000" transform="matrix(1.00, 0.00, -0.00, -1.00, 180.6, 6.4)">a</text><text xml:space="preserve" font-family="TimesNewRomanPSMT,Times New Roman" font-size="23.5" fill="#000000" transform="matrix(1.00, 0.00, -0.00, -1.00, 191.0, 6.4)">t</text><text xml:space="preserve" font-family="TimesNewRomanPSMT,Times New Roman" font-size="23.5" fill="#000000" transform="matrix(1.00, 0.00, -0.00, -1.00, 197.5, 6.4)">e</text><text xml:space="preserve" font-family="TimesNewRomanPSMT,Times New Roman" font-size="23.5" fill="#000000" transform="matrix(1.00, 0.00, -0.00, -1.00, 208.0, 6.4)">d</text><text xml:space="preserve" font-family="TimesNewRomanPSMT,Times New Roman" font-size="23.5" fill="#000000" transform="matrix(1.00, 0.00, -0.00, -1.00, 219.7, 6.4)">,</text><text xml:space="preserve" font-family="TimesNewRomanPSMT,Times New Roman" font-size="23.5" fill="#000000" transform="matrix(1.00, 0.00, -0.00, -1.00, 225.6, 6.4)"> </text><text xml:space="preserve" font-family="TimesNewRomanPSMT,Times New Roman" font-size="23.5" fill="#000000" transform="matrix(1.00, 0.00, -0.00, -1.00, 231.5, 6.4)">r</text><text xml:space="preserve" font-family="TimesNewRomanPSMT,Times New Roman" font-size="23.5" fill="#000000" transform="matrix(1.00, 0.00, -0.00, -1.00, 239.3, 6.4)">e</text><text xml:space="preserve" font-family="TimesNewRomanPSMT,Times New Roman" font-size="23.5" fill="#000000" transform="matrix(1.00, 0.00, -0.00, -1.00, 249.7, 6.4)">s</text><text xml:space="preserve" font-family="TimesNewRomanPSMT,Times New Roman" font-size="23.5" fill="#000000" transform="matrix(1.00, 0.00, -0.00, -1.00, 258.9, 6.4)">o</text><text xml:space="preserve" font-family="TimesNewRomanPSMT,Times New Roman" font-size="23.5" fill="#000000" transform="matrix(1.00, 0.00, -0.00, -1.00, 270.6, 6.4)">l</text><text xml:space="preserve" font-family="TimesNewRomanPSMT,Times New Roman" font-size="23.5" fill="#000000" transform="matrix(1.00, 0.00, -0.00, -1.00, 277.1, 6.4)">v</text><text xml:space="preserve" font-family="TimesNewRomanPSMT,Times New Roman" font-size="23.5" fill="#000000" transform="matrix(1.00, 0.00, -0.00, -1.00, 288.9, 6.4)">e</text><text xml:space="preserve" font-family="TimesNewRomanPSMT,Times New Roman" font-size="23.5" fill="#000000" transform="matrix(1.00, 0.00, -0.00, -1.00, 299.3, 6.4)">d</text><text xml:space="preserve" font-family="TimesNewRomanPSMT,Times New Roman" font-size="23.5" fill="#000000" transform="matrix(1.00, 0.00, -0.00, -1.00, 311.1, 6.4)">,</text><text xml:space="preserve" font-family="TimesNewRomanPSMT,Times New Roman" font-size="23.5" fill="#000000" transform="matrix(1.00, 0.00, -0.00, -1.00, 316.9, 6.4)"> </text><text xml:space="preserve" font-family="TimesNewRomanPSMT,Times New Roman" font-size="23.5" fill="#000000" transform="matrix(1.00, 0.00, -0.00, -1.00, 322.8, 6.4)">d</text><text xml:space="preserve" font-family="TimesNewRomanPSMT,Times New Roman" font-size="23.5" fill="#000000" transform="matrix(1.00, 0.00, -0.00, -1.00, 334.6, 6.4)">u</text><text xml:space="preserve" font-family="TimesNewRomanPSMT,Times New Roman" font-size="23.5" fill="#000000" transform="matrix(1.00, 0.00, -0.00, -1.00, 346.3, 6.4)">e</text><text xml:space="preserve" font-family="TimesNewRomanPSMT,Times New Roman" font-size="23.5" fill="#000000" transform="matrix(1.00, 0.00, -0.00, -1.00, 356.7, 6.4)"> </text><text xml:space="preserve" font-family="TimesNewRomanPSMT,Times New Roman" font-size="23.5" fill="#000000" transform="matrix(1.00, 0.00, -0.00, -1.00, 362.6, 6.4)">d</text><text xml:space="preserve" font-family="TimesNewRomanPSMT,Times New Roman" font-size="23.5" fill="#000000" transform="matrix(1.00, 0.00, -0.00, -1.00, 374.4, 6.4)">a</text><text xml:space="preserve" font-family="TimesNewRomanPSMT,Times New Roman" font-size="23.5" fill="#000000" transform="matrix(1.00, 0.00, -0.00, -1.00, 384.8, 6.4)">t</text><text xml:space="preserve" font-family="TimesNewRomanPSMT,Times New Roman" font-size="23.5" fill="#000000" transform="matrix(1.00, 0.00, -0.00, -1.00, 391.3, 6.4)">e</text></g></svg>