<?xml version="1.0" encoding="UTF-8" standalone="no"?><svg xmlns="http://www.w3.org/2000/svg" xmlns:xlink="http://www.w3.org/1999/xlink" clip-rule="evenodd" stroke-miterlimit="10" viewBox="0 0 676 28"><desc>SVG generated by Keynote</desc><defs></defs><g transform="matrix(1.00, 0.00, -0.00, -1.00, 0.0, 28.0)"><text xml:space="preserve" font-family="ArialMT,Arial" font-size="23.5" fill="#000000" transform="matrix(1.00, 0.00, -0.00, -1.00, 0.1, 6.4)">•</text><text xml:space="preserve" font-family="TimesNewRomanPSMT,Times New Roman" font-size="23.5" fill="#000000" transform="matrix(1.00, 0.00, -0.00, -1.00, 25.5, 6.6)">N</text><text xml:space="preserve" font-family="TimesNewRomanPSMT,Times New Roman" font-size="23.5" fill="#000000" transform="matrix(1.00, 0.00, -0.00, -1.00, 42.5, 6.6)">o</text><text xml:space="preserve" font-family="TimesNewRomanPSMT,Times New Roman" font-size="23.5" fill="#000000" transform="matrix(1.00, 0.00, -0.00, -1.00, 54.2, 6.6)">n</text><text xml:space="preserve" font-family="TimesNewRomanPSMT,Times New Roman" font-size="23.5" fill="#000000" transform="matrix(1.00, 0.00, -0.00, -1.00, 66.0, 6.6)">-</text><text xml:space="preserve" font-family="TimesNewRomanPSMT,Times New Roman" font-size="23.5" fill="#000000" transform="matrix(1.00, 0.00, -0.00, -1.00, 73.8, 6.6)">e</text><text xml:space="preserve" font-family="TimesNewRomanPSMT,Times New Roman" font-size="23.5" fill="#000000" transform="matrix(1.00, 0.00, -0.00, -1.00, 84.2, 6.6)">m</text><text xml:space="preserve" font-family="TimesNewRomanPSMT,Times New Roman" font-size="23.5" fill="#000000" transform="matrix(1.00, 0.00, -0.00, -1.00, 102.5, 6.6)">e</text><text xml:space="preserve" font-family="TimesNewRomanPSMT,Times New Roman" font-size="23.5" fill="#000000" transform="matrix(1.00, 0.00, -0.00, -1.00, 112.9, 6.6)">r</text><text xml:space="preserve" font-family="TimesNewRomanPSMT,Times New Roman" font-size="23.5" fill="#000000" transform="matrix(1.00, 0.00, -0.00, -1.00, 120.3, 6.6)">g</text><text xml:space="preserve" font-family="TimesNewRomanPSMT,Times New Roman" font-size="23.5" fill="#000000" transform="matrix(1.00, 0.00, -0.00, -1.00, 132.1, 6.6)">e</text><text xml:space="preserve" font-family="TimesNewRomanPSMT,Times New Roman" font-size="23.5" fill="#000000" transform="matrix(1.00, 0.00, -0.00, -1.00, 142.5, 6.6)">n</text><text xml:space="preserve" font-family="TimesNewRomanPSMT,Times New Roman" font-size="23.5" fill="#000000" transform="matrix(1.00, 0.00, -0.00, -1.00, 154.2, 6.6)">c</text><text xml:space="preserve" font-family="TimesNewRomanPSMT,Times New Roman" font-size="23.5" fill="#000000" transform="matrix(1.00, 0.00, -0.00, -1.00, 164.7, 6.6)">y</text><text xml:space="preserve" font-family="TimesNewRomanPSMT,Times New Roman" font-size="23.5" fill="#000000" transform="matrix(1.00, 0.00, -0.00, -1.00, 176.4, 6.6)"> </text><text xml:space="preserve" font-family="TimesNewRomanPSMT,Times New Roman" font-size="23.5" fill="#000000" transform="matrix(1.00, 0.00, -0.00, -1.00, 182.3, 6.6)">c</text><text xml:space="preserve" font-family="TimesNewRomanPSMT,Times New Roman" font-size="23.5" fill="#000000" transform="matrix(1.00, 0.00, -0.00, -1.00, 192.7, 6.6)">o</text><text xml:space="preserve" font-family="TimesNewRomanPSMT,Times New Roman" font-size="23.5" fill="#000000" transform="matrix(1.00, 0.00, -0.00, -1.00, 204.5, 6.6)">m</text><text xml:space="preserve" font-family="TimesNewRomanPSMT,Times New Roman" font-size="23.5" fill="#000000" transform="matrix(1.00, 0.00, -0.00, -1.00, 222.7, 6.6)">p</text><text xml:space="preserve" font-family="TimesNewRomanPSMT,Times New Roman" font-size="23.5" fill="#000000" transform="matrix(1.00, 0.00, -0.00, -1.00, 234.5, 6.6)">l</text><text xml:space="preserve" font-family="TimesNewRomanPSMT,Times New Roman" font-size="23.5" fill="#000000" transform="matrix(1.00, 0.00, -0.00, -1.00, 241.0, 6.6)">a</text><text xml:space="preserve" font-family="TimesNewRomanPSMT,Times New Roman" font-size="23.5" fill="#000000" transform="matrix(1.00, 0.00, -0.00, -1.00, 251.4, 6.6)">i</text><text xml:space="preserve" font-family="TimesNewRomanPSMT,Times New Roman" font-size="23.5" fill="#000000" transform="matrix(1.00, 0.00, -0.00, -1.00, 258.0, 6.6)">n</text><text xml:space="preserve" font-family="TimesNewRomanPSMT,Times New Roman" font-size="23.5" fill="#000000" transform="matrix(1.00, 0.00, -0.00, -1.00, 269.7, 6.6)">t</text><text xml:space="preserve" font-family="TimesNewRomanPSMT,Times New Roman" font-size="23.5" fill="#000000" transform="matrix(1.00, 0.00, -0.00, -1.00, 276.2, 6.6)">s</text><text xml:space="preserve" font-family="TimesNewRomanPSMT,Times New Roman" font-size="23.5" fill="#000000" transform="matrix(1.00, 0.00, -0.00, -1.00, 285.4, 6.6)">:</text><text xml:space="preserve" font-family="TimesNewRomanPSMT,Times New Roman" font-size="23.5" fill="#000000" transform="matrix(1.00, 0.00, -0.00, -1.00, 291.9, 6.6)"> </text><text xml:space="preserve" font-family="TimesNewRomanPSMT,Times New Roman" font-size="23.5" fill="#000000" transform="matrix(1.00, 0.00, -0.00, -1.00, 297.8, 6.6)">N</text><text xml:space="preserve" font-family="TimesNewRomanPSMT,Times New Roman" font-size="23.5" fill="#000000" transform="matrix(1.00, 0.00, -0.00, -1.00, 314.8, 6.6)">o</text><text xml:space="preserve" font-family="TimesNewRomanPSMT,Times New Roman" font-size="23.5" fill="#000000" transform="matrix(1.00, 0.00, -0.00, -1.00, 326.5, 6.6)">i</text><text xml:space="preserve" font-family="TimesNewRomanPSMT,Times New Roman" font-size="23.5" fill="#000000" transform="matrix(1.00, 0.00, -0.00, -1.00, 333.0, 6.6)">s</text><text xml:space="preserve" font-family="TimesNewRomanPSMT,Times New Roman" font-size="23.5" fill="#000000" transform="matrix(1.00, 0.00, -0.00, -1.00, 342.2, 6.6)">e</text><text xml:space="preserve" font-family="TimesNewRomanPSMT,Times New Roman" font-size="23.5" fill="#000000" transform="matrix(1.00, 0.00, -0.00, -1.00, 352.6, 6.6)">,</text><text xml:space="preserve" font-family="TimesNewRomanPSMT,Times New Roman" font-size="23.5" fill="#000000" transform="matrix(1.00, 0.00, -0.00, -1.00, 358.5, 6.6)"> </text><text xml:space="preserve" font-family="TimesNewRomanPSMT,Times New Roman" font-size="23.5" fill="#000000" transform="matrix(1.00, 0.00, -0.00, -1.00, 364.4, 6.6)">S</text><text xml:space="preserve" font-family="TimesNewRomanPSMT,Times New Roman" font-size="23.5" fill="#000000" transform="matrix(1.00, 0.00, -0.00, -1.00, 377.4, 6.6)">e</text><text xml:space="preserve" font-family="TimesNewRomanPSMT,Times New Roman" font-size="23.5" fill="#000000" transform="matrix(1.00, 0.00, -0.00, -1.00, 387.9, 6.6)">w</text><text xml:space="preserve" font-family="TimesNewRomanPSMT,Times New Roman" font-size="23.5" fill="#000000" transform="matrix(1.00, 0.00, -0.00, -1.00, 404.8, 6.6)">e</text><text xml:space="preserve" font-family="TimesNewRomanPSMT,Times New Roman" font-size="23.5" fill="#000000" transform="matrix(1.00, 0.00, -0.00, -1.00, 415.3, 6.6)">r</text><text xml:space="preserve" font-family="TimesNewRomanPSMT,Times New Roman" font-size="23.5" fill="#000000" transform="matrix(1.00, 0.00, -0.00, -1.00, 422.1, 6.6)">,</text><text xml:space="preserve" font-family="TimesNewRomanPSMT,Times New Roman" font-size="23.5" fill="#000000" transform="matrix(1.00, 0.00, -0.00, -1.00, 428.0, 6.6)"> </text><text xml:space="preserve" font-family="TimesNewRomanPSMT,Times New Roman" font-size="23.5" fill="#000000" transform="matrix(1.00, 0.00, -0.00, -1.00, 433.9, 6.6)">R</text><text xml:space="preserve" font-family="TimesNewRomanPSMT,Times New Roman" font-size="23.5" fill="#000000" transform="matrix(1.00, 0.00, -0.00, -1.00, 449.6, 6.6)">o</text><text xml:space="preserve" font-family="TimesNewRomanPSMT,Times New Roman" font-size="23.5" fill="#000000" transform="matrix(1.00, 0.00, -0.00, -1.00, 461.3, 6.6)">d</text><text xml:space="preserve" font-family="TimesNewRomanPSMT,Times New Roman" font-size="23.5" fill="#000000" transform="matrix(1.00, 0.00, -0.00, -1.00, 473.1, 6.6)">e</text><text xml:space="preserve" font-family="TimesNewRomanPSMT,Times New Roman" font-size="23.5" fill="#000000" transform="matrix(1.00, 0.00, -0.00, -1.00, 483.5, 6.6)">n</text><text xml:space="preserve" font-family="TimesNewRomanPSMT,Times New Roman" font-size="23.5" fill="#000000" transform="matrix(1.00, 0.00, -0.00, -1.00, 495.2, 6.6)">t</text><text xml:space="preserve" font-family="TimesNewRomanPSMT,Times New Roman" font-size="23.5" fill="#000000" transform="matrix(1.00, 0.00, -0.00, -1.00, 501.8, 6.6)">,</text><text xml:space="preserve" font-family="TimesNewRomanPSMT,Times New Roman" font-size="23.5" fill="#000000" transform="matrix(1.00, 0.00, -0.00, -1.00, 507.6, 6.6)"> </text><text xml:space="preserve" font-family="TimesNewRomanPSMT,Times New Roman" font-size="23.5" fill="#000000" transform="matrix(1.00, 0.00, -0.00, -1.00, 513.5, 6.6)">M</text><text xml:space="preserve" font-family="TimesNewRomanPSMT,Times New Roman" font-size="23.5" fill="#000000" transform="matrix(1.00, 0.00, -0.00, -1.00, 534.4, 6.6)">o</text><text xml:space="preserve" font-family="TimesNewRomanPSMT,Times New Roman" font-size="23.5" fill="#000000" transform="matrix(1.00, 0.00, -0.00, -1.00, 546.2, 6.6)">l</text><text xml:space="preserve" font-family="TimesNewRomanPSMT,Times New Roman" font-size="23.5" fill="#000000" transform="matrix(1.00, 0.00, -0.00, -1.00, 552.7, 6.6)">d</text><text xml:space="preserve" font-family="TimesNewRomanPSMT,Times New Roman" font-size="23.5" fill="#000000" transform="matrix(1.00, 0.00, -0.00, -1.00, 564.4, 6.6)">,</text><text xml:space="preserve" font-family="TimesNewRomanPSMT,Times New Roman" font-size="23.5" fill="#000000" transform="matrix(1.00, 0.00, -0.00, -1.00, 570.3, 6.6)"> </text><text xml:space="preserve" font-family="TimesNewRomanPSMT,Times New Roman" font-size="23.5" fill="#000000" transform="matrix(1.00, 0.00, -0.00, -1.00, 576.2, 6.6)">H</text><text xml:space="preserve" font-family="TimesNewRomanPSMT,Times New Roman" font-size="23.5" fill="#000000" transform="matrix(1.00, 0.00, -0.00, -1.00, 593.2, 6.6)">e</text><text xml:space="preserve" font-family="TimesNewRomanPSMT,Times New Roman" font-size="23.5" fill="#000000" transform="matrix(1.00, 0.00, -0.00, -1.00, 603.6, 6.6)">a</text><text xml:space="preserve" font-family="TimesNewRomanPSMT,Times New Roman" font-size="23.5" fill="#000000" transform="matrix(1.00, 0.00, -0.00, -1.00, 614.0, 6.6)">t</text><text xml:space="preserve" font-family="TimesNewRomanPSMT,Times New Roman" font-size="23.5" fill="#000000" transform="matrix(1.00, 0.00, -0.00, -1.00, 620.5, 6.6)">i</text><text xml:space="preserve" font-family="TimesNewRomanPSMT,Times New Roman" font-size="23.5" fill="#000000" transform="matrix(1.00, 0.00, -0.00, -1.00, 627.1, 6.6)">n</text><text xml:space="preserve" font-family="TimesNewRomanPSMT,Times New Roman" font-size="23.5" fill="#000000" transform="matrix(1.00, 0.00, -0.00, -1.00, 638.8, 6.6)">g</text><text xml:space="preserve" font-family="TimesNewRomanPSMT,Times New Roman" font-size="23.5" fill="#000000" transform="matrix(1.00, 0.00, -0.00, -1.00, 650.6, 6.6)">…</text><text xml:space="preserve" font-family="TimesNewRomanPSMT,Times New Roman" font-size="23.5" fill="#000000" transform="matrix(1.00, 0.00, -0.00, -1.00, 674.1, 6.6)"> </text></g></svg>