<?xml version="1.0" encoding="UTF-8" standalone="no"?><svg xmlns="http://www.w3.org/2000/svg" xmlns:xlink="http://www.w3.org/1999/xlink" clip-rule="evenodd" stroke-miterlimit="10" viewBox="0 0 720 540"><desc>SVG generated by Keynote</desc><defs></defs><g transform="matrix(1.00, 0.00, -0.00, -1.00, 0.0, 540.0)"><path d="M 0.0 540.0 L 720.0 540.0 L 720.0 0.0 L 0.0 0.0 Z M 0.0 540.0 " fill="#EAEAEA"></path><text xml:space="preserve" font-family="TimesNewRomanPSMT,Times New Roman" font-size="40.0" fill="#000000" transform="matrix(1.00, 0.00, -0.00, -1.00, 200.9, 474.3)">W</text><text xml:space="preserve" font-family="TimesNewRomanPSMT,Times New Roman" font-size="40.0" fill="#000000" transform="matrix(1.00, 0.00, -0.00, -1.00, 238.7, 474.3)">h</text><text xml:space="preserve" font-family="TimesNewRomanPSMT,Times New Roman" font-size="40.0" fill="#000000" transform="matrix(1.00, 0.00, -0.00, -1.00, 258.7, 474.3)">o</text><text xml:space="preserve" font-family="TimesNewRomanPSMT,Times New Roman" font-size="40.0" fill="#000000" transform="matrix(1.00, 0.00, -0.00, -1.00, 278.7, 474.3)"> </text><text xml:space="preserve" font-family="TimesNewRomanPSMT,Times New Roman" font-size="40.0" fill="#000000" transform="matrix(1.00, 0.00, -0.00, -1.00, 288.7, 474.3)">u</text><text xml:space="preserve" font-family="TimesNewRomanPSMT,Times New Roman" font-size="40.0" fill="#000000" transform="matrix(1.00, 0.00, -0.00, -1.00, 308.7, 474.3)">s</text><text xml:space="preserve" font-family="TimesNewRomanPSMT,Times New Roman" font-size="40.0" fill="#000000" transform="matrix(1.00, 0.00, -0.00, -1.00, 324.3, 474.3)">e</text><text xml:space="preserve" font-family="TimesNewRomanPSMT,Times New Roman" font-size="40.0" fill="#000000" transform="matrix(1.00, 0.00, -0.00, -1.00, 342.0, 474.3)">s</text><text xml:space="preserve" font-family="TimesNewRomanPSMT,Times New Roman" font-size="40.0" fill="#000000" transform="matrix(1.00, 0.00, -0.00, -1.00, 357.6, 474.3)"> </text><text xml:space="preserve" font-family="TimesNewRomanPSMT,Times New Roman" font-size="40.0" fill="#000000" transform="matrix(1.00, 0.00, -0.00, -1.00, 367.6, 474.3)">t</text><text xml:space="preserve" font-family="TimesNewRomanPSMT,Times New Roman" font-size="40.0" fill="#000000" transform="matrix(1.00, 0.00, -0.00, -1.00, 378.7, 474.3)">h</text><text xml:space="preserve" font-family="TimesNewRomanPSMT,Times New Roman" font-size="40.0" fill="#000000" transform="matrix(1.00, 0.00, -0.00, -1.00, 398.7, 474.3)">i</text><text xml:space="preserve" font-family="TimesNewRomanPSMT,Times New Roman" font-size="40.0" fill="#000000" transform="matrix(1.00, 0.00, -0.00, -1.00, 409.8, 474.3)">s</text><text xml:space="preserve" font-family="TimesNewRomanPSMT,Times New Roman" font-size="40.0" fill="#000000" transform="matrix(1.00, 0.00, -0.00, -1.00, 425.4, 474.3)"> </text><text xml:space="preserve" font-family="TimesNewRomanPSMT,Times New Roman" font-size="40.0" fill="#000000" transform="matrix(1.00, 0.00, -0.00, -1.00, 435.4, 474.3)">d</text><text xml:space="preserve" font-family="TimesNewRomanPSMT,Times New Roman" font-size="40.0" fill="#000000" transform="matrix(1.00, 0.00, -0.00, -1.00, 455.4, 474.3)">a</text><text xml:space="preserve" font-family="TimesNewRomanPSMT,Times New Roman" font-size="40.0" fill="#000000" transform="matrix(1.00, 0.00, -0.00, -1.00, 473.1, 474.3)">t</text><text xml:space="preserve" font-family="TimesNewRomanPSMT,Times New Roman" font-size="40.0" fill="#000000" transform="matrix(1.00, 0.00, -0.00, -1.00, 484.2, 474.3)">a</text><text xml:space="preserve" font-family="TimesNewRomanPSMT,Times New Roman" font-size="40.0" fill="#000000" transform="matrix(1.00, 0.00, -0.00, -1.00, 502.0, 474.3)">?</text><text xml:space="preserve" font-family="TrebuchetMS,Trebuchet MS" font-size="12.0" fill="#878787" transform="matrix(1.00, 0.00, -0.00, -1.00, 674.1, 20.8)">3</text></g></svg>