<?xml version="1.0" encoding="UTF-8" standalone="no"?><svg xmlns="http://www.w3.org/2000/svg" xmlns:xlink="http://www.w3.org/1999/xlink" clip-rule="evenodd" stroke-miterlimit="10" viewBox="0 0 563 26"><desc>SVG generated by Keynote</desc><defs></defs><g transform="matrix(1.00, 0.00, -0.00, -1.00, 0.0, 26.0)"><text xml:space="preserve" font-family="ArialMT,Arial" font-size="21.8" fill="#000000" transform="matrix(1.00, 0.00, -0.00, -1.00, 0.6, 5.6)">•</text><text xml:space="preserve" font-family="TimesNewRomanPSMT,Times New Roman" font-size="21.8" fill="#000000" transform="matrix(1.00, 0.00, -0.00, -1.00, 21.7, 6.3)">P</text><text xml:space="preserve" font-family="TimesNewRomanPSMT,Times New Roman" font-size="21.8" fill="#000000" transform="matrix(1.00, 0.00, -0.00, -1.00, 33.8, 6.3)">r</text><text xml:space="preserve" font-family="TimesNewRomanPSMT,Times New Roman" font-size="21.8" fill="#000000" transform="matrix(1.00, 0.00, -0.00, -1.00, 41.1, 6.3)">e</text><text xml:space="preserve" font-family="TimesNewRomanPSMT,Times New Roman" font-size="21.8" fill="#000000" transform="matrix(1.00, 0.00, -0.00, -1.00, 50.8, 6.3)">d</text><text xml:space="preserve" font-family="TimesNewRomanPSMT,Times New Roman" font-size="21.8" fill="#000000" transform="matrix(1.00, 0.00, -0.00, -1.00, 61.7, 6.3)">i</text><text xml:space="preserve" font-family="TimesNewRomanPSMT,Times New Roman" font-size="21.8" fill="#000000" transform="matrix(1.00, 0.00, -0.00, -1.00, 67.8, 6.3)">c</text><text xml:space="preserve" font-family="TimesNewRomanPSMT,Times New Roman" font-size="21.8" fill="#000000" transform="matrix(1.00, 0.00, -0.00, -1.00, 77.4, 6.3)">t</text><text xml:space="preserve" font-family="TimesNewRomanPSMT,Times New Roman" font-size="21.8" fill="#000000" transform="matrix(1.00, 0.00, -0.00, -1.00, 83.5, 6.3)"> </text><text xml:space="preserve" font-family="TimesNewRomanPSMT,Times New Roman" font-size="21.8" fill="#000000" transform="matrix(1.00, 0.00, -0.00, -1.00, 89.0, 6.3)">f</text><text xml:space="preserve" font-family="TimesNewRomanPSMT,Times New Roman" font-size="21.8" fill="#000000" transform="matrix(1.00, 0.00, -0.00, -1.00, 96.2, 6.3)">u</text><text xml:space="preserve" font-family="TimesNewRomanPSMT,Times New Roman" font-size="21.8" fill="#000000" transform="matrix(1.00, 0.00, -0.00, -1.00, 107.2, 6.3)">t</text><text xml:space="preserve" font-family="TimesNewRomanPSMT,Times New Roman" font-size="21.8" fill="#000000" transform="matrix(1.00, 0.00, -0.00, -1.00, 113.2, 6.3)">u</text><text xml:space="preserve" font-family="TimesNewRomanPSMT,Times New Roman" font-size="21.8" fill="#000000" transform="matrix(1.00, 0.00, -0.00, -1.00, 124.1, 6.3)">r</text><text xml:space="preserve" font-family="TimesNewRomanPSMT,Times New Roman" font-size="21.8" fill="#000000" transform="matrix(1.00, 0.00, -0.00, -1.00, 131.4, 6.3)">e</text><text xml:space="preserve" font-family="TimesNewRomanPSMT,Times New Roman" font-size="21.8" fill="#000000" transform="matrix(1.00, 0.00, -0.00, -1.00, 141.1, 6.3)"> </text><text xml:space="preserve" font-family="TimesNewRomanPSMT,Times New Roman" font-size="21.8" fill="#000000" transform="matrix(1.00, 0.00, -0.00, -1.00, 146.6, 6.3)">c</text><text xml:space="preserve" font-family="TimesNewRomanPSMT,Times New Roman" font-size="21.8" fill="#000000" transform="matrix(1.00, 0.00, -0.00, -1.00, 156.3, 6.3)">o</text><text xml:space="preserve" font-family="TimesNewRomanPSMT,Times New Roman" font-size="21.8" fill="#000000" transform="matrix(1.00, 0.00, -0.00, -1.00, 167.2, 6.3)">m</text><text xml:space="preserve" font-family="TimesNewRomanPSMT,Times New Roman" font-size="21.8" fill="#000000" transform="matrix(1.00, 0.00, -0.00, -1.00, 184.2, 6.3)">p</text><text xml:space="preserve" font-family="TimesNewRomanPSMT,Times New Roman" font-size="21.8" fill="#000000" transform="matrix(1.00, 0.00, -0.00, -1.00, 195.1, 6.3)">l</text><text xml:space="preserve" font-family="TimesNewRomanPSMT,Times New Roman" font-size="21.8" fill="#000000" transform="matrix(1.00, 0.00, -0.00, -1.00, 201.1, 6.3)">a</text><text xml:space="preserve" font-family="TimesNewRomanPSMT,Times New Roman" font-size="21.8" fill="#000000" transform="matrix(1.00, 0.00, -0.00, -1.00, 210.8, 6.3)">i</text><text xml:space="preserve" font-family="TimesNewRomanPSMT,Times New Roman" font-size="21.8" fill="#000000" transform="matrix(1.00, 0.00, -0.00, -1.00, 216.9, 6.3)">n</text><text xml:space="preserve" font-family="TimesNewRomanPSMT,Times New Roman" font-size="21.8" fill="#000000" transform="matrix(1.00, 0.00, -0.00, -1.00, 227.8, 6.3)">t</text><text xml:space="preserve" font-family="TimesNewRomanPSMT,Times New Roman" font-size="21.8" fill="#000000" transform="matrix(1.00, 0.00, -0.00, -1.00, 233.9, 6.3)"> </text><text xml:space="preserve" font-family="TimesNewRomanPSMT,Times New Roman" font-size="21.8" fill="#000000" transform="matrix(1.00, 0.00, -0.00, -1.00, 239.3, 6.3)">v</text><text xml:space="preserve" font-family="TimesNewRomanPSMT,Times New Roman" font-size="21.8" fill="#000000" transform="matrix(1.00, 0.00, -0.00, -1.00, 250.3, 6.3)">o</text><text xml:space="preserve" font-family="TimesNewRomanPSMT,Times New Roman" font-size="21.8" fill="#000000" transform="matrix(1.00, 0.00, -0.00, -1.00, 261.2, 6.3)">l</text><text xml:space="preserve" font-family="TimesNewRomanPSMT,Times New Roman" font-size="21.8" fill="#000000" transform="matrix(1.00, 0.00, -0.00, -1.00, 267.2, 6.3)">u</text><text xml:space="preserve" font-family="TimesNewRomanPSMT,Times New Roman" font-size="21.8" fill="#000000" transform="matrix(1.00, 0.00, -0.00, -1.00, 278.2, 6.3)">m</text><text xml:space="preserve" font-family="TimesNewRomanPSMT,Times New Roman" font-size="21.8" fill="#000000" transform="matrix(1.00, 0.00, -0.00, -1.00, 295.1, 6.3)">e</text><text xml:space="preserve" font-family="TimesNewRomanPSMT,Times New Roman" font-size="21.8" fill="#000000" transform="matrix(1.00, 0.00, -0.00, -1.00, 304.8, 6.3)">s</text><text xml:space="preserve" font-family="TimesNewRomanPSMT,Times New Roman" font-size="21.8" fill="#000000" transform="matrix(1.00, 0.00, -0.00, -1.00, 313.3, 6.3)">:</text><text xml:space="preserve" font-family="TimesNewRomanPSMT,Times New Roman" font-size="21.8" fill="#000000" transform="matrix(1.00, 0.00, -0.00, -1.00, 319.4, 6.3)"> </text><text xml:space="preserve" font-family="TimesNewRomanPSMT,Times New Roman" font-size="21.8" fill="#000000" transform="matrix(1.00, 0.00, -0.00, -1.00, 324.9, 6.3)">u</text><text xml:space="preserve" font-family="TimesNewRomanPSMT,Times New Roman" font-size="21.8" fill="#000000" transform="matrix(1.00, 0.00, -0.00, -1.00, 335.8, 6.3)">s</text><text xml:space="preserve" font-family="TimesNewRomanPSMT,Times New Roman" font-size="21.8" fill="#000000" transform="matrix(1.00, 0.00, -0.00, -1.00, 344.3, 6.3)">e</text><text xml:space="preserve" font-family="TimesNewRomanPSMT,Times New Roman" font-size="21.8" fill="#000000" transform="matrix(1.00, 0.00, -0.00, -1.00, 354.0, 6.3)">f</text><text xml:space="preserve" font-family="TimesNewRomanPSMT,Times New Roman" font-size="21.8" fill="#000000" transform="matrix(1.00, 0.00, -0.00, -1.00, 361.2, 6.3)">u</text><text xml:space="preserve" font-family="TimesNewRomanPSMT,Times New Roman" font-size="21.8" fill="#000000" transform="matrix(1.00, 0.00, -0.00, -1.00, 372.2, 6.3)">l</text><text xml:space="preserve" font-family="TimesNewRomanPSMT,Times New Roman" font-size="21.8" fill="#000000" transform="matrix(1.00, 0.00, -0.00, -1.00, 378.2, 6.3)"> </text><text xml:space="preserve" font-family="TimesNewRomanPSMT,Times New Roman" font-size="21.8" fill="#000000" transform="matrix(1.00, 0.00, -0.00, -1.00, 383.7, 6.3)">t</text><text xml:space="preserve" font-family="TimesNewRomanPSMT,Times New Roman" font-size="21.8" fill="#000000" transform="matrix(1.00, 0.00, -0.00, -1.00, 389.8, 6.3)">o</text><text xml:space="preserve" font-family="TimesNewRomanPSMT,Times New Roman" font-size="21.8" fill="#000000" transform="matrix(1.00, 0.00, -0.00, -1.00, 400.7, 6.3)"> </text><text xml:space="preserve" font-family="TimesNewRomanPSMT,Times New Roman" font-size="21.8" fill="#000000" transform="matrix(1.00, 0.00, -0.00, -1.00, 406.1, 6.3)">a</text><text xml:space="preserve" font-family="TimesNewRomanPSMT,Times New Roman" font-size="21.8" fill="#000000" transform="matrix(1.00, 0.00, -0.00, -1.00, 415.8, 6.3)">l</text><text xml:space="preserve" font-family="TimesNewRomanPSMT,Times New Roman" font-size="21.8" fill="#000000" transform="matrix(1.00, 0.00, -0.00, -1.00, 421.9, 6.3)">l</text><text xml:space="preserve" font-family="TimesNewRomanPSMT,Times New Roman" font-size="21.8" fill="#000000" transform="matrix(1.00, 0.00, -0.00, -1.00, 428.0, 6.3)">o</text><text xml:space="preserve" font-family="TimesNewRomanPSMT,Times New Roman" font-size="21.8" fill="#000000" transform="matrix(1.00, 0.00, -0.00, -1.00, 438.9, 6.3)">c</text><text xml:space="preserve" font-family="TimesNewRomanPSMT,Times New Roman" font-size="21.8" fill="#000000" transform="matrix(1.00, 0.00, -0.00, -1.00, 448.6, 6.3)">a</text><text xml:space="preserve" font-family="TimesNewRomanPSMT,Times New Roman" font-size="21.8" fill="#000000" transform="matrix(1.00, 0.00, -0.00, -1.00, 458.3, 6.3)">t</text><text xml:space="preserve" font-family="TimesNewRomanPSMT,Times New Roman" font-size="21.8" fill="#000000" transform="matrix(1.00, 0.00, -0.00, -1.00, 464.3, 6.3)">e</text><text xml:space="preserve" font-family="TimesNewRomanPSMT,Times New Roman" font-size="21.8" fill="#000000" transform="matrix(1.00, 0.00, -0.00, -1.00, 474.0, 6.3)"> </text><text xml:space="preserve" font-family="TimesNewRomanPSMT,Times New Roman" font-size="21.8" fill="#000000" transform="matrix(1.00, 0.00, -0.00, -1.00, 479.5, 6.3)">r</text><text xml:space="preserve" font-family="TimesNewRomanPSMT,Times New Roman" font-size="21.8" fill="#000000" transform="matrix(1.00, 0.00, -0.00, -1.00, 486.7, 6.3)">e</text><text xml:space="preserve" font-family="TimesNewRomanPSMT,Times New Roman" font-size="21.8" fill="#000000" transform="matrix(1.00, 0.00, -0.00, -1.00, 496.4, 6.3)">s</text><text xml:space="preserve" font-family="TimesNewRomanPSMT,Times New Roman" font-size="21.8" fill="#000000" transform="matrix(1.00, 0.00, -0.00, -1.00, 504.9, 6.3)">o</text><text xml:space="preserve" font-family="TimesNewRomanPSMT,Times New Roman" font-size="21.8" fill="#000000" transform="matrix(1.00, 0.00, -0.00, -1.00, 515.8, 6.3)">u</text><text xml:space="preserve" font-family="TimesNewRomanPSMT,Times New Roman" font-size="21.8" fill="#000000" transform="matrix(1.00, 0.00, -0.00, -1.00, 526.8, 6.3)">r</text><text xml:space="preserve" font-family="TimesNewRomanPSMT,Times New Roman" font-size="21.8" fill="#000000" transform="matrix(1.00, 0.00, -0.00, -1.00, 534.0, 6.3)">c</text><text xml:space="preserve" font-family="TimesNewRomanPSMT,Times New Roman" font-size="21.8" fill="#000000" transform="matrix(1.00, 0.00, -0.00, -1.00, 543.7, 6.3)">e</text><text xml:space="preserve" font-family="TimesNewRomanPSMT,Times New Roman" font-size="21.8" fill="#000000" transform="matrix(1.00, 0.00, -0.00, -1.00, 553.4, 6.3)">s</text></g></svg>