<?xml version="1.0" encoding="UTF-8" standalone="no"?><svg xmlns="http://www.w3.org/2000/svg" xmlns:xlink="http://www.w3.org/1999/xlink" clip-rule="evenodd" stroke-miterlimit="10" viewBox="0 0 303 26"><desc>SVG generated by Keynote</desc><defs></defs><g transform="matrix(1.00, 0.00, -0.00, -1.00, 0.0, 26.0)"><text xml:space="preserve" font-family="ArialMT,Arial" font-size="21.8" fill="#000000" transform="matrix(1.00, 0.00, -0.00, -1.00, 0.6, 4.8)">•</text><text xml:space="preserve" font-family="TimesNewRomanPSMT,Times New Roman" font-size="21.8" fill="#000000" transform="matrix(1.00, 0.00, -0.00, -1.00, 20.0, 5.5)">L</text><text xml:space="preserve" font-family="TimesNewRomanPSMT,Times New Roman" font-size="21.8" fill="#000000" transform="matrix(1.00, 0.00, -0.00, -1.00, 33.4, 5.5)">i</text><text xml:space="preserve" font-family="TimesNewRomanPSMT,Times New Roman" font-size="21.8" fill="#000000" transform="matrix(1.00, 0.00, -0.00, -1.00, 39.4, 5.5)">n</text><text xml:space="preserve" font-family="TimesNewRomanPSMT,Times New Roman" font-size="21.8" fill="#000000" transform="matrix(1.00, 0.00, -0.00, -1.00, 50.4, 5.5)">e</text><text xml:space="preserve" font-family="TimesNewRomanPSMT,Times New Roman" font-size="21.8" fill="#000000" transform="matrix(1.00, 0.00, -0.00, -1.00, 60.0, 5.5)">a</text><text xml:space="preserve" font-family="TimesNewRomanPSMT,Times New Roman" font-size="21.8" fill="#000000" transform="matrix(1.00, 0.00, -0.00, -1.00, 69.7, 5.5)">r</text><text xml:space="preserve" font-family="TimesNewRomanPSMT,Times New Roman" font-size="21.8" fill="#000000" transform="matrix(1.00, 0.00, -0.00, -1.00, 77.0, 5.5)"> </text><text xml:space="preserve" font-family="TimesNewRomanPSMT,Times New Roman" font-size="21.8" fill="#000000" transform="matrix(1.00, 0.00, -0.00, -1.00, 82.5, 5.5)">f</text><text xml:space="preserve" font-family="TimesNewRomanPSMT,Times New Roman" font-size="21.8" fill="#000000" transform="matrix(1.00, 0.00, -0.00, -1.00, 89.7, 5.5)">e</text><text xml:space="preserve" font-family="TimesNewRomanPSMT,Times New Roman" font-size="21.8" fill="#000000" transform="matrix(1.00, 0.00, -0.00, -1.00, 99.4, 5.5)">a</text><text xml:space="preserve" font-family="TimesNewRomanPSMT,Times New Roman" font-size="21.8" fill="#000000" transform="matrix(1.00, 0.00, -0.00, -1.00, 109.1, 5.5)">t</text><text xml:space="preserve" font-family="TimesNewRomanPSMT,Times New Roman" font-size="21.8" fill="#000000" transform="matrix(1.00, 0.00, -0.00, -1.00, 115.2, 5.5)">u</text><text xml:space="preserve" font-family="TimesNewRomanPSMT,Times New Roman" font-size="21.8" fill="#000000" transform="matrix(1.00, 0.00, -0.00, -1.00, 126.1, 5.5)">r</text><text xml:space="preserve" font-family="TimesNewRomanPSMT,Times New Roman" font-size="21.8" fill="#000000" transform="matrix(1.00, 0.00, -0.00, -1.00, 133.4, 5.5)">e</text><text xml:space="preserve" font-family="TimesNewRomanPSMT,Times New Roman" font-size="21.8" fill="#000000" transform="matrix(1.00, 0.00, -0.00, -1.00, 143.1, 5.5)">s</text><text xml:space="preserve" font-family="TimesNewRomanPSMT,Times New Roman" font-size="21.8" fill="#000000" transform="matrix(1.00, 0.00, -0.00, -1.00, 151.6, 5.5)">:</text><text xml:space="preserve" font-family="TimesNewRomanPSMT,Times New Roman" font-size="21.8" fill="#000000" transform="matrix(1.00, 0.00, -0.00, -1.00, 157.6, 5.5)"> </text><text xml:space="preserve" font-family="TimesNewRomanPSMT,Times New Roman" font-size="21.8" fill="#000000" transform="matrix(1.00, 0.00, -0.00, -1.00, 163.1, 5.5)">f</text><text xml:space="preserve" font-family="TimesNewRomanPSMT,Times New Roman" font-size="21.8" fill="#000000" transform="matrix(1.00, 0.00, -0.00, -1.00, 170.4, 5.5)">o</text><text xml:space="preserve" font-family="TimesNewRomanPSMT,Times New Roman" font-size="21.8" fill="#000000" transform="matrix(1.00, 0.00, -0.00, -1.00, 181.3, 5.5)">r</text><text xml:space="preserve" font-family="TimesNewRomanPSMT,Times New Roman" font-size="21.8" fill="#000000" transform="matrix(1.00, 0.00, -0.00, -1.00, 188.6, 5.5)"> </text><text xml:space="preserve" font-family="TimesNewRomanPSMT,Times New Roman" font-size="21.8" fill="#000000" transform="matrix(1.00, 0.00, -0.00, -1.00, 194.0, 5.5)">l</text><text xml:space="preserve" font-family="TimesNewRomanPSMT,Times New Roman" font-size="21.8" fill="#000000" transform="matrix(1.00, 0.00, -0.00, -1.00, 200.1, 5.5)">i</text><text xml:space="preserve" font-family="TimesNewRomanPSMT,Times New Roman" font-size="21.8" fill="#000000" transform="matrix(1.00, 0.00, -0.00, -1.00, 206.1, 5.5)">n</text><text xml:space="preserve" font-family="TimesNewRomanPSMT,Times New Roman" font-size="21.8" fill="#000000" transform="matrix(1.00, 0.00, -0.00, -1.00, 217.1, 5.5)">e</text><text xml:space="preserve" font-family="TimesNewRomanPSMT,Times New Roman" font-size="21.8" fill="#000000" transform="matrix(1.00, 0.00, -0.00, -1.00, 226.8, 5.5)">a</text><text xml:space="preserve" font-family="TimesNewRomanPSMT,Times New Roman" font-size="21.8" fill="#000000" transform="matrix(1.00, 0.00, -0.00, -1.00, 236.4, 5.5)">r</text><text xml:space="preserve" font-family="TimesNewRomanPSMT,Times New Roman" font-size="21.8" fill="#000000" transform="matrix(1.00, 0.00, -0.00, -1.00, 243.7, 5.5)"> </text><text xml:space="preserve" font-family="TimesNewRomanPSMT,Times New Roman" font-size="21.8" fill="#000000" transform="matrix(1.00, 0.00, -0.00, -1.00, 249.2, 5.5)">t</text><text xml:space="preserve" font-family="TimesNewRomanPSMT,Times New Roman" font-size="21.8" fill="#000000" transform="matrix(1.00, 0.00, -0.00, -1.00, 255.2, 5.5)">r</text><text xml:space="preserve" font-family="TimesNewRomanPSMT,Times New Roman" font-size="21.8" fill="#000000" transform="matrix(1.00, 0.00, -0.00, -1.00, 262.5, 5.5)">e</text><text xml:space="preserve" font-family="TimesNewRomanPSMT,Times New Roman" font-size="21.8" fill="#000000" transform="matrix(1.00, 0.00, -0.00, -1.00, 272.2, 5.5)">n</text><text xml:space="preserve" font-family="TimesNewRomanPSMT,Times New Roman" font-size="21.8" fill="#000000" transform="matrix(1.00, 0.00, -0.00, -1.00, 283.1, 5.5)">d</text><text xml:space="preserve" font-family="TimesNewRomanPSMT,Times New Roman" font-size="21.8" fill="#000000" transform="matrix(1.00, 0.00, -0.00, -1.00, 294.0, 5.5)">s</text></g></svg>