<?xml version="1.0" encoding="UTF-8" standalone="no"?><svg xmlns="http://www.w3.org/2000/svg" xmlns:xlink="http://www.w3.org/1999/xlink" clip-rule="evenodd" stroke-miterlimit="10" viewBox="0 0 606 28"><desc>SVG generated by Keynote</desc><defs></defs><g transform="matrix(1.00, 0.00, -0.00, -1.00, 0.0, 28.0)"><text xml:space="preserve" font-family="ArialMT,Arial" font-size="23.5" fill="#000000" transform="matrix(1.00, 0.00, -0.00, -1.00, 0.6, 6.5)">•</text><text xml:space="preserve" font-family="TimesNewRomanPSMT,Times New Roman" font-size="23.5" fill="#000000" transform="matrix(1.00, 0.00, -0.00, -1.00, 23.3, 6.8)">P</text><text xml:space="preserve" font-family="TimesNewRomanPSMT,Times New Roman" font-size="23.5" fill="#000000" transform="matrix(1.00, 0.00, -0.00, -1.00, 36.4, 6.8)">r</text><text xml:space="preserve" font-family="TimesNewRomanPSMT,Times New Roman" font-size="23.5" fill="#000000" transform="matrix(1.00, 0.00, -0.00, -1.00, 44.2, 6.8)">e</text><text xml:space="preserve" font-family="TimesNewRomanPSMT,Times New Roman" font-size="23.5" fill="#000000" transform="matrix(1.00, 0.00, -0.00, -1.00, 54.6, 6.8)">d</text><text xml:space="preserve" font-family="TimesNewRomanPSMT,Times New Roman" font-size="23.5" fill="#000000" transform="matrix(1.00, 0.00, -0.00, -1.00, 66.4, 6.8)">i</text><text xml:space="preserve" font-family="TimesNewRomanPSMT,Times New Roman" font-size="23.5" fill="#000000" transform="matrix(1.00, 0.00, -0.00, -1.00, 72.9, 6.8)">c</text><text xml:space="preserve" font-family="TimesNewRomanPSMT,Times New Roman" font-size="23.5" fill="#000000" transform="matrix(1.00, 0.00, -0.00, -1.00, 83.4, 6.8)">t</text><text xml:space="preserve" font-family="TimesNewRomanPSMT,Times New Roman" font-size="23.5" fill="#000000" transform="matrix(1.00, 0.00, -0.00, -1.00, 89.9, 6.8)"> </text><text xml:space="preserve" font-family="TimesNewRomanPSMT,Times New Roman" font-size="23.5" fill="#000000" transform="matrix(1.00, 0.00, -0.00, -1.00, 95.8, 6.8)">f</text><text xml:space="preserve" font-family="TimesNewRomanPSMT,Times New Roman" font-size="23.5" fill="#000000" transform="matrix(1.00, 0.00, -0.00, -1.00, 103.6, 6.8)">u</text><text xml:space="preserve" font-family="TimesNewRomanPSMT,Times New Roman" font-size="23.5" fill="#000000" transform="matrix(1.00, 0.00, -0.00, -1.00, 115.4, 6.8)">t</text><text xml:space="preserve" font-family="TimesNewRomanPSMT,Times New Roman" font-size="23.5" fill="#000000" transform="matrix(1.00, 0.00, -0.00, -1.00, 121.9, 6.8)">u</text><text xml:space="preserve" font-family="TimesNewRomanPSMT,Times New Roman" font-size="23.5" fill="#000000" transform="matrix(1.00, 0.00, -0.00, -1.00, 133.6, 6.8)">r</text><text xml:space="preserve" font-family="TimesNewRomanPSMT,Times New Roman" font-size="23.5" fill="#000000" transform="matrix(1.00, 0.00, -0.00, -1.00, 141.5, 6.8)">e</text><text xml:space="preserve" font-family="TimesNewRomanPSMT,Times New Roman" font-size="23.5" fill="#000000" transform="matrix(1.00, 0.00, -0.00, -1.00, 151.9, 6.8)"> </text><text xml:space="preserve" font-family="TimesNewRomanPSMT,Times New Roman" font-size="23.5" fill="#000000" transform="matrix(1.00, 0.00, -0.00, -1.00, 157.8, 6.8)">c</text><text xml:space="preserve" font-family="TimesNewRomanPSMT,Times New Roman" font-size="23.5" fill="#000000" transform="matrix(1.00, 0.00, -0.00, -1.00, 168.2, 6.8)">o</text><text xml:space="preserve" font-family="TimesNewRomanPSMT,Times New Roman" font-size="23.5" fill="#000000" transform="matrix(1.00, 0.00, -0.00, -1.00, 180.0, 6.8)">m</text><text xml:space="preserve" font-family="TimesNewRomanPSMT,Times New Roman" font-size="23.5" fill="#000000" transform="matrix(1.00, 0.00, -0.00, -1.00, 198.3, 6.8)">p</text><text xml:space="preserve" font-family="TimesNewRomanPSMT,Times New Roman" font-size="23.5" fill="#000000" transform="matrix(1.00, 0.00, -0.00, -1.00, 210.0, 6.8)">l</text><text xml:space="preserve" font-family="TimesNewRomanPSMT,Times New Roman" font-size="23.5" fill="#000000" transform="matrix(1.00, 0.00, -0.00, -1.00, 216.6, 6.8)">a</text><text xml:space="preserve" font-family="TimesNewRomanPSMT,Times New Roman" font-size="23.5" fill="#000000" transform="matrix(1.00, 0.00, -0.00, -1.00, 227.0, 6.8)">i</text><text xml:space="preserve" font-family="TimesNewRomanPSMT,Times New Roman" font-size="23.5" fill="#000000" transform="matrix(1.00, 0.00, -0.00, -1.00, 233.5, 6.8)">n</text><text xml:space="preserve" font-family="TimesNewRomanPSMT,Times New Roman" font-size="23.5" fill="#000000" transform="matrix(1.00, 0.00, -0.00, -1.00, 245.3, 6.8)">t</text><text xml:space="preserve" font-family="TimesNewRomanPSMT,Times New Roman" font-size="23.5" fill="#000000" transform="matrix(1.00, 0.00, -0.00, -1.00, 251.8, 6.8)"> </text><text xml:space="preserve" font-family="TimesNewRomanPSMT,Times New Roman" font-size="23.5" fill="#000000" transform="matrix(1.00, 0.00, -0.00, -1.00, 257.7, 6.8)">v</text><text xml:space="preserve" font-family="TimesNewRomanPSMT,Times New Roman" font-size="23.5" fill="#000000" transform="matrix(1.00, 0.00, -0.00, -1.00, 269.5, 6.8)">o</text><text xml:space="preserve" font-family="TimesNewRomanPSMT,Times New Roman" font-size="23.5" fill="#000000" transform="matrix(1.00, 0.00, -0.00, -1.00, 281.2, 6.8)">l</text><text xml:space="preserve" font-family="TimesNewRomanPSMT,Times New Roman" font-size="23.5" fill="#000000" transform="matrix(1.00, 0.00, -0.00, -1.00, 287.8, 6.8)">u</text><text xml:space="preserve" font-family="TimesNewRomanPSMT,Times New Roman" font-size="23.5" fill="#000000" transform="matrix(1.00, 0.00, -0.00, -1.00, 299.5, 6.8)">m</text><text xml:space="preserve" font-family="TimesNewRomanPSMT,Times New Roman" font-size="23.5" fill="#000000" transform="matrix(1.00, 0.00, -0.00, -1.00, 317.8, 6.8)">e</text><text xml:space="preserve" font-family="TimesNewRomanPSMT,Times New Roman" font-size="23.5" fill="#000000" transform="matrix(1.00, 0.00, -0.00, -1.00, 328.2, 6.8)">s</text><text xml:space="preserve" font-family="TimesNewRomanPSMT,Times New Roman" font-size="23.5" fill="#000000" transform="matrix(1.00, 0.00, -0.00, -1.00, 337.4, 6.8)">:</text><text xml:space="preserve" font-family="TimesNewRomanPSMT,Times New Roman" font-size="23.5" fill="#000000" transform="matrix(1.00, 0.00, -0.00, -1.00, 343.9, 6.8)"> </text><text xml:space="preserve" font-family="TimesNewRomanPSMT,Times New Roman" font-size="23.5" fill="#000000" transform="matrix(1.00, 0.00, -0.00, -1.00, 349.8, 6.8)">u</text><text xml:space="preserve" font-family="TimesNewRomanPSMT,Times New Roman" font-size="23.5" fill="#000000" transform="matrix(1.00, 0.00, -0.00, -1.00, 361.6, 6.8)">s</text><text xml:space="preserve" font-family="TimesNewRomanPSMT,Times New Roman" font-size="23.5" fill="#000000" transform="matrix(1.00, 0.00, -0.00, -1.00, 370.7, 6.8)">e</text><text xml:space="preserve" font-family="TimesNewRomanPSMT,Times New Roman" font-size="23.5" fill="#000000" transform="matrix(1.00, 0.00, -0.00, -1.00, 381.2, 6.8)">f</text><text xml:space="preserve" font-family="TimesNewRomanPSMT,Times New Roman" font-size="23.5" fill="#000000" transform="matrix(1.00, 0.00, -0.00, -1.00, 389.0, 6.8)">u</text><text xml:space="preserve" font-family="TimesNewRomanPSMT,Times New Roman" font-size="23.5" fill="#000000" transform="matrix(1.00, 0.00, -0.00, -1.00, 400.8, 6.8)">l</text><text xml:space="preserve" font-family="TimesNewRomanPSMT,Times New Roman" font-size="23.5" fill="#000000" transform="matrix(1.00, 0.00, -0.00, -1.00, 407.3, 6.8)"> </text><text xml:space="preserve" font-family="TimesNewRomanPSMT,Times New Roman" font-size="23.5" fill="#000000" transform="matrix(1.00, 0.00, -0.00, -1.00, 413.2, 6.8)">t</text><text xml:space="preserve" font-family="TimesNewRomanPSMT,Times New Roman" font-size="23.5" fill="#000000" transform="matrix(1.00, 0.00, -0.00, -1.00, 419.7, 6.8)">o</text><text xml:space="preserve" font-family="TimesNewRomanPSMT,Times New Roman" font-size="23.5" fill="#000000" transform="matrix(1.00, 0.00, -0.00, -1.00, 431.5, 6.8)"> </text><text xml:space="preserve" font-family="TimesNewRomanPSMT,Times New Roman" font-size="23.5" fill="#000000" transform="matrix(1.00, 0.00, -0.00, -1.00, 437.3, 6.8)">a</text><text xml:space="preserve" font-family="TimesNewRomanPSMT,Times New Roman" font-size="23.5" fill="#000000" transform="matrix(1.00, 0.00, -0.00, -1.00, 447.8, 6.8)">l</text><text xml:space="preserve" font-family="TimesNewRomanPSMT,Times New Roman" font-size="23.5" fill="#000000" transform="matrix(1.00, 0.00, -0.00, -1.00, 454.3, 6.8)">l</text><text xml:space="preserve" font-family="TimesNewRomanPSMT,Times New Roman" font-size="23.5" fill="#000000" transform="matrix(1.00, 0.00, -0.00, -1.00, 460.8, 6.8)">o</text><text xml:space="preserve" font-family="TimesNewRomanPSMT,Times New Roman" font-size="23.5" fill="#000000" transform="matrix(1.00, 0.00, -0.00, -1.00, 472.6, 6.8)">c</text><text xml:space="preserve" font-family="TimesNewRomanPSMT,Times New Roman" font-size="23.5" fill="#000000" transform="matrix(1.00, 0.00, -0.00, -1.00, 483.0, 6.8)">a</text><text xml:space="preserve" font-family="TimesNewRomanPSMT,Times New Roman" font-size="23.5" fill="#000000" transform="matrix(1.00, 0.00, -0.00, -1.00, 493.5, 6.8)">t</text><text xml:space="preserve" font-family="TimesNewRomanPSMT,Times New Roman" font-size="23.5" fill="#000000" transform="matrix(1.00, 0.00, -0.00, -1.00, 500.0, 6.8)">e</text><text xml:space="preserve" font-family="TimesNewRomanPSMT,Times New Roman" font-size="23.5" fill="#000000" transform="matrix(1.00, 0.00, -0.00, -1.00, 510.4, 6.8)"> </text><text xml:space="preserve" font-family="TimesNewRomanPSMT,Times New Roman" font-size="23.5" fill="#000000" transform="matrix(1.00, 0.00, -0.00, -1.00, 516.3, 6.8)">r</text><text xml:space="preserve" font-family="TimesNewRomanPSMT,Times New Roman" font-size="23.5" fill="#000000" transform="matrix(1.00, 0.00, -0.00, -1.00, 524.1, 6.8)">e</text><text xml:space="preserve" font-family="TimesNewRomanPSMT,Times New Roman" font-size="23.5" fill="#000000" transform="matrix(1.00, 0.00, -0.00, -1.00, 534.6, 6.8)">s</text><text xml:space="preserve" font-family="TimesNewRomanPSMT,Times New Roman" font-size="23.5" fill="#000000" transform="matrix(1.00, 0.00, -0.00, -1.00, 543.7, 6.8)">o</text><text xml:space="preserve" font-family="TimesNewRomanPSMT,Times New Roman" font-size="23.5" fill="#000000" transform="matrix(1.00, 0.00, -0.00, -1.00, 555.5, 6.8)">u</text><text xml:space="preserve" font-family="TimesNewRomanPSMT,Times New Roman" font-size="23.5" fill="#000000" transform="matrix(1.00, 0.00, -0.00, -1.00, 567.2, 6.8)">r</text><text xml:space="preserve" font-family="TimesNewRomanPSMT,Times New Roman" font-size="23.5" fill="#000000" transform="matrix(1.00, 0.00, -0.00, -1.00, 575.1, 6.8)">c</text><text xml:space="preserve" font-family="TimesNewRomanPSMT,Times New Roman" font-size="23.5" fill="#000000" transform="matrix(1.00, 0.00, -0.00, -1.00, 585.5, 6.8)">e</text><text xml:space="preserve" font-family="TimesNewRomanPSMT,Times New Roman" font-size="23.5" fill="#000000" transform="matrix(1.00, 0.00, -0.00, -1.00, 595.9, 6.8)">s</text></g></svg>