<?xml version="1.0" encoding="UTF-8" standalone="no"?><svg xmlns="http://www.w3.org/2000/svg" xmlns:xlink="http://www.w3.org/1999/xlink" clip-rule="evenodd" stroke-miterlimit="10" viewBox="0 0 327 27"><desc>SVG generated by Keynote</desc><defs></defs><g transform="matrix(1.00, 0.00, -0.00, -1.00, 0.0, 27.0)"><text xml:space="preserve" font-family="ArialMT,Arial" font-size="23.5" fill="#000000" transform="matrix(1.00, 0.00, -0.00, -1.00, 0.6, 5.0)">•</text><text xml:space="preserve" font-family="TimesNewRomanPSMT,Times New Roman" font-size="23.5" fill="#000000" transform="matrix(1.00, 0.00, -0.00, -1.00, 21.5, 5.2)">L</text><text xml:space="preserve" font-family="TimesNewRomanPSMT,Times New Roman" font-size="23.5" fill="#000000" transform="matrix(1.00, 0.00, -0.00, -1.00, 35.9, 5.2)">i</text><text xml:space="preserve" font-family="TimesNewRomanPSMT,Times New Roman" font-size="23.5" fill="#000000" transform="matrix(1.00, 0.00, -0.00, -1.00, 42.4, 5.2)">n</text><text xml:space="preserve" font-family="TimesNewRomanPSMT,Times New Roman" font-size="23.5" fill="#000000" transform="matrix(1.00, 0.00, -0.00, -1.00, 54.2, 5.2)">e</text><text xml:space="preserve" font-family="TimesNewRomanPSMT,Times New Roman" font-size="23.5" fill="#000000" transform="matrix(1.00, 0.00, -0.00, -1.00, 64.6, 5.2)">a</text><text xml:space="preserve" font-family="TimesNewRomanPSMT,Times New Roman" font-size="23.5" fill="#000000" transform="matrix(1.00, 0.00, -0.00, -1.00, 75.1, 5.2)">r</text><text xml:space="preserve" font-family="TimesNewRomanPSMT,Times New Roman" font-size="23.5" fill="#000000" transform="matrix(1.00, 0.00, -0.00, -1.00, 82.9, 5.2)"> </text><text xml:space="preserve" font-family="TimesNewRomanPSMT,Times New Roman" font-size="23.5" fill="#000000" transform="matrix(1.00, 0.00, -0.00, -1.00, 88.8, 5.2)">f</text><text xml:space="preserve" font-family="TimesNewRomanPSMT,Times New Roman" font-size="23.5" fill="#000000" transform="matrix(1.00, 0.00, -0.00, -1.00, 96.6, 5.2)">e</text><text xml:space="preserve" font-family="TimesNewRomanPSMT,Times New Roman" font-size="23.5" fill="#000000" transform="matrix(1.00, 0.00, -0.00, -1.00, 107.0, 5.2)">a</text><text xml:space="preserve" font-family="TimesNewRomanPSMT,Times New Roman" font-size="23.5" fill="#000000" transform="matrix(1.00, 0.00, -0.00, -1.00, 117.5, 5.2)">t</text><text xml:space="preserve" font-family="TimesNewRomanPSMT,Times New Roman" font-size="23.5" fill="#000000" transform="matrix(1.00, 0.00, -0.00, -1.00, 124.0, 5.2)">u</text><text xml:space="preserve" font-family="TimesNewRomanPSMT,Times New Roman" font-size="23.5" fill="#000000" transform="matrix(1.00, 0.00, -0.00, -1.00, 135.8, 5.2)">r</text><text xml:space="preserve" font-family="TimesNewRomanPSMT,Times New Roman" font-size="23.5" fill="#000000" transform="matrix(1.00, 0.00, -0.00, -1.00, 143.6, 5.2)">e</text><text xml:space="preserve" font-family="TimesNewRomanPSMT,Times New Roman" font-size="23.5" fill="#000000" transform="matrix(1.00, 0.00, -0.00, -1.00, 154.0, 5.2)">s</text><text xml:space="preserve" font-family="TimesNewRomanPSMT,Times New Roman" font-size="23.5" fill="#000000" transform="matrix(1.00, 0.00, -0.00, -1.00, 163.2, 5.2)">:</text><text xml:space="preserve" font-family="TimesNewRomanPSMT,Times New Roman" font-size="23.5" fill="#000000" transform="matrix(1.00, 0.00, -0.00, -1.00, 169.7, 5.2)"> </text><text xml:space="preserve" font-family="TimesNewRomanPSMT,Times New Roman" font-size="23.5" fill="#000000" transform="matrix(1.00, 0.00, -0.00, -1.00, 175.6, 5.2)">f</text><text xml:space="preserve" font-family="TimesNewRomanPSMT,Times New Roman" font-size="23.5" fill="#000000" transform="matrix(1.00, 0.00, -0.00, -1.00, 183.4, 5.2)">o</text><text xml:space="preserve" font-family="TimesNewRomanPSMT,Times New Roman" font-size="23.5" fill="#000000" transform="matrix(1.00, 0.00, -0.00, -1.00, 195.2, 5.2)">r</text><text xml:space="preserve" font-family="TimesNewRomanPSMT,Times New Roman" font-size="23.5" fill="#000000" transform="matrix(1.00, 0.00, -0.00, -1.00, 203.0, 5.2)"> </text><text xml:space="preserve" font-family="TimesNewRomanPSMT,Times New Roman" font-size="23.5" fill="#000000" transform="matrix(1.00, 0.00, -0.00, -1.00, 208.9, 5.2)">l</text><text xml:space="preserve" font-family="TimesNewRomanPSMT,Times New Roman" font-size="23.5" fill="#000000" transform="matrix(1.00, 0.00, -0.00, -1.00, 215.4, 5.2)">i</text><text xml:space="preserve" font-family="TimesNewRomanPSMT,Times New Roman" font-size="23.5" fill="#000000" transform="matrix(1.00, 0.00, -0.00, -1.00, 222.0, 5.2)">n</text><text xml:space="preserve" font-family="TimesNewRomanPSMT,Times New Roman" font-size="23.5" fill="#000000" transform="matrix(1.00, 0.00, -0.00, -1.00, 233.7, 5.2)">e</text><text xml:space="preserve" font-family="TimesNewRomanPSMT,Times New Roman" font-size="23.5" fill="#000000" transform="matrix(1.00, 0.00, -0.00, -1.00, 244.2, 5.2)">a</text><text xml:space="preserve" font-family="TimesNewRomanPSMT,Times New Roman" font-size="23.5" fill="#000000" transform="matrix(1.00, 0.00, -0.00, -1.00, 254.6, 5.2)">r</text><text xml:space="preserve" font-family="TimesNewRomanPSMT,Times New Roman" font-size="23.5" fill="#000000" transform="matrix(1.00, 0.00, -0.00, -1.00, 262.4, 5.2)"> </text><text xml:space="preserve" font-family="TimesNewRomanPSMT,Times New Roman" font-size="23.5" fill="#000000" transform="matrix(1.00, 0.00, -0.00, -1.00, 268.3, 5.2)">t</text><text xml:space="preserve" font-family="TimesNewRomanPSMT,Times New Roman" font-size="23.5" fill="#000000" transform="matrix(1.00, 0.00, -0.00, -1.00, 274.8, 5.2)">r</text><text xml:space="preserve" font-family="TimesNewRomanPSMT,Times New Roman" font-size="23.5" fill="#000000" transform="matrix(1.00, 0.00, -0.00, -1.00, 282.7, 5.2)">e</text><text xml:space="preserve" font-family="TimesNewRomanPSMT,Times New Roman" font-size="23.5" fill="#000000" transform="matrix(1.00, 0.00, -0.00, -1.00, 293.1, 5.2)">n</text><text xml:space="preserve" font-family="TimesNewRomanPSMT,Times New Roman" font-size="23.5" fill="#000000" transform="matrix(1.00, 0.00, -0.00, -1.00, 304.9, 5.2)">d</text><text xml:space="preserve" font-family="TimesNewRomanPSMT,Times New Roman" font-size="23.5" fill="#000000" transform="matrix(1.00, 0.00, -0.00, -1.00, 316.6, 5.2)">s</text></g></svg>