<?xml version="1.0" encoding="UTF-8" standalone="no"?><svg xmlns="http://www.w3.org/2000/svg" xmlns:xlink="http://www.w3.org/1999/xlink" clip-rule="evenodd" stroke-miterlimit="10" viewBox="0 0 613 29"><desc>SVG generated by Keynote</desc><defs></defs><g transform="matrix(1.00, 0.00, -0.00, -1.00, 0.0, 29.0)"><text xml:space="preserve" font-family="ArialMT,Arial" font-size="23.5" fill="#000000" transform="matrix(1.00, 0.00, -0.00, -1.00, 0.6, 7.4)">•</text><text xml:space="preserve" font-family="TimesNewRomanPSMT,Times New Roman" font-size="23.5" fill="#000000" transform="matrix(1.00, 0.00, -0.00, -1.00, 21.5, 7.6)">C</text><text xml:space="preserve" font-family="TimesNewRomanPSMT,Times New Roman" font-size="23.5" fill="#000000" transform="matrix(1.00, 0.00, -0.00, -1.00, 37.2, 7.6)">a</text><text xml:space="preserve" font-family="TimesNewRomanPSMT,Times New Roman" font-size="23.5" fill="#000000" transform="matrix(1.00, 0.00, -0.00, -1.00, 47.7, 7.6)">t</text><text xml:space="preserve" font-family="TimesNewRomanPSMT,Times New Roman" font-size="23.5" fill="#000000" transform="matrix(1.00, 0.00, -0.00, -1.00, 54.2, 7.6)">e</text><text xml:space="preserve" font-family="TimesNewRomanPSMT,Times New Roman" font-size="23.5" fill="#000000" transform="matrix(1.00, 0.00, -0.00, -1.00, 64.6, 7.6)">g</text><text xml:space="preserve" font-family="TimesNewRomanPSMT,Times New Roman" font-size="23.5" fill="#000000" transform="matrix(1.00, 0.00, -0.00, -1.00, 76.4, 7.6)">o</text><text xml:space="preserve" font-family="TimesNewRomanPSMT,Times New Roman" font-size="23.5" fill="#000000" transform="matrix(1.00, 0.00, -0.00, -1.00, 88.1, 7.6)">r</text><text xml:space="preserve" font-family="TimesNewRomanPSMT,Times New Roman" font-size="23.5" fill="#000000" transform="matrix(1.00, 0.00, -0.00, -1.00, 96.0, 7.6)">i</text><text xml:space="preserve" font-family="TimesNewRomanPSMT,Times New Roman" font-size="23.5" fill="#000000" transform="matrix(1.00, 0.00, -0.00, -1.00, 102.5, 7.6)">c</text><text xml:space="preserve" font-family="TimesNewRomanPSMT,Times New Roman" font-size="23.5" fill="#000000" transform="matrix(1.00, 0.00, -0.00, -1.00, 112.9, 7.6)">a</text><text xml:space="preserve" font-family="TimesNewRomanPSMT,Times New Roman" font-size="23.5" fill="#000000" transform="matrix(1.00, 0.00, -0.00, -1.00, 123.4, 7.6)">l</text><text xml:space="preserve" font-family="TimesNewRomanPSMT,Times New Roman" font-size="23.5" fill="#000000" transform="matrix(1.00, 0.00, -0.00, -1.00, 129.9, 7.6)"> </text><text xml:space="preserve" font-family="TimesNewRomanPSMT,Times New Roman" font-size="23.5" fill="#000000" transform="matrix(1.00, 0.00, -0.00, -1.00, 135.8, 7.6)">f</text><text xml:space="preserve" font-family="TimesNewRomanPSMT,Times New Roman" font-size="23.5" fill="#000000" transform="matrix(1.00, 0.00, -0.00, -1.00, 143.6, 7.6)">e</text><text xml:space="preserve" font-family="TimesNewRomanPSMT,Times New Roman" font-size="23.5" fill="#000000" transform="matrix(1.00, 0.00, -0.00, -1.00, 154.1, 7.6)">a</text><text xml:space="preserve" font-family="TimesNewRomanPSMT,Times New Roman" font-size="23.5" fill="#000000" transform="matrix(1.00, 0.00, -0.00, -1.00, 164.5, 7.6)">t</text><text xml:space="preserve" font-family="TimesNewRomanPSMT,Times New Roman" font-size="23.5" fill="#000000" transform="matrix(1.00, 0.00, -0.00, -1.00, 171.0, 7.6)">u</text><text xml:space="preserve" font-family="TimesNewRomanPSMT,Times New Roman" font-size="23.5" fill="#000000" transform="matrix(1.00, 0.00, -0.00, -1.00, 182.8, 7.6)">r</text><text xml:space="preserve" font-family="TimesNewRomanPSMT,Times New Roman" font-size="23.5" fill="#000000" transform="matrix(1.00, 0.00, -0.00, -1.00, 190.6, 7.6)">e</text><text xml:space="preserve" font-family="TimesNewRomanPSMT,Times New Roman" font-size="23.5" fill="#000000" transform="matrix(1.00, 0.00, -0.00, -1.00, 201.0, 7.6)">s</text><text xml:space="preserve" font-family="TimesNewRomanPSMT,Times New Roman" font-size="23.5" fill="#000000" transform="matrix(1.00, 0.00, -0.00, -1.00, 210.2, 7.6)">:</text><text xml:space="preserve" font-family="TimesNewRomanPSMT,Times New Roman" font-size="23.5" fill="#000000" transform="matrix(1.00, 0.00, -0.00, -1.00, 216.7, 7.6)"> </text><text xml:space="preserve" font-family="TimesNewRomanPSMT,Times New Roman" font-size="23.5" fill="#000000" transform="matrix(1.00, 0.00, -0.00, -1.00, 222.6, 7.6)">f</text><text xml:space="preserve" font-family="TimesNewRomanPSMT,Times New Roman" font-size="23.5" fill="#000000" transform="matrix(1.00, 0.00, -0.00, -1.00, 230.4, 7.6)">o</text><text xml:space="preserve" font-family="TimesNewRomanPSMT,Times New Roman" font-size="23.5" fill="#000000" transform="matrix(1.00, 0.00, -0.00, -1.00, 242.2, 7.6)">r</text><text xml:space="preserve" font-family="TimesNewRomanPSMT,Times New Roman" font-size="23.5" fill="#000000" transform="matrix(1.00, 0.00, -0.00, -1.00, 250.0, 7.6)"> </text><text xml:space="preserve" font-family="TimesNewRomanPSMT,Times New Roman" font-size="23.5" fill="#000000" transform="matrix(1.00, 0.00, -0.00, -1.00, 255.9, 7.6)">p</text><text xml:space="preserve" font-family="TimesNewRomanPSMT,Times New Roman" font-size="23.5" fill="#000000" transform="matrix(1.00, 0.00, -0.00, -1.00, 267.7, 7.6)">e</text><text xml:space="preserve" font-family="TimesNewRomanPSMT,Times New Roman" font-size="23.5" fill="#000000" transform="matrix(1.00, 0.00, -0.00, -1.00, 278.1, 7.6)">r</text><text xml:space="preserve" font-family="TimesNewRomanPSMT,Times New Roman" font-size="23.5" fill="#000000" transform="matrix(1.00, 0.00, -0.00, -1.00, 285.9, 7.6)">i</text><text xml:space="preserve" font-family="TimesNewRomanPSMT,Times New Roman" font-size="23.5" fill="#000000" transform="matrix(1.00, 0.00, -0.00, -1.00, 292.5, 7.6)">o</text><text xml:space="preserve" font-family="TimesNewRomanPSMT,Times New Roman" font-size="23.5" fill="#000000" transform="matrix(1.00, 0.00, -0.00, -1.00, 304.2, 7.6)">d</text><text xml:space="preserve" font-family="TimesNewRomanPSMT,Times New Roman" font-size="23.5" fill="#000000" transform="matrix(1.00, 0.00, -0.00, -1.00, 316.0, 7.6)">i</text><text xml:space="preserve" font-family="TimesNewRomanPSMT,Times New Roman" font-size="23.5" fill="#000000" transform="matrix(1.00, 0.00, -0.00, -1.00, 322.5, 7.6)">c</text><text xml:space="preserve" font-family="TimesNewRomanPSMT,Times New Roman" font-size="23.5" fill="#000000" transform="matrix(1.00, 0.00, -0.00, -1.00, 333.0, 7.6)">i</text><text xml:space="preserve" font-family="TimesNewRomanPSMT,Times New Roman" font-size="23.5" fill="#000000" transform="matrix(1.00, 0.00, -0.00, -1.00, 339.5, 7.6)">t</text><text xml:space="preserve" font-family="TimesNewRomanPSMT,Times New Roman" font-size="23.5" fill="#000000" transform="matrix(1.00, 0.00, -0.00, -1.00, 346.0, 7.6)">y</text><text xml:space="preserve" font-family="TimesNewRomanPSMT,Times New Roman" font-size="23.5" fill="#000000" transform="matrix(1.00, 0.00, -0.00, -1.00, 357.8, 7.6)"> </text><text xml:space="preserve" font-family="TimesNewRomanPSMT,Times New Roman" font-size="23.5" fill="#000000" transform="matrix(1.00, 0.00, -0.00, -1.00, 363.7, 7.6)"> </text><text xml:space="preserve" font-family="TimesNewRomanPSMT,Times New Roman" font-size="23.5" fill="#000000" transform="matrix(1.00, 0.00, -0.00, -1.00, 369.5, 7.6)">(</text><text xml:space="preserve" font-family="TimesNewRomanPSMT,Times New Roman" font-size="23.5" fill="#000000" transform="matrix(1.00, 0.00, -0.00, -1.00, 377.4, 7.6)">q</text><text xml:space="preserve" font-family="TimesNewRomanPSMT,Times New Roman" font-size="23.5" fill="#000000" transform="matrix(1.00, 0.00, -0.00, -1.00, 389.1, 7.6)">u</text><text xml:space="preserve" font-family="TimesNewRomanPSMT,Times New Roman" font-size="23.5" fill="#000000" transform="matrix(1.00, 0.00, -0.00, -1.00, 400.9, 7.6)">a</text><text xml:space="preserve" font-family="TimesNewRomanPSMT,Times New Roman" font-size="23.5" fill="#000000" transform="matrix(1.00, 0.00, -0.00, -1.00, 411.3, 7.6)">r</text><text xml:space="preserve" font-family="TimesNewRomanPSMT,Times New Roman" font-size="23.5" fill="#000000" transform="matrix(1.00, 0.00, -0.00, -1.00, 419.2, 7.6)">t</text><text xml:space="preserve" font-family="TimesNewRomanPSMT,Times New Roman" font-size="23.5" fill="#000000" transform="matrix(1.00, 0.00, -0.00, -1.00, 425.7, 7.6)">e</text><text xml:space="preserve" font-family="TimesNewRomanPSMT,Times New Roman" font-size="23.5" fill="#000000" transform="matrix(1.00, 0.00, -0.00, -1.00, 436.1, 7.6)">r</text><text xml:space="preserve" font-family="TimesNewRomanPSMT,Times New Roman" font-size="23.5" fill="#000000" transform="matrix(1.00, 0.00, -0.00, -1.00, 443.0, 7.6)">,</text><text xml:space="preserve" font-family="TimesNewRomanPSMT,Times New Roman" font-size="23.5" fill="#000000" transform="matrix(1.00, 0.00, -0.00, -1.00, 448.9, 7.6)"> </text><text xml:space="preserve" font-family="TimesNewRomanPSMT,Times New Roman" font-size="23.5" fill="#000000" transform="matrix(1.00, 0.00, -0.00, -1.00, 454.8, 7.6)">d</text><text xml:space="preserve" font-family="TimesNewRomanPSMT,Times New Roman" font-size="23.5" fill="#000000" transform="matrix(1.00, 0.00, -0.00, -1.00, 466.5, 7.6)">a</text><text xml:space="preserve" font-family="TimesNewRomanPSMT,Times New Roman" font-size="23.5" fill="#000000" transform="matrix(1.00, 0.00, -0.00, -1.00, 477.0, 7.6)">y</text><text xml:space="preserve" font-family="TimesNewRomanPSMT,Times New Roman" font-size="23.5" fill="#000000" transform="matrix(1.00, 0.00, -0.00, -1.00, 488.7, 7.6)"> </text><text xml:space="preserve" font-family="TimesNewRomanPSMT,Times New Roman" font-size="23.5" fill="#000000" transform="matrix(1.00, 0.00, -0.00, -1.00, 494.6, 7.6)">o</text><text xml:space="preserve" font-family="TimesNewRomanPSMT,Times New Roman" font-size="23.5" fill="#000000" transform="matrix(1.00, 0.00, -0.00, -1.00, 506.4, 7.6)">f</text><text xml:space="preserve" font-family="TimesNewRomanPSMT,Times New Roman" font-size="23.5" fill="#000000" transform="matrix(1.00, 0.00, -0.00, -1.00, 514.2, 7.6)"> </text><text xml:space="preserve" font-family="TimesNewRomanPSMT,Times New Roman" font-size="23.5" fill="#000000" transform="matrix(1.00, 0.00, -0.00, -1.00, 520.1, 7.6)">t</text><text xml:space="preserve" font-family="TimesNewRomanPSMT,Times New Roman" font-size="23.5" fill="#000000" transform="matrix(1.00, 0.00, -0.00, -1.00, 526.6, 7.6)">h</text><text xml:space="preserve" font-family="TimesNewRomanPSMT,Times New Roman" font-size="23.5" fill="#000000" transform="matrix(1.00, 0.00, -0.00, -1.00, 538.4, 7.6)">e</text><text xml:space="preserve" font-family="TimesNewRomanPSMT,Times New Roman" font-size="23.5" fill="#000000" transform="matrix(1.00, 0.00, -0.00, -1.00, 548.8, 7.6)"> </text><text xml:space="preserve" font-family="TimesNewRomanPSMT,Times New Roman" font-size="23.5" fill="#000000" transform="matrix(1.00, 0.00, -0.00, -1.00, 554.7, 7.6)">w</text><text xml:space="preserve" font-family="TimesNewRomanPSMT,Times New Roman" font-size="23.5" fill="#000000" transform="matrix(1.00, 0.00, -0.00, -1.00, 571.7, 7.6)">e</text><text xml:space="preserve" font-family="TimesNewRomanPSMT,Times New Roman" font-size="23.5" fill="#000000" transform="matrix(1.00, 0.00, -0.00, -1.00, 582.1, 7.6)">e</text><text xml:space="preserve" font-family="TimesNewRomanPSMT,Times New Roman" font-size="23.5" fill="#000000" transform="matrix(1.00, 0.00, -0.00, -1.00, 592.5, 7.6)">k</text><text xml:space="preserve" font-family="TimesNewRomanPSMT,Times New Roman" font-size="23.5" fill="#000000" transform="matrix(1.00, 0.00, -0.00, -1.00, 604.3, 7.6)">)</text></g></svg>