<?xml version="1.0" encoding="UTF-8" standalone="no"?><svg xmlns="http://www.w3.org/2000/svg" xmlns:xlink="http://www.w3.org/1999/xlink" clip-rule="evenodd" stroke-miterlimit="10" viewBox="0 0 720 540"><desc>SVG generated by Keynote</desc><defs></defs><g transform="matrix(1.00, 0.00, -0.00, -1.00, 0.0, 540.0)"><path d="M 0.0 540.0 L 720.0 540.0 L 720.0 0.0 L 0.0 0.0 Z M 0.0 540.0 " fill="#FFFFFF"></path><text xml:space="preserve" font-family="TimesNewRomanPSMT,Times New Roman" font-size="41.0" fill="#000000" transform="matrix(1.00, 0.00, -0.00, -1.00, 242.2, 477.4)">B</text><text xml:space="preserve" font-family="TimesNewRomanPSMT,Times New Roman" font-size="41.0" fill="#000000" transform="matrix(1.00, 0.00, -0.00, -1.00, 269.5, 477.4)">e</text><text xml:space="preserve" font-family="TimesNewRomanPSMT,Times New Roman" font-size="41.0" fill="#000000" transform="matrix(1.00, 0.00, -0.00, -1.00, 287.7, 477.4)">h</text><text xml:space="preserve" font-family="TimesNewRomanPSMT,Times New Roman" font-size="41.0" fill="#000000" transform="matrix(1.00, 0.00, -0.00, -1.00, 308.2, 477.4)">i</text><text xml:space="preserve" font-family="TimesNewRomanPSMT,Times New Roman" font-size="41.0" fill="#000000" transform="matrix(1.00, 0.00, -0.00, -1.00, 319.6, 477.4)">n</text><text xml:space="preserve" font-family="TimesNewRomanPSMT,Times New Roman" font-size="41.0" fill="#000000" transform="matrix(1.00, 0.00, -0.00, -1.00, 340.1, 477.4)">d</text><text xml:space="preserve" font-family="TimesNewRomanPSMT,Times New Roman" font-size="41.0" fill="#000000" transform="matrix(1.00, 0.00, -0.00, -1.00, 360.6, 477.4)"> </text><text xml:space="preserve" font-family="TimesNewRomanPSMT,Times New Roman" font-size="41.0" fill="#000000" transform="matrix(1.00, 0.00, -0.00, -1.00, 370.8, 477.4)">s</text><text xml:space="preserve" font-family="TimesNewRomanPSMT,Times New Roman" font-size="41.0" fill="#000000" transform="matrix(1.00, 0.00, -0.00, -1.00, 386.8, 477.4)">c</text><text xml:space="preserve" font-family="TimesNewRomanPSMT,Times New Roman" font-size="41.0" fill="#000000" transform="matrix(1.00, 0.00, -0.00, -1.00, 405.0, 477.4)">e</text><text xml:space="preserve" font-family="TimesNewRomanPSMT,Times New Roman" font-size="41.0" fill="#000000" transform="matrix(1.00, 0.00, -0.00, -1.00, 423.2, 477.4)">n</text><text xml:space="preserve" font-family="TimesNewRomanPSMT,Times New Roman" font-size="41.0" fill="#000000" transform="matrix(1.00, 0.00, -0.00, -1.00, 443.7, 477.4)">e</text><text xml:space="preserve" font-family="TimesNewRomanPSMT,Times New Roman" font-size="41.0" fill="#000000" transform="matrix(1.00, 0.00, -0.00, -1.00, 461.9, 477.4)">s</text></g></svg>