<?xml version="1.0" encoding="UTF-8" standalone="no"?><svg xmlns="http://www.w3.org/2000/svg" xmlns:xlink="http://www.w3.org/1999/xlink" clip-rule="evenodd" stroke-miterlimit="10" viewBox="0 0 652 25"><desc>SVG generated by Keynote</desc><defs></defs><g transform="matrix(1.00, 0.00, -0.00, -1.00, 0.0, 25.0)"><text xml:space="preserve" font-family="TimesNewRomanPSMT,Times New Roman" font-size="21.0" fill="#000000" transform="matrix(1.00, 0.00, -0.00, -1.00, 0.7, 6.1)">•</text><text xml:space="preserve" font-family="TimesNewRomanPS-BoldMT,Times New Roman" font-weight="bold" font-size="21.0" fill="#000000" transform="matrix(1.00, 0.00, -0.00, -1.00, 17.2, 6.1)">A</text><text xml:space="preserve" font-family="TimesNewRomanPS-BoldMT,Times New Roman" font-weight="bold" font-size="21.0" fill="#000000" transform="matrix(1.00, 0.00, -0.00, -1.00, 32.4, 6.1)">d</text><text xml:space="preserve" font-family="TimesNewRomanPS-BoldMT,Times New Roman" font-weight="bold" font-size="21.0" fill="#000000" transform="matrix(1.00, 0.00, -0.00, -1.00, 44.1, 6.1)">v</text><text xml:space="preserve" font-family="TimesNewRomanPS-BoldMT,Times New Roman" font-weight="bold" font-size="21.0" fill="#000000" transform="matrix(1.00, 0.00, -0.00, -1.00, 54.6, 6.1)">o</text><text xml:space="preserve" font-family="TimesNewRomanPS-BoldMT,Times New Roman" font-weight="bold" font-size="21.0" fill="#000000" transform="matrix(1.00, 0.00, -0.00, -1.00, 65.1, 6.1)">c</text><text xml:space="preserve" font-family="TimesNewRomanPS-BoldMT,Times New Roman" font-weight="bold" font-size="21.0" fill="#000000" transform="matrix(1.00, 0.00, -0.00, -1.00, 74.4, 6.1)">a</text><text xml:space="preserve" font-family="TimesNewRomanPS-BoldMT,Times New Roman" font-weight="bold" font-size="21.0" fill="#000000" transform="matrix(1.00, 0.00, -0.00, -1.00, 84.9, 6.1)">c</text><text xml:space="preserve" font-family="TimesNewRomanPS-BoldMT,Times New Roman" font-weight="bold" font-size="21.0" fill="#000000" transform="matrix(1.00, 0.00, -0.00, -1.00, 94.2, 6.1)">y</text><text xml:space="preserve" font-family="TimesNewRomanPSMT,Times New Roman" font-size="21.0" fill="#000000" transform="matrix(1.00, 0.00, -0.00, -1.00, 104.7, 6.1)">:</text><text xml:space="preserve" font-family="TimesNewRomanPSMT,Times New Roman" font-size="21.0" fill="#000000" transform="matrix(1.00, 0.00, -0.00, -1.00, 110.6, 6.1)"> </text><text xml:space="preserve" font-family="TimesNewRomanPSMT,Times New Roman" font-size="21.0" fill="#000000" transform="matrix(1.00, 0.00, -0.00, -1.00, 115.8, 6.1)">“</text><text xml:space="preserve" font-family="TimesNewRomanPSMT,Times New Roman" font-size="21.0" fill="#000000" transform="matrix(1.00, 0.00, -0.00, -1.00, 125.1, 6.1)">I</text><text xml:space="preserve" font-family="TimesNewRomanPSMT,Times New Roman" font-size="21.0" fill="#000000" transform="matrix(1.00, 0.00, -0.00, -1.00, 132.1, 6.1)"> </text><text xml:space="preserve" font-family="TimesNewRomanPSMT,Times New Roman" font-size="21.0" fill="#000000" transform="matrix(1.00, 0.00, -0.00, -1.00, 137.4, 6.1)">c</text><text xml:space="preserve" font-family="TimesNewRomanPSMT,Times New Roman" font-size="21.0" fill="#000000" transform="matrix(1.00, 0.00, -0.00, -1.00, 146.7, 6.1)">a</text><text xml:space="preserve" font-family="TimesNewRomanPSMT,Times New Roman" font-size="21.0" fill="#000000" transform="matrix(1.00, 0.00, -0.00, -1.00, 156.0, 6.1)">n</text><text xml:space="preserve" font-family="TimesNewRomanPSMT,Times New Roman" font-size="21.0" fill="#000000" transform="matrix(1.00, 0.00, -0.00, -1.00, 166.5, 6.1)"> </text><text xml:space="preserve" font-family="TimesNewRomanPSMT,Times New Roman" font-size="21.0" fill="#000000" transform="matrix(1.00, 0.00, -0.00, -1.00, 171.8, 6.1)">d</text><text xml:space="preserve" font-family="TimesNewRomanPSMT,Times New Roman" font-size="21.0" fill="#000000" transform="matrix(1.00, 0.00, -0.00, -1.00, 182.3, 6.1)">o</text><text xml:space="preserve" font-family="TimesNewRomanPSMT,Times New Roman" font-size="21.0" fill="#000000" transform="matrix(1.00, 0.00, -0.00, -1.00, 192.8, 6.1)"> </text><text xml:space="preserve" font-family="TimesNewRomanPSMT,Times New Roman" font-size="21.0" fill="#000000" transform="matrix(1.00, 0.00, -0.00, -1.00, 198.0, 6.1)">b</text><text xml:space="preserve" font-family="TimesNewRomanPSMT,Times New Roman" font-size="21.0" fill="#000000" transform="matrix(1.00, 0.00, -0.00, -1.00, 208.5, 6.1)">e</text><text xml:space="preserve" font-family="TimesNewRomanPSMT,Times New Roman" font-size="21.0" fill="#000000" transform="matrix(1.00, 0.00, -0.00, -1.00, 217.8, 6.1)">t</text><text xml:space="preserve" font-family="TimesNewRomanPSMT,Times New Roman" font-size="21.0" fill="#000000" transform="matrix(1.00, 0.00, -0.00, -1.00, 223.7, 6.1)">t</text><text xml:space="preserve" font-family="TimesNewRomanPSMT,Times New Roman" font-size="21.0" fill="#000000" transform="matrix(1.00, 0.00, -0.00, -1.00, 229.5, 6.1)">e</text><text xml:space="preserve" font-family="TimesNewRomanPSMT,Times New Roman" font-size="21.0" fill="#000000" transform="matrix(1.00, 0.00, -0.00, -1.00, 238.8, 6.1)">r</text><text xml:space="preserve" font-family="TimesNewRomanPSMT,Times New Roman" font-size="21.0" fill="#000000" transform="matrix(1.00, 0.00, -0.00, -1.00, 245.8, 6.1)"> </text><text xml:space="preserve" font-family="TimesNewRomanPSMT,Times New Roman" font-size="21.0" fill="#000000" transform="matrix(1.00, 0.00, -0.00, -1.00, 251.0, 6.1)">a</text><text xml:space="preserve" font-family="TimesNewRomanPSMT,Times New Roman" font-size="21.0" fill="#000000" transform="matrix(1.00, 0.00, -0.00, -1.00, 260.4, 6.1)">d</text><text xml:space="preserve" font-family="TimesNewRomanPSMT,Times New Roman" font-size="21.0" fill="#000000" transform="matrix(1.00, 0.00, -0.00, -1.00, 270.9, 6.1)">v</text><text xml:space="preserve" font-family="TimesNewRomanPSMT,Times New Roman" font-size="21.0" fill="#000000" transform="matrix(1.00, 0.00, -0.00, -1.00, 281.4, 6.1)">o</text><text xml:space="preserve" font-family="TimesNewRomanPSMT,Times New Roman" font-size="21.0" fill="#000000" transform="matrix(1.00, 0.00, -0.00, -1.00, 291.9, 6.1)">c</text><text xml:space="preserve" font-family="TimesNewRomanPSMT,Times New Roman" font-size="21.0" fill="#000000" transform="matrix(1.00, 0.00, -0.00, -1.00, 301.2, 6.1)">a</text><text xml:space="preserve" font-family="TimesNewRomanPSMT,Times New Roman" font-size="21.0" fill="#000000" transform="matrix(1.00, 0.00, -0.00, -1.00, 310.5, 6.1)">c</text><text xml:space="preserve" font-family="TimesNewRomanPSMT,Times New Roman" font-size="21.0" fill="#000000" transform="matrix(1.00, 0.00, -0.00, -1.00, 319.8, 6.1)">y</text><text xml:space="preserve" font-family="TimesNewRomanPSMT,Times New Roman" font-size="21.0" fill="#000000" transform="matrix(1.00, 0.00, -0.00, -1.00, 328.9, 6.1)">,</text><text xml:space="preserve" font-family="TimesNewRomanPSMT,Times New Roman" font-size="21.0" fill="#000000" transform="matrix(1.00, 0.00, -0.00, -1.00, 334.2, 6.1)"> </text><text xml:space="preserve" font-family="TimesNewRomanPSMT,Times New Roman" font-size="21.0" fill="#000000" transform="matrix(1.00, 0.00, -0.00, -1.00, 339.4, 6.1)">i</text><text xml:space="preserve" font-family="TimesNewRomanPSMT,Times New Roman" font-size="21.0" fill="#000000" transform="matrix(1.00, 0.00, -0.00, -1.00, 345.3, 6.1)">f</text><text xml:space="preserve" font-family="TimesNewRomanPSMT,Times New Roman" font-size="21.0" fill="#000000" transform="matrix(1.00, 0.00, -0.00, -1.00, 352.3, 6.1)"> </text><text xml:space="preserve" font-family="TimesNewRomanPSMT,Times New Roman" font-size="21.0" fill="#000000" transform="matrix(1.00, 0.00, -0.00, -1.00, 357.5, 6.1)">I</text><text xml:space="preserve" font-family="TimesNewRomanPSMT,Times New Roman" font-size="21.0" fill="#000000" transform="matrix(1.00, 0.00, -0.00, -1.00, 364.5, 6.1)"> </text><text xml:space="preserve" font-family="TimesNewRomanPSMT,Times New Roman" font-size="21.0" fill="#000000" transform="matrix(1.00, 0.00, -0.00, -1.00, 369.8, 6.1)">h</text><text xml:space="preserve" font-family="TimesNewRomanPSMT,Times New Roman" font-size="21.0" fill="#000000" transform="matrix(1.00, 0.00, -0.00, -1.00, 380.3, 6.1)">a</text><text xml:space="preserve" font-family="TimesNewRomanPSMT,Times New Roman" font-size="21.0" fill="#000000" transform="matrix(1.00, 0.00, -0.00, -1.00, 389.6, 6.1)">d</text><text xml:space="preserve" font-family="TimesNewRomanPSMT,Times New Roman" font-size="21.0" fill="#000000" transform="matrix(1.00, 0.00, -0.00, -1.00, 400.1, 6.1)"> </text><text xml:space="preserve" font-family="TimesNewRomanPSMT,Times New Roman" font-size="21.0" fill="#000000" transform="matrix(1.00, 0.00, -0.00, -1.00, 405.3, 6.1)">d</text><text xml:space="preserve" font-family="TimesNewRomanPSMT,Times New Roman" font-size="21.0" fill="#000000" transform="matrix(1.00, 0.00, -0.00, -1.00, 415.8, 6.1)">a</text><text xml:space="preserve" font-family="TimesNewRomanPSMT,Times New Roman" font-size="21.0" fill="#000000" transform="matrix(1.00, 0.00, -0.00, -1.00, 425.1, 6.1)">t</text><text xml:space="preserve" font-family="TimesNewRomanPSMT,Times New Roman" font-size="21.0" fill="#000000" transform="matrix(1.00, 0.00, -0.00, -1.00, 431.0, 6.1)">a</text><text xml:space="preserve" font-family="TimesNewRomanPSMT,Times New Roman" font-size="21.0" fill="#000000" transform="matrix(1.00, 0.00, -0.00, -1.00, 440.3, 6.1)"> </text><text xml:space="preserve" font-family="TimesNewRomanPSMT,Times New Roman" font-size="21.0" fill="#000000" transform="matrix(1.00, 0.00, -0.00, -1.00, 445.5, 6.1)">t</text><text xml:space="preserve" font-family="TimesNewRomanPSMT,Times New Roman" font-size="21.0" fill="#000000" transform="matrix(1.00, 0.00, -0.00, -1.00, 451.4, 6.1)">h</text><text xml:space="preserve" font-family="TimesNewRomanPSMT,Times New Roman" font-size="21.0" fill="#000000" transform="matrix(1.00, 0.00, -0.00, -1.00, 461.9, 6.1)">a</text><text xml:space="preserve" font-family="TimesNewRomanPSMT,Times New Roman" font-size="21.0" fill="#000000" transform="matrix(1.00, 0.00, -0.00, -1.00, 471.2, 6.1)">t</text><text xml:space="preserve" font-family="TimesNewRomanPSMT,Times New Roman" font-size="21.0" fill="#000000" transform="matrix(1.00, 0.00, -0.00, -1.00, 477.0, 6.1)"> </text><text xml:space="preserve" font-family="TimesNewRomanPSMT,Times New Roman" font-size="21.0" fill="#000000" transform="matrix(1.00, 0.00, -0.00, -1.00, 482.3, 6.1)">i</text><text xml:space="preserve" font-family="TimesNewRomanPSMT,Times New Roman" font-size="21.0" fill="#000000" transform="matrix(1.00, 0.00, -0.00, -1.00, 488.1, 6.1)">s</text><text xml:space="preserve" font-family="TimesNewRomanPSMT,Times New Roman" font-size="21.0" fill="#000000" transform="matrix(1.00, 0.00, -0.00, -1.00, 496.3, 6.1)"> </text><text xml:space="preserve" font-family="TimesNewRomanPSMT,Times New Roman" font-size="21.0" fill="#000000" transform="matrix(1.00, 0.00, -0.00, -1.00, 501.5, 6.1)">e</text><text xml:space="preserve" font-family="TimesNewRomanPSMT,Times New Roman" font-size="21.0" fill="#000000" transform="matrix(1.00, 0.00, -0.00, -1.00, 510.8, 6.1)">a</text><text xml:space="preserve" font-family="TimesNewRomanPSMT,Times New Roman" font-size="21.0" fill="#000000" transform="matrix(1.00, 0.00, -0.00, -1.00, 520.2, 6.1)">s</text><text xml:space="preserve" font-family="TimesNewRomanPSMT,Times New Roman" font-size="21.0" fill="#000000" transform="matrix(1.00, 0.00, -0.00, -1.00, 528.3, 6.1)">i</text><text xml:space="preserve" font-family="TimesNewRomanPSMT,Times New Roman" font-size="21.0" fill="#000000" transform="matrix(1.00, 0.00, -0.00, -1.00, 534.2, 6.1)">e</text><text xml:space="preserve" font-family="TimesNewRomanPSMT,Times New Roman" font-size="21.0" fill="#000000" transform="matrix(1.00, 0.00, -0.00, -1.00, 543.5, 6.1)">r</text><text xml:space="preserve" font-family="TimesNewRomanPSMT,Times New Roman" font-size="21.0" fill="#000000" transform="matrix(1.00, 0.00, -0.00, -1.00, 550.5, 6.1)"> </text><text xml:space="preserve" font-family="TimesNewRomanPSMT,Times New Roman" font-size="21.0" fill="#000000" transform="matrix(1.00, 0.00, -0.00, -1.00, 555.7, 6.1)">t</text><text xml:space="preserve" font-family="TimesNewRomanPSMT,Times New Roman" font-size="21.0" fill="#000000" transform="matrix(1.00, 0.00, -0.00, -1.00, 561.6, 6.1)">o</text><text xml:space="preserve" font-family="TimesNewRomanPSMT,Times New Roman" font-size="21.0" fill="#000000" transform="matrix(1.00, 0.00, -0.00, -1.00, 572.1, 6.1)"> </text><text xml:space="preserve" font-family="TimesNewRomanPSMT,Times New Roman" font-size="21.0" fill="#000000" transform="matrix(1.00, 0.00, -0.00, -1.00, 577.3, 6.1)">l</text><text xml:space="preserve" font-family="TimesNewRomanPSMT,Times New Roman" font-size="21.0" fill="#000000" transform="matrix(1.00, 0.00, -0.00, -1.00, 583.1, 6.1)">o</text><text xml:space="preserve" font-family="TimesNewRomanPSMT,Times New Roman" font-size="21.0" fill="#000000" transform="matrix(1.00, 0.00, -0.00, -1.00, 593.6, 6.1)">o</text><text xml:space="preserve" font-family="TimesNewRomanPSMT,Times New Roman" font-size="21.0" fill="#000000" transform="matrix(1.00, 0.00, -0.00, -1.00, 604.1, 6.1)">k</text><text xml:space="preserve" font-family="TimesNewRomanPSMT,Times New Roman" font-size="21.0" fill="#000000" transform="matrix(1.00, 0.00, -0.00, -1.00, 614.6, 6.1)"> </text><text xml:space="preserve" font-family="TimesNewRomanPSMT,Times New Roman" font-size="21.0" fill="#000000" transform="matrix(1.00, 0.00, -0.00, -1.00, 619.9, 6.1)">a</text><text xml:space="preserve" font-family="TimesNewRomanPSMT,Times New Roman" font-size="21.0" fill="#000000" transform="matrix(1.00, 0.00, -0.00, -1.00, 629.2, 6.1)">t</text><text xml:space="preserve" font-family="TimesNewRomanPSMT,Times New Roman" font-size="21.0" fill="#000000" transform="matrix(1.00, 0.00, -0.00, -1.00, 635.0, 6.1)">.</text><text xml:space="preserve" font-family="TimesNewRomanPSMT,Times New Roman" font-size="21.0" fill="#000000" transform="matrix(1.00, 0.00, -0.00, -1.00, 640.3, 6.1)">”</text></g></svg>