<?xml version="1.0" encoding="UTF-8" standalone="no"?><svg xmlns="http://www.w3.org/2000/svg" xmlns:xlink="http://www.w3.org/1999/xlink" clip-rule="evenodd" stroke-miterlimit="10" viewBox="0 0 674 250"><desc>SVG generated by Keynote</desc><defs></defs><g transform="matrix(1.00, 0.00, -0.00, -1.00, 0.0, 250.0)"><g><clipPath id="clip0x600000cba460"><path d="M 0.0 31.5 L 338.1 31.5 L 338.1 249.6 L 0.0 249.6 Z M 0.0 31.5 "></path></clipPath><g clip-path="url(#clip0x600000cba460)"><image xlink:href="4D6C8833FE3A7FE5C39553254334C7A3.png" width="389.00" height="251.00" transform="matrix(0.87, 0.00, -0.00, -0.87, 0.0, 249.6)"></image></g></g><g><clipPath id="clip0x610000ab3860"><path d="M 125.8 2.2 L 212.3 2.2 L 212.3 45.0 L 125.8 45.0 Z M 125.8 2.2 "></path></clipPath><g clip-path="url(#clip0x610000ab3860)"><text xml:space="preserve" font-family="TrebuchetMS,Trebuchet MS" font-size="18.0" fill="#000000" transform="matrix(1.00, 0.00, -0.00, -1.00, 144.7, 22.8)">S</text><text xml:space="preserve" font-family="TrebuchetMS,Trebuchet MS" font-size="18.0" fill="#000000" transform="matrix(1.00, 0.00, -0.00, -1.00, 153.4, 22.8)">e</text><text xml:space="preserve" font-family="TrebuchetMS,Trebuchet MS" font-size="18.0" fill="#000000" transform="matrix(1.00, 0.00, -0.00, -1.00, 163.2, 22.8)">w</text><text xml:space="preserve" font-family="TrebuchetMS,Trebuchet MS" font-size="18.0" fill="#000000" transform="matrix(1.00, 0.00, -0.00, -1.00, 176.6, 22.8)">e</text><text xml:space="preserve" font-family="TrebuchetMS,Trebuchet MS" font-size="18.0" fill="#000000" transform="matrix(1.00, 0.00, -0.00, -1.00, 186.4, 22.8)">r</text></g></g><g><clipPath id="clip0x610000abc980"><path d="M 382.4 2.0 L 644.6 2.0 L 644.6 44.3 L 382.4 44.3 Z M 382.4 2.0 "></path></clipPath><g clip-path="url(#clip0x610000abc980)"><text xml:space="preserve" font-family="TrebuchetMS,Trebuchet MS" font-size="18.0" fill="#000000" transform="matrix(1.00, 0.00, -0.00, -1.00, 428.0, 22.1)">G</text><text xml:space="preserve" font-family="TrebuchetMS,Trebuchet MS" font-size="18.0" fill="#000000" transform="matrix(1.00, 0.00, -0.00, -1.00, 440.2, 22.1)">e</text><text xml:space="preserve" font-family="TrebuchetMS,Trebuchet MS" font-size="18.0" fill="#000000" transform="matrix(1.00, 0.00, -0.00, -1.00, 450.0, 22.1)">n</text><text xml:space="preserve" font-family="TrebuchetMS,Trebuchet MS" font-size="18.0" fill="#000000" transform="matrix(1.00, 0.00, -0.00, -1.00, 459.8, 22.1)">e</text><text xml:space="preserve" font-family="TrebuchetMS,Trebuchet MS" font-size="18.0" fill="#000000" transform="matrix(1.00, 0.00, -0.00, -1.00, 469.7, 22.1)">r</text><text xml:space="preserve" font-family="TrebuchetMS,Trebuchet MS" font-size="18.0" fill="#000000" transform="matrix(1.00, 0.00, -0.00, -1.00, 476.6, 22.1)">a</text><text xml:space="preserve" font-family="TrebuchetMS,Trebuchet MS" font-size="18.0" fill="#000000" transform="matrix(1.00, 0.00, -0.00, -1.00, 486.1, 22.1)">l</text><text xml:space="preserve" font-family="TrebuchetMS,Trebuchet MS" font-size="18.0" fill="#000000" transform="matrix(1.00, 0.00, -0.00, -1.00, 491.4, 22.1)"> </text><text xml:space="preserve" font-family="TrebuchetMS,Trebuchet MS" font-size="18.0" fill="#000000" transform="matrix(1.00, 0.00, -0.00, -1.00, 496.8, 22.1)">C</text><text xml:space="preserve" font-family="TrebuchetMS,Trebuchet MS" font-size="18.0" fill="#000000" transform="matrix(1.00, 0.00, -0.00, -1.00, 507.6, 22.1)">o</text><text xml:space="preserve" font-family="TrebuchetMS,Trebuchet MS" font-size="18.0" fill="#000000" transform="matrix(1.00, 0.00, -0.00, -1.00, 517.3, 22.1)">n</text><text xml:space="preserve" font-family="TrebuchetMS,Trebuchet MS" font-size="18.0" fill="#000000" transform="matrix(1.00, 0.00, -0.00, -1.00, 527.1, 22.1)">s</text><text xml:space="preserve" font-family="TrebuchetMS,Trebuchet MS" font-size="18.0" fill="#000000" transform="matrix(1.00, 0.00, -0.00, -1.00, 534.4, 22.1)">t</text><text xml:space="preserve" font-family="TrebuchetMS,Trebuchet MS" font-size="18.0" fill="#000000" transform="matrix(1.00, 0.00, -0.00, -1.00, 541.5, 22.1)">r</text><text xml:space="preserve" font-family="TrebuchetMS,Trebuchet MS" font-size="18.0" fill="#000000" transform="matrix(1.00, 0.00, -0.00, -1.00, 548.5, 22.1)">u</text><text xml:space="preserve" font-family="TrebuchetMS,Trebuchet MS" font-size="18.0" fill="#000000" transform="matrix(1.00, 0.00, -0.00, -1.00, 558.3, 22.1)">c</text><text xml:space="preserve" font-family="TrebuchetMS,Trebuchet MS" font-size="18.0" fill="#000000" transform="matrix(1.00, 0.00, -0.00, -1.00, 567.3, 22.1)">t</text><text xml:space="preserve" font-family="TrebuchetMS,Trebuchet MS" font-size="18.0" fill="#000000" transform="matrix(1.00, 0.00, -0.00, -1.00, 574.4, 22.1)">i</text><text xml:space="preserve" font-family="TrebuchetMS,Trebuchet MS" font-size="18.0" fill="#000000" transform="matrix(1.00, 0.00, -0.00, -1.00, 579.5, 22.1)">o</text><text xml:space="preserve" font-family="TrebuchetMS,Trebuchet MS" font-size="18.0" fill="#000000" transform="matrix(1.00, 0.00, -0.00, -1.00, 589.2, 22.1)">n</text></g></g><g><clipPath id="clip0x610000cbcf20"><path d="M 353.0 32.4 L 674.0 32.4 L 674.0 247.9 L 353.0 247.9 Z M 353.0 32.4 "></path></clipPath><g clip-path="url(#clip0x610000cbcf20)"><image xlink:href="ED504C19D507534C75F614BBDC5549C1.png" width="374.00" height="251.00" transform="matrix(0.86, 0.00, -0.00, -0.86, 353.0, 247.9)"></image></g></g></g></svg>