<?xml version="1.0" encoding="UTF-8" standalone="no"?><svg xmlns="http://www.w3.org/2000/svg" xmlns:xlink="http://www.w3.org/1999/xlink" clip-rule="evenodd" stroke-miterlimit="10" viewBox="0 0 720 540"><desc>SVG generated by Keynote</desc><defs></defs><g transform="matrix(1.00, 0.00, -0.00, -1.00, 0.0, 540.0)"><path d="M 0.0 540.0 L 720.0 540.0 L 720.0 0.0 L 0.0 0.0 Z M 0.0 540.0 " fill="#FFFFFF"></path><text xml:space="preserve" font-family="TrebuchetMS,Trebuchet MS" font-size="12.0" fill="#878787" transform="matrix(1.00, 0.00, -0.00, -1.00, 674.1, 20.8)">3</text><text xml:space="preserve" font-family="TimesNewRomanPSMT,Times New Roman" font-size="40.0" fill="#000000" transform="matrix(1.00, 0.00, -0.00, -1.00, 197.6, 483.3)">S</text><text xml:space="preserve" font-family="TimesNewRomanPSMT,Times New Roman" font-size="40.0" fill="#000000" transform="matrix(1.00, 0.00, -0.00, -1.00, 219.9, 483.3)">n</text><text xml:space="preserve" font-family="TimesNewRomanPSMT,Times New Roman" font-size="40.0" fill="#000000" transform="matrix(1.00, 0.00, -0.00, -1.00, 239.9, 483.3)">a</text><text xml:space="preserve" font-family="TimesNewRomanPSMT,Times New Roman" font-size="40.0" fill="#000000" transform="matrix(1.00, 0.00, -0.00, -1.00, 257.6, 483.3)">p</text><text xml:space="preserve" font-family="TimesNewRomanPSMT,Times New Roman" font-size="40.0" fill="#000000" transform="matrix(1.00, 0.00, -0.00, -1.00, 277.6, 483.3)">s</text><text xml:space="preserve" font-family="TimesNewRomanPSMT,Times New Roman" font-size="40.0" fill="#000000" transform="matrix(1.00, 0.00, -0.00, -1.00, 293.2, 483.3)">h</text><text xml:space="preserve" font-family="TimesNewRomanPSMT,Times New Roman" font-size="40.0" fill="#000000" transform="matrix(1.00, 0.00, -0.00, -1.00, 313.2, 483.3)">o</text><text xml:space="preserve" font-family="TimesNewRomanPSMT,Times New Roman" font-size="40.0" fill="#000000" transform="matrix(1.00, 0.00, -0.00, -1.00, 333.2, 483.3)">t</text><text xml:space="preserve" font-family="TimesNewRomanPSMT,Times New Roman" font-size="40.0" fill="#000000" transform="matrix(1.00, 0.00, -0.00, -1.00, 344.3, 483.3)"> </text><text xml:space="preserve" font-family="TimesNewRomanPSMT,Times New Roman" font-size="40.0" fill="#000000" transform="matrix(1.00, 0.00, -0.00, -1.00, 354.3, 483.3)">o</text><text xml:space="preserve" font-family="TimesNewRomanPSMT,Times New Roman" font-size="40.0" fill="#000000" transform="matrix(1.00, 0.00, -0.00, -1.00, 374.3, 483.3)">f</text><text xml:space="preserve" font-family="TimesNewRomanPSMT,Times New Roman" font-size="40.0" fill="#000000" transform="matrix(1.00, 0.00, -0.00, -1.00, 387.6, 483.3)"> </text><text xml:space="preserve" font-family="TimesNewRomanPSMT,Times New Roman" font-size="40.0" fill="#000000" transform="matrix(1.00, 0.00, -0.00, -1.00, 397.6, 483.3)">t</text><text xml:space="preserve" font-family="TimesNewRomanPSMT,Times New Roman" font-size="40.0" fill="#000000" transform="matrix(1.00, 0.00, -0.00, -1.00, 408.7, 483.3)">h</text><text xml:space="preserve" font-family="TimesNewRomanPSMT,Times New Roman" font-size="40.0" fill="#000000" transform="matrix(1.00, 0.00, -0.00, -1.00, 428.7, 483.3)">e</text><text xml:space="preserve" font-family="TimesNewRomanPSMT,Times New Roman" font-size="40.0" fill="#000000" transform="matrix(1.00, 0.00, -0.00, -1.00, 446.5, 483.3)"> </text><text xml:space="preserve" font-family="TimesNewRomanPSMT,Times New Roman" font-size="40.0" fill="#000000" transform="matrix(1.00, 0.00, -0.00, -1.00, 456.5, 483.3)">d</text><text xml:space="preserve" font-family="TimesNewRomanPSMT,Times New Roman" font-size="40.0" fill="#000000" transform="matrix(1.00, 0.00, -0.00, -1.00, 476.5, 483.3)">a</text><text xml:space="preserve" font-family="TimesNewRomanPSMT,Times New Roman" font-size="40.0" fill="#000000" transform="matrix(1.00, 0.00, -0.00, -1.00, 494.2, 483.3)">t</text><text xml:space="preserve" font-family="TimesNewRomanPSMT,Times New Roman" font-size="40.0" fill="#000000" transform="matrix(1.00, 0.00, -0.00, -1.00, 505.3, 483.3)">a</text><image xlink:href="C02EF823EE61CB21E37DCF98EEFCDB6F.png" width="1057.00" height="514.00" transform="matrix(0.68, 0.00, -0.00, -0.68, 0.0, 434.8)"></image></g></svg>