<?xml version="1.0" encoding="UTF-8" standalone="no"?><svg xmlns="http://www.w3.org/2000/svg" xmlns:xlink="http://www.w3.org/1999/xlink" clip-rule="evenodd" stroke-miterlimit="10" viewBox="0 0 658 27"><desc>SVG generated by Keynote</desc><defs></defs><g transform="matrix(1.00, 0.00, -0.00, -1.00, 0.0, 27.0)"><text xml:space="preserve" font-family="ArialMT,Arial" font-size="22.8" fill="#000000" transform="matrix(1.00, 0.00, -0.00, -1.00, 0.4, 5.7)">•</text><text xml:space="preserve" font-family="TimesNewRomanPSMT,Times New Roman" font-size="22.8" fill="#000000" transform="matrix(1.00, 0.00, -0.00, -1.00, 24.9, 6.4)">N</text><text xml:space="preserve" font-family="TimesNewRomanPSMT,Times New Roman" font-size="22.8" fill="#000000" transform="matrix(1.00, 0.00, -0.00, -1.00, 41.4, 6.4)">o</text><text xml:space="preserve" font-family="TimesNewRomanPSMT,Times New Roman" font-size="22.8" fill="#000000" transform="matrix(1.00, 0.00, -0.00, -1.00, 52.8, 6.4)">n</text><text xml:space="preserve" font-family="TimesNewRomanPSMT,Times New Roman" font-size="22.8" fill="#000000" transform="matrix(1.00, 0.00, -0.00, -1.00, 64.1, 6.4)">-</text><text xml:space="preserve" font-family="TimesNewRomanPSMT,Times New Roman" font-size="22.8" fill="#000000" transform="matrix(1.00, 0.00, -0.00, -1.00, 71.7, 6.4)">e</text><text xml:space="preserve" font-family="TimesNewRomanPSMT,Times New Roman" font-size="22.8" fill="#000000" transform="matrix(1.00, 0.00, -0.00, -1.00, 81.8, 6.4)">m</text><text xml:space="preserve" font-family="TimesNewRomanPSMT,Times New Roman" font-size="22.8" fill="#000000" transform="matrix(1.00, 0.00, -0.00, -1.00, 99.5, 6.4)">e</text><text xml:space="preserve" font-family="TimesNewRomanPSMT,Times New Roman" font-size="22.8" fill="#000000" transform="matrix(1.00, 0.00, -0.00, -1.00, 109.6, 6.4)">r</text><text xml:space="preserve" font-family="TimesNewRomanPSMT,Times New Roman" font-size="22.8" fill="#000000" transform="matrix(1.00, 0.00, -0.00, -1.00, 116.7, 6.4)">g</text><text xml:space="preserve" font-family="TimesNewRomanPSMT,Times New Roman" font-size="22.8" fill="#000000" transform="matrix(1.00, 0.00, -0.00, -1.00, 128.1, 6.4)">e</text><text xml:space="preserve" font-family="TimesNewRomanPSMT,Times New Roman" font-size="22.8" fill="#000000" transform="matrix(1.00, 0.00, -0.00, -1.00, 138.2, 6.4)">n</text><text xml:space="preserve" font-family="TimesNewRomanPSMT,Times New Roman" font-size="22.8" fill="#000000" transform="matrix(1.00, 0.00, -0.00, -1.00, 149.6, 6.4)">c</text><text xml:space="preserve" font-family="TimesNewRomanPSMT,Times New Roman" font-size="22.8" fill="#000000" transform="matrix(1.00, 0.00, -0.00, -1.00, 159.7, 6.4)">y</text><text xml:space="preserve" font-family="TimesNewRomanPSMT,Times New Roman" font-size="22.8" fill="#000000" transform="matrix(1.00, 0.00, -0.00, -1.00, 171.1, 6.4)"> </text><text xml:space="preserve" font-family="TimesNewRomanPSMT,Times New Roman" font-size="22.8" fill="#000000" transform="matrix(1.00, 0.00, -0.00, -1.00, 176.7, 6.4)">c</text><text xml:space="preserve" font-family="TimesNewRomanPSMT,Times New Roman" font-size="22.8" fill="#000000" transform="matrix(1.00, 0.00, -0.00, -1.00, 186.8, 6.4)">o</text><text xml:space="preserve" font-family="TimesNewRomanPSMT,Times New Roman" font-size="22.8" fill="#000000" transform="matrix(1.00, 0.00, -0.00, -1.00, 198.2, 6.4)">m</text><text xml:space="preserve" font-family="TimesNewRomanPSMT,Times New Roman" font-size="22.8" fill="#000000" transform="matrix(1.00, 0.00, -0.00, -1.00, 215.9, 6.4)">p</text><text xml:space="preserve" font-family="TimesNewRomanPSMT,Times New Roman" font-size="22.8" fill="#000000" transform="matrix(1.00, 0.00, -0.00, -1.00, 227.3, 6.4)">l</text><text xml:space="preserve" font-family="TimesNewRomanPSMT,Times New Roman" font-size="22.8" fill="#000000" transform="matrix(1.00, 0.00, -0.00, -1.00, 233.6, 6.4)">a</text><text xml:space="preserve" font-family="TimesNewRomanPSMT,Times New Roman" font-size="22.8" fill="#000000" transform="matrix(1.00, 0.00, -0.00, -1.00, 243.7, 6.4)">i</text><text xml:space="preserve" font-family="TimesNewRomanPSMT,Times New Roman" font-size="22.8" fill="#000000" transform="matrix(1.00, 0.00, -0.00, -1.00, 250.0, 6.4)">n</text><text xml:space="preserve" font-family="TimesNewRomanPSMT,Times New Roman" font-size="22.8" fill="#000000" transform="matrix(1.00, 0.00, -0.00, -1.00, 261.4, 6.4)">t</text><text xml:space="preserve" font-family="TimesNewRomanPSMT,Times New Roman" font-size="22.8" fill="#000000" transform="matrix(1.00, 0.00, -0.00, -1.00, 267.7, 6.4)">s</text><text xml:space="preserve" font-family="TimesNewRomanPSMT,Times New Roman" font-size="22.8" fill="#000000" transform="matrix(1.00, 0.00, -0.00, -1.00, 276.6, 6.4)">:</text><text xml:space="preserve" font-family="TimesNewRomanPSMT,Times New Roman" font-size="22.8" fill="#000000" transform="matrix(1.00, 0.00, -0.00, -1.00, 282.9, 6.4)"> </text><text xml:space="preserve" font-family="TimesNewRomanPSMT,Times New Roman" font-size="22.8" fill="#000000" transform="matrix(1.00, 0.00, -0.00, -1.00, 288.6, 6.4)">N</text><text xml:space="preserve" font-family="TimesNewRomanPSMT,Times New Roman" font-size="22.8" fill="#000000" transform="matrix(1.00, 0.00, -0.00, -1.00, 305.0, 6.4)">o</text><text xml:space="preserve" font-family="TimesNewRomanPSMT,Times New Roman" font-size="22.8" fill="#000000" transform="matrix(1.00, 0.00, -0.00, -1.00, 316.4, 6.4)">i</text><text xml:space="preserve" font-family="TimesNewRomanPSMT,Times New Roman" font-size="22.8" fill="#000000" transform="matrix(1.00, 0.00, -0.00, -1.00, 322.7, 6.4)">s</text><text xml:space="preserve" font-family="TimesNewRomanPSMT,Times New Roman" font-size="22.8" fill="#000000" transform="matrix(1.00, 0.00, -0.00, -1.00, 331.5, 6.4)">e</text><text xml:space="preserve" font-family="TimesNewRomanPSMT,Times New Roman" font-size="22.8" fill="#000000" transform="matrix(1.00, 0.00, -0.00, -1.00, 341.6, 6.4)">,</text><text xml:space="preserve" font-family="TimesNewRomanPSMT,Times New Roman" font-size="22.8" fill="#000000" transform="matrix(1.00, 0.00, -0.00, -1.00, 347.3, 6.4)"> </text><text xml:space="preserve" font-family="TimesNewRomanPSMT,Times New Roman" font-size="22.8" fill="#000000" transform="matrix(1.00, 0.00, -0.00, -1.00, 353.0, 6.4)">S</text><text xml:space="preserve" font-family="TimesNewRomanPSMT,Times New Roman" font-size="22.8" fill="#000000" transform="matrix(1.00, 0.00, -0.00, -1.00, 365.7, 6.4)">e</text><text xml:space="preserve" font-family="TimesNewRomanPSMT,Times New Roman" font-size="22.8" fill="#000000" transform="matrix(1.00, 0.00, -0.00, -1.00, 375.8, 6.4)">w</text><text xml:space="preserve" font-family="TimesNewRomanPSMT,Times New Roman" font-size="22.8" fill="#000000" transform="matrix(1.00, 0.00, -0.00, -1.00, 392.2, 6.4)">e</text><text xml:space="preserve" font-family="TimesNewRomanPSMT,Times New Roman" font-size="22.8" fill="#000000" transform="matrix(1.00, 0.00, -0.00, -1.00, 402.3, 6.4)">r</text><text xml:space="preserve" font-family="TimesNewRomanPSMT,Times New Roman" font-size="22.8" fill="#000000" transform="matrix(1.00, 0.00, -0.00, -1.00, 409.0, 6.4)">,</text><text xml:space="preserve" font-family="TimesNewRomanPSMT,Times New Roman" font-size="22.8" fill="#000000" transform="matrix(1.00, 0.00, -0.00, -1.00, 414.6, 6.4)"> </text><text xml:space="preserve" font-family="TimesNewRomanPSMT,Times New Roman" font-size="22.8" fill="#000000" transform="matrix(1.00, 0.00, -0.00, -1.00, 420.3, 6.4)">R</text><text xml:space="preserve" font-family="TimesNewRomanPSMT,Times New Roman" font-size="22.8" fill="#000000" transform="matrix(1.00, 0.00, -0.00, -1.00, 435.5, 6.4)">o</text><text xml:space="preserve" font-family="TimesNewRomanPSMT,Times New Roman" font-size="22.8" fill="#000000" transform="matrix(1.00, 0.00, -0.00, -1.00, 446.9, 6.4)">d</text><text xml:space="preserve" font-family="TimesNewRomanPSMT,Times New Roman" font-size="22.8" fill="#000000" transform="matrix(1.00, 0.00, -0.00, -1.00, 458.3, 6.4)">e</text><text xml:space="preserve" font-family="TimesNewRomanPSMT,Times New Roman" font-size="22.8" fill="#000000" transform="matrix(1.00, 0.00, -0.00, -1.00, 468.3, 6.4)">n</text><text xml:space="preserve" font-family="TimesNewRomanPSMT,Times New Roman" font-size="22.8" fill="#000000" transform="matrix(1.00, 0.00, -0.00, -1.00, 479.7, 6.4)">t</text><text xml:space="preserve" font-family="TimesNewRomanPSMT,Times New Roman" font-size="22.8" fill="#000000" transform="matrix(1.00, 0.00, -0.00, -1.00, 486.0, 6.4)">,</text><text xml:space="preserve" font-family="TimesNewRomanPSMT,Times New Roman" font-size="22.8" fill="#000000" transform="matrix(1.00, 0.00, -0.00, -1.00, 491.7, 6.4)"> </text><text xml:space="preserve" font-family="TimesNewRomanPSMT,Times New Roman" font-size="22.8" fill="#000000" transform="matrix(1.00, 0.00, -0.00, -1.00, 497.4, 6.4)">M</text><text xml:space="preserve" font-family="TimesNewRomanPSMT,Times New Roman" font-size="22.8" fill="#000000" transform="matrix(1.00, 0.00, -0.00, -1.00, 517.6, 6.4)">o</text><text xml:space="preserve" font-family="TimesNewRomanPSMT,Times New Roman" font-size="22.8" fill="#000000" transform="matrix(1.00, 0.00, -0.00, -1.00, 529.0, 6.4)">l</text><text xml:space="preserve" font-family="TimesNewRomanPSMT,Times New Roman" font-size="22.8" fill="#000000" transform="matrix(1.00, 0.00, -0.00, -1.00, 535.3, 6.4)">d</text><text xml:space="preserve" font-family="TimesNewRomanPSMT,Times New Roman" font-size="22.8" fill="#000000" transform="matrix(1.00, 0.00, -0.00, -1.00, 546.8, 6.4)">,</text><text xml:space="preserve" font-family="TimesNewRomanPSMT,Times New Roman" font-size="22.8" fill="#000000" transform="matrix(1.00, 0.00, -0.00, -1.00, 552.5, 6.4)"> </text><text xml:space="preserve" font-family="TimesNewRomanPSMT,Times New Roman" font-size="22.8" fill="#000000" transform="matrix(1.00, 0.00, -0.00, -1.00, 558.1, 6.4)">H</text><text xml:space="preserve" font-family="TimesNewRomanPSMT,Times New Roman" font-size="22.8" fill="#000000" transform="matrix(1.00, 0.00, -0.00, -1.00, 574.6, 6.4)">e</text><text xml:space="preserve" font-family="TimesNewRomanPSMT,Times New Roman" font-size="22.8" fill="#000000" transform="matrix(1.00, 0.00, -0.00, -1.00, 584.7, 6.4)">a</text><text xml:space="preserve" font-family="TimesNewRomanPSMT,Times New Roman" font-size="22.8" fill="#000000" transform="matrix(1.00, 0.00, -0.00, -1.00, 594.8, 6.4)">t</text><text xml:space="preserve" font-family="TimesNewRomanPSMT,Times New Roman" font-size="22.8" fill="#000000" transform="matrix(1.00, 0.00, -0.00, -1.00, 601.1, 6.4)">i</text><text xml:space="preserve" font-family="TimesNewRomanPSMT,Times New Roman" font-size="22.8" fill="#000000" transform="matrix(1.00, 0.00, -0.00, -1.00, 607.4, 6.4)">n</text><text xml:space="preserve" font-family="TimesNewRomanPSMT,Times New Roman" font-size="22.8" fill="#000000" transform="matrix(1.00, 0.00, -0.00, -1.00, 618.8, 6.4)">g</text><text xml:space="preserve" font-family="TimesNewRomanPSMT,Times New Roman" font-size="22.8" fill="#000000" transform="matrix(1.00, 0.00, -0.00, -1.00, 630.1, 6.4)">,</text><text xml:space="preserve" font-family="TimesNewRomanPSMT,Times New Roman" font-size="22.8" fill="#000000" transform="matrix(1.00, 0.00, -0.00, -1.00, 635.8, 6.4)">…</text></g></svg>