<?xml version="1.0" encoding="UTF-8" standalone="no"?><svg xmlns="http://www.w3.org/2000/svg" xmlns:xlink="http://www.w3.org/1999/xlink" clip-rule="evenodd" stroke-miterlimit="10" viewBox="0 0 720 540"><desc>SVG generated by Keynote</desc><defs></defs><g transform="matrix(1.00, 0.00, -0.00, -1.00, 0.0, 540.0)"><path d="M 0.0 540.0 L 720.0 540.0 L 720.0 0.0 L 0.0 0.0 Z M 0.0 540.0 " fill="#EAEAEA"></path><text xml:space="preserve" font-family="TimesNewRomanPSMT,Times New Roman" font-size="40.0" fill="#000000" transform="matrix(1.00, 0.00, -0.00, -1.00, 195.0, 468.5)"> </text><text xml:space="preserve" font-family="TimesNewRomanPSMT,Times New Roman" font-size="40.0" fill="#000000" transform="matrix(1.00, 0.00, -0.00, -1.00, 205.0, 468.5)"> </text><text xml:space="preserve" font-family="TimesNewRomanPSMT,Times New Roman" font-size="40.0" fill="#000000" transform="matrix(1.00, 0.00, -0.00, -1.00, 215.0, 468.5)"> </text><text xml:space="preserve" font-family="TimesNewRomanPSMT,Times New Roman" font-size="40.0" fill="#000000" transform="matrix(1.00, 0.00, -0.00, -1.00, 225.0, 468.5)"> </text><text xml:space="preserve" font-family="TimesNewRomanPSMT,Times New Roman" font-size="40.0" fill="#000000" transform="matrix(1.00, 0.00, -0.00, -1.00, 235.0, 468.5)">C</text><text xml:space="preserve" font-family="TimesNewRomanPSMT,Times New Roman" font-size="40.0" fill="#000000" transform="matrix(1.00, 0.00, -0.00, -1.00, 261.7, 468.5)">o</text><text xml:space="preserve" font-family="TimesNewRomanPSMT,Times New Roman" font-size="40.0" fill="#000000" transform="matrix(1.00, 0.00, -0.00, -1.00, 281.7, 468.5)">m</text><text xml:space="preserve" font-family="TimesNewRomanPSMT,Times New Roman" font-size="40.0" fill="#000000" transform="matrix(1.00, 0.00, -0.00, -1.00, 312.8, 468.5)">p</text><text xml:space="preserve" font-family="TimesNewRomanPSMT,Times New Roman" font-size="40.0" fill="#000000" transform="matrix(1.00, 0.00, -0.00, -1.00, 332.8, 468.5)">l</text><text xml:space="preserve" font-family="TimesNewRomanPSMT,Times New Roman" font-size="40.0" fill="#000000" transform="matrix(1.00, 0.00, -0.00, -1.00, 343.9, 468.5)">a</text><text xml:space="preserve" font-family="TimesNewRomanPSMT,Times New Roman" font-size="40.0" fill="#000000" transform="matrix(1.00, 0.00, -0.00, -1.00, 361.7, 468.5)">i</text><text xml:space="preserve" font-family="TimesNewRomanPSMT,Times New Roman" font-size="40.0" fill="#000000" transform="matrix(1.00, 0.00, -0.00, -1.00, 372.8, 468.5)">n</text><text xml:space="preserve" font-family="TimesNewRomanPSMT,Times New Roman" font-size="40.0" fill="#000000" transform="matrix(1.00, 0.00, -0.00, -1.00, 392.8, 468.5)">t</text><text xml:space="preserve" font-family="TimesNewRomanPSMT,Times New Roman" font-size="40.0" fill="#000000" transform="matrix(1.00, 0.00, -0.00, -1.00, 403.9, 468.5)"> </text><text xml:space="preserve" font-family="TimesNewRomanPSMT,Times New Roman" font-size="40.0" fill="#000000" transform="matrix(1.00, 0.00, -0.00, -1.00, 413.9, 468.5)">d</text><text xml:space="preserve" font-family="TimesNewRomanPSMT,Times New Roman" font-size="40.0" fill="#000000" transform="matrix(1.00, 0.00, -0.00, -1.00, 433.9, 468.5)">a</text><text xml:space="preserve" font-family="TimesNewRomanPSMT,Times New Roman" font-size="40.0" fill="#000000" transform="matrix(1.00, 0.00, -0.00, -1.00, 451.6, 468.5)">t</text><text xml:space="preserve" font-family="TimesNewRomanPSMT,Times New Roman" font-size="40.0" fill="#000000" transform="matrix(1.00, 0.00, -0.00, -1.00, 462.7, 468.5)">a</text><text xml:space="preserve" font-family="TimesNewRomanPSMT,Times New Roman" font-size="40.0" fill="#000000" transform="matrix(1.00, 0.00, -0.00, -1.00, 480.5, 468.5)">s</text><text xml:space="preserve" font-family="TimesNewRomanPSMT,Times New Roman" font-size="40.0" fill="#000000" transform="matrix(1.00, 0.00, -0.00, -1.00, 496.0, 468.5)">e</text><text xml:space="preserve" font-family="TimesNewRomanPSMT,Times New Roman" font-size="40.0" fill="#000000" transform="matrix(1.00, 0.00, -0.00, -1.00, 513.8, 468.5)">t</text><text xml:space="preserve" font-family="ArialMT,Arial" font-size="22.8" fill="#000000" transform="matrix(1.00, 0.00, -0.00, -1.00, 40.4, 385.7)">•</text><text xml:space="preserve" font-family="TimesNewRomanPSMT,Times New Roman" font-size="22.8" fill="#000000" transform="matrix(1.00, 0.00, -0.00, -1.00, 64.9, 386.4)">N</text><text xml:space="preserve" font-family="TimesNewRomanPSMT,Times New Roman" font-size="22.8" fill="#000000" transform="matrix(1.00, 0.00, -0.00, -1.00, 81.4, 386.4)">o</text><text xml:space="preserve" font-family="TimesNewRomanPSMT,Times New Roman" font-size="22.8" fill="#000000" transform="matrix(1.00, 0.00, -0.00, -1.00, 92.8, 386.4)">n</text><text xml:space="preserve" font-family="TimesNewRomanPSMT,Times New Roman" font-size="22.8" fill="#000000" transform="matrix(1.00, 0.00, -0.00, -1.00, 104.1, 386.4)">-</text><text xml:space="preserve" font-family="TimesNewRomanPSMT,Times New Roman" font-size="22.8" fill="#000000" transform="matrix(1.00, 0.00, -0.00, -1.00, 111.7, 386.4)">e</text><text xml:space="preserve" font-family="TimesNewRomanPSMT,Times New Roman" font-size="22.8" fill="#000000" transform="matrix(1.00, 0.00, -0.00, -1.00, 121.8, 386.4)">m</text><text xml:space="preserve" font-family="TimesNewRomanPSMT,Times New Roman" font-size="22.8" fill="#000000" transform="matrix(1.00, 0.00, -0.00, -1.00, 139.5, 386.4)">e</text><text xml:space="preserve" font-family="TimesNewRomanPSMT,Times New Roman" font-size="22.8" fill="#000000" transform="matrix(1.00, 0.00, -0.00, -1.00, 149.6, 386.4)">r</text><text xml:space="preserve" font-family="TimesNewRomanPSMT,Times New Roman" font-size="22.8" fill="#000000" transform="matrix(1.00, 0.00, -0.00, -1.00, 156.7, 386.4)">g</text><text xml:space="preserve" font-family="TimesNewRomanPSMT,Times New Roman" font-size="22.8" fill="#000000" transform="matrix(1.00, 0.00, -0.00, -1.00, 168.1, 386.4)">e</text><text xml:space="preserve" font-family="TimesNewRomanPSMT,Times New Roman" font-size="22.8" fill="#000000" transform="matrix(1.00, 0.00, -0.00, -1.00, 178.2, 386.4)">n</text><text xml:space="preserve" font-family="TimesNewRomanPSMT,Times New Roman" font-size="22.8" fill="#000000" transform="matrix(1.00, 0.00, -0.00, -1.00, 189.6, 386.4)">c</text><text xml:space="preserve" font-family="TimesNewRomanPSMT,Times New Roman" font-size="22.8" fill="#000000" transform="matrix(1.00, 0.00, -0.00, -1.00, 199.7, 386.4)">y</text><text xml:space="preserve" font-family="TimesNewRomanPSMT,Times New Roman" font-size="22.8" fill="#000000" transform="matrix(1.00, 0.00, -0.00, -1.00, 211.1, 386.4)"> </text><text xml:space="preserve" font-family="TimesNewRomanPSMT,Times New Roman" font-size="22.8" fill="#000000" transform="matrix(1.00, 0.00, -0.00, -1.00, 216.7, 386.4)">c</text><text xml:space="preserve" font-family="TimesNewRomanPSMT,Times New Roman" font-size="22.8" fill="#000000" transform="matrix(1.00, 0.00, -0.00, -1.00, 226.8, 386.4)">o</text><text xml:space="preserve" font-family="TimesNewRomanPSMT,Times New Roman" font-size="22.8" fill="#000000" transform="matrix(1.00, 0.00, -0.00, -1.00, 238.2, 386.4)">m</text><text xml:space="preserve" font-family="TimesNewRomanPSMT,Times New Roman" font-size="22.8" fill="#000000" transform="matrix(1.00, 0.00, -0.00, -1.00, 255.9, 386.4)">p</text><text xml:space="preserve" font-family="TimesNewRomanPSMT,Times New Roman" font-size="22.8" fill="#000000" transform="matrix(1.00, 0.00, -0.00, -1.00, 267.3, 386.4)">l</text><text xml:space="preserve" font-family="TimesNewRomanPSMT,Times New Roman" font-size="22.8" fill="#000000" transform="matrix(1.00, 0.00, -0.00, -1.00, 273.6, 386.4)">a</text><text xml:space="preserve" font-family="TimesNewRomanPSMT,Times New Roman" font-size="22.8" fill="#000000" transform="matrix(1.00, 0.00, -0.00, -1.00, 283.7, 386.4)">i</text><text xml:space="preserve" font-family="TimesNewRomanPSMT,Times New Roman" font-size="22.8" fill="#000000" transform="matrix(1.00, 0.00, -0.00, -1.00, 290.0, 386.4)">n</text><text xml:space="preserve" font-family="TimesNewRomanPSMT,Times New Roman" font-size="22.8" fill="#000000" transform="matrix(1.00, 0.00, -0.00, -1.00, 301.4, 386.4)">t</text><text xml:space="preserve" font-family="TimesNewRomanPSMT,Times New Roman" font-size="22.8" fill="#000000" transform="matrix(1.00, 0.00, -0.00, -1.00, 307.7, 386.4)">s</text><text xml:space="preserve" font-family="TimesNewRomanPSMT,Times New Roman" font-size="22.8" fill="#000000" transform="matrix(1.00, 0.00, -0.00, -1.00, 316.6, 386.4)">:</text><text xml:space="preserve" font-family="TimesNewRomanPSMT,Times New Roman" font-size="22.8" fill="#000000" transform="matrix(1.00, 0.00, -0.00, -1.00, 322.9, 386.4)"> </text><text xml:space="preserve" font-family="TimesNewRomanPSMT,Times New Roman" font-size="22.8" fill="#000000" transform="matrix(1.00, 0.00, -0.00, -1.00, 328.6, 386.4)">N</text><text xml:space="preserve" font-family="TimesNewRomanPSMT,Times New Roman" font-size="22.8" fill="#000000" transform="matrix(1.00, 0.00, -0.00, -1.00, 345.0, 386.4)">o</text><text xml:space="preserve" font-family="TimesNewRomanPSMT,Times New Roman" font-size="22.8" fill="#000000" transform="matrix(1.00, 0.00, -0.00, -1.00, 356.4, 386.4)">i</text><text xml:space="preserve" font-family="TimesNewRomanPSMT,Times New Roman" font-size="22.8" fill="#000000" transform="matrix(1.00, 0.00, -0.00, -1.00, 362.7, 386.4)">s</text><text xml:space="preserve" font-family="TimesNewRomanPSMT,Times New Roman" font-size="22.8" fill="#000000" transform="matrix(1.00, 0.00, -0.00, -1.00, 371.5, 386.4)">e</text><text xml:space="preserve" font-family="TimesNewRomanPSMT,Times New Roman" font-size="22.8" fill="#000000" transform="matrix(1.00, 0.00, -0.00, -1.00, 381.6, 386.4)">,</text><text xml:space="preserve" font-family="TimesNewRomanPSMT,Times New Roman" font-size="22.8" fill="#000000" transform="matrix(1.00, 0.00, -0.00, -1.00, 387.3, 386.4)"> </text><text xml:space="preserve" font-family="TimesNewRomanPSMT,Times New Roman" font-size="22.8" fill="#000000" transform="matrix(1.00, 0.00, -0.00, -1.00, 393.0, 386.4)">S</text><text xml:space="preserve" font-family="TimesNewRomanPSMT,Times New Roman" font-size="22.8" fill="#000000" transform="matrix(1.00, 0.00, -0.00, -1.00, 405.7, 386.4)">e</text><text xml:space="preserve" font-family="TimesNewRomanPSMT,Times New Roman" font-size="22.8" fill="#000000" transform="matrix(1.00, 0.00, -0.00, -1.00, 415.8, 386.4)">w</text><text xml:space="preserve" font-family="TimesNewRomanPSMT,Times New Roman" font-size="22.8" fill="#000000" transform="matrix(1.00, 0.00, -0.00, -1.00, 432.2, 386.4)">e</text><text xml:space="preserve" font-family="TimesNewRomanPSMT,Times New Roman" font-size="22.8" fill="#000000" transform="matrix(1.00, 0.00, -0.00, -1.00, 442.3, 386.4)">r</text><text xml:space="preserve" font-family="TimesNewRomanPSMT,Times New Roman" font-size="22.8" fill="#000000" transform="matrix(1.00, 0.00, -0.00, -1.00, 449.0, 386.4)">,</text><text xml:space="preserve" font-family="TimesNewRomanPSMT,Times New Roman" font-size="22.8" fill="#000000" transform="matrix(1.00, 0.00, -0.00, -1.00, 454.6, 386.4)"> </text><text xml:space="preserve" font-family="TimesNewRomanPSMT,Times New Roman" font-size="22.8" fill="#000000" transform="matrix(1.00, 0.00, -0.00, -1.00, 460.3, 386.4)">R</text><text xml:space="preserve" font-family="TimesNewRomanPSMT,Times New Roman" font-size="22.8" fill="#000000" transform="matrix(1.00, 0.00, -0.00, -1.00, 475.5, 386.4)">o</text><text xml:space="preserve" font-family="TimesNewRomanPSMT,Times New Roman" font-size="22.8" fill="#000000" transform="matrix(1.00, 0.00, -0.00, -1.00, 486.9, 386.4)">d</text><text xml:space="preserve" font-family="TimesNewRomanPSMT,Times New Roman" font-size="22.8" fill="#000000" transform="matrix(1.00, 0.00, -0.00, -1.00, 498.3, 386.4)">e</text><text xml:space="preserve" font-family="TimesNewRomanPSMT,Times New Roman" font-size="22.8" fill="#000000" transform="matrix(1.00, 0.00, -0.00, -1.00, 508.3, 386.4)">n</text><text xml:space="preserve" font-family="TimesNewRomanPSMT,Times New Roman" font-size="22.8" fill="#000000" transform="matrix(1.00, 0.00, -0.00, -1.00, 519.7, 386.4)">t</text><text xml:space="preserve" font-family="TimesNewRomanPSMT,Times New Roman" font-size="22.8" fill="#000000" transform="matrix(1.00, 0.00, -0.00, -1.00, 526.0, 386.4)">,</text><text xml:space="preserve" font-family="TimesNewRomanPSMT,Times New Roman" font-size="22.8" fill="#000000" transform="matrix(1.00, 0.00, -0.00, -1.00, 531.7, 386.4)"> </text><text xml:space="preserve" font-family="TimesNewRomanPSMT,Times New Roman" font-size="22.8" fill="#000000" transform="matrix(1.00, 0.00, -0.00, -1.00, 537.4, 386.4)">M</text><text xml:space="preserve" font-family="TimesNewRomanPSMT,Times New Roman" font-size="22.8" fill="#000000" transform="matrix(1.00, 0.00, -0.00, -1.00, 557.6, 386.4)">o</text><text xml:space="preserve" font-family="TimesNewRomanPSMT,Times New Roman" font-size="22.8" fill="#000000" transform="matrix(1.00, 0.00, -0.00, -1.00, 569.0, 386.4)">l</text><text xml:space="preserve" font-family="TimesNewRomanPSMT,Times New Roman" font-size="22.8" fill="#000000" transform="matrix(1.00, 0.00, -0.00, -1.00, 575.3, 386.4)">d</text><text xml:space="preserve" font-family="TimesNewRomanPSMT,Times New Roman" font-size="22.8" fill="#000000" transform="matrix(1.00, 0.00, -0.00, -1.00, 586.8, 386.4)">,</text><text xml:space="preserve" font-family="TimesNewRomanPSMT,Times New Roman" font-size="22.8" fill="#000000" transform="matrix(1.00, 0.00, -0.00, -1.00, 592.5, 386.4)"> </text><text xml:space="preserve" font-family="TimesNewRomanPSMT,Times New Roman" font-size="22.8" fill="#000000" transform="matrix(1.00, 0.00, -0.00, -1.00, 598.1, 386.4)">H</text><text xml:space="preserve" font-family="TimesNewRomanPSMT,Times New Roman" font-size="22.8" fill="#000000" transform="matrix(1.00, 0.00, -0.00, -1.00, 614.6, 386.4)">e</text><text xml:space="preserve" font-family="TimesNewRomanPSMT,Times New Roman" font-size="22.8" fill="#000000" transform="matrix(1.00, 0.00, -0.00, -1.00, 624.7, 386.4)">a</text><text xml:space="preserve" font-family="TimesNewRomanPSMT,Times New Roman" font-size="22.8" fill="#000000" transform="matrix(1.00, 0.00, -0.00, -1.00, 634.8, 386.4)">t</text><text xml:space="preserve" font-family="TimesNewRomanPSMT,Times New Roman" font-size="22.8" fill="#000000" transform="matrix(1.00, 0.00, -0.00, -1.00, 641.1, 386.4)">i</text><text xml:space="preserve" font-family="TimesNewRomanPSMT,Times New Roman" font-size="22.8" fill="#000000" transform="matrix(1.00, 0.00, -0.00, -1.00, 647.4, 386.4)">n</text><text xml:space="preserve" font-family="TimesNewRomanPSMT,Times New Roman" font-size="22.8" fill="#000000" transform="matrix(1.00, 0.00, -0.00, -1.00, 658.8, 386.4)">g</text><text xml:space="preserve" font-family="TimesNewRomanPSMT,Times New Roman" font-size="22.8" fill="#000000" transform="matrix(1.00, 0.00, -0.00, -1.00, 670.1, 386.4)">,</text><text xml:space="preserve" font-family="TimesNewRomanPSMT,Times New Roman" font-size="22.8" fill="#000000" transform="matrix(1.00, 0.00, -0.00, -1.00, 675.8, 386.4)">…</text><text xml:space="preserve" font-family="ArialMT,Arial" font-size="22.8" fill="#000000" transform="matrix(1.00, 0.00, -0.00, -1.00, 40.4, 347.7)">•</text><text xml:space="preserve" font-family="TimesNewRomanPSMT,Times New Roman" font-size="22.8" fill="#000000" transform="matrix(1.00, 0.00, -0.00, -1.00, 64.9, 348.4)">A</text><text xml:space="preserve" font-family="TimesNewRomanPSMT,Times New Roman" font-size="22.8" fill="#000000" transform="matrix(1.00, 0.00, -0.00, -1.00, 81.4, 348.4)">r</text><text xml:space="preserve" font-family="TimesNewRomanPSMT,Times New Roman" font-size="22.8" fill="#000000" transform="matrix(1.00, 0.00, -0.00, -1.00, 89.0, 348.4)">o</text><text xml:space="preserve" font-family="TimesNewRomanPSMT,Times New Roman" font-size="22.8" fill="#000000" transform="matrix(1.00, 0.00, -0.00, -1.00, 100.3, 348.4)">u</text><text xml:space="preserve" font-family="TimesNewRomanPSMT,Times New Roman" font-size="22.8" fill="#000000" transform="matrix(1.00, 0.00, -0.00, -1.00, 111.7, 348.4)">n</text><text xml:space="preserve" font-family="TimesNewRomanPSMT,Times New Roman" font-size="22.8" fill="#000000" transform="matrix(1.00, 0.00, -0.00, -1.00, 123.1, 348.4)">d</text><text xml:space="preserve" font-family="TimesNewRomanPSMT,Times New Roman" font-size="22.8" fill="#000000" transform="matrix(1.00, 0.00, -0.00, -1.00, 134.5, 348.4)"> </text><text xml:space="preserve" font-family="TimesNewRomanPSMT,Times New Roman" font-size="22.8" fill="#000000" transform="matrix(1.00, 0.00, -0.00, -1.00, 140.1, 348.4)">8</text><text xml:space="preserve" font-family="TimesNewRomanPSMT,Times New Roman" font-size="22.8" fill="#000000" transform="matrix(1.00, 0.00, -0.00, -1.00, 151.5, 348.4)"> </text><text xml:space="preserve" font-family="TimesNewRomanPSMT,Times New Roman" font-size="22.8" fill="#000000" transform="matrix(1.00, 0.00, -0.00, -1.00, 157.2, 348.4)">m</text><text xml:space="preserve" font-family="TimesNewRomanPSMT,Times New Roman" font-size="22.8" fill="#000000" transform="matrix(1.00, 0.00, -0.00, -1.00, 174.9, 348.4)">i</text><text xml:space="preserve" font-family="TimesNewRomanPSMT,Times New Roman" font-size="22.8" fill="#000000" transform="matrix(1.00, 0.00, -0.00, -1.00, 181.2, 348.4)">l</text><text xml:space="preserve" font-family="TimesNewRomanPSMT,Times New Roman" font-size="22.8" fill="#000000" transform="matrix(1.00, 0.00, -0.00, -1.00, 187.5, 348.4)">l</text><text xml:space="preserve" font-family="TimesNewRomanPSMT,Times New Roman" font-size="22.8" fill="#000000" transform="matrix(1.00, 0.00, -0.00, -1.00, 193.8, 348.4)">i</text><text xml:space="preserve" font-family="TimesNewRomanPSMT,Times New Roman" font-size="22.8" fill="#000000" transform="matrix(1.00, 0.00, -0.00, -1.00, 200.2, 348.4)">o</text><text xml:space="preserve" font-family="TimesNewRomanPSMT,Times New Roman" font-size="22.8" fill="#000000" transform="matrix(1.00, 0.00, -0.00, -1.00, 211.5, 348.4)">n</text><text xml:space="preserve" font-family="TimesNewRomanPSMT,Times New Roman" font-size="22.8" fill="#000000" transform="matrix(1.00, 0.00, -0.00, -1.00, 222.9, 348.4)"> </text><text xml:space="preserve" font-family="TimesNewRomanPSMT,Times New Roman" font-size="22.8" fill="#000000" transform="matrix(1.00, 0.00, -0.00, -1.00, 228.6, 348.4)">c</text><text xml:space="preserve" font-family="TimesNewRomanPSMT,Times New Roman" font-size="22.8" fill="#000000" transform="matrix(1.00, 0.00, -0.00, -1.00, 238.7, 348.4)">o</text><text xml:space="preserve" font-family="TimesNewRomanPSMT,Times New Roman" font-size="22.8" fill="#000000" transform="matrix(1.00, 0.00, -0.00, -1.00, 250.1, 348.4)">m</text><text xml:space="preserve" font-family="TimesNewRomanPSMT,Times New Roman" font-size="22.8" fill="#000000" transform="matrix(1.00, 0.00, -0.00, -1.00, 267.8, 348.4)">p</text><text xml:space="preserve" font-family="TimesNewRomanPSMT,Times New Roman" font-size="22.8" fill="#000000" transform="matrix(1.00, 0.00, -0.00, -1.00, 279.1, 348.4)">l</text><text xml:space="preserve" font-family="TimesNewRomanPSMT,Times New Roman" font-size="22.8" fill="#000000" transform="matrix(1.00, 0.00, -0.00, -1.00, 285.5, 348.4)">a</text><text xml:space="preserve" font-family="TimesNewRomanPSMT,Times New Roman" font-size="22.8" fill="#000000" transform="matrix(1.00, 0.00, -0.00, -1.00, 295.5, 348.4)">i</text><text xml:space="preserve" font-family="TimesNewRomanPSMT,Times New Roman" font-size="22.8" fill="#000000" transform="matrix(1.00, 0.00, -0.00, -1.00, 301.9, 348.4)">n</text><text xml:space="preserve" font-family="TimesNewRomanPSMT,Times New Roman" font-size="22.8" fill="#000000" transform="matrix(1.00, 0.00, -0.00, -1.00, 313.2, 348.4)">t</text><text xml:space="preserve" font-family="TimesNewRomanPSMT,Times New Roman" font-size="22.8" fill="#000000" transform="matrix(1.00, 0.00, -0.00, -1.00, 319.6, 348.4)">s</text><text xml:space="preserve" font-family="TimesNewRomanPSMT,Times New Roman" font-size="22.8" fill="#000000" transform="matrix(1.00, 0.00, -0.00, -1.00, 328.4, 348.4)"> </text><text xml:space="preserve" font-family="TimesNewRomanPSMT,Times New Roman" font-size="22.8" fill="#000000" transform="matrix(1.00, 0.00, -0.00, -1.00, 334.1, 348.4)">r</text><text xml:space="preserve" font-family="TimesNewRomanPSMT,Times New Roman" font-size="22.8" fill="#000000" transform="matrix(1.00, 0.00, -0.00, -1.00, 341.7, 348.4)">e</text><text xml:space="preserve" font-family="TimesNewRomanPSMT,Times New Roman" font-size="22.8" fill="#000000" transform="matrix(1.00, 0.00, -0.00, -1.00, 351.8, 348.4)">g</text><text xml:space="preserve" font-family="TimesNewRomanPSMT,Times New Roman" font-size="22.8" fill="#000000" transform="matrix(1.00, 0.00, -0.00, -1.00, 363.1, 348.4)">i</text><text xml:space="preserve" font-family="TimesNewRomanPSMT,Times New Roman" font-size="22.8" fill="#000000" transform="matrix(1.00, 0.00, -0.00, -1.00, 369.5, 348.4)">s</text><text xml:space="preserve" font-family="TimesNewRomanPSMT,Times New Roman" font-size="22.8" fill="#000000" transform="matrix(1.00, 0.00, -0.00, -1.00, 378.3, 348.4)">t</text><text xml:space="preserve" font-family="TimesNewRomanPSMT,Times New Roman" font-size="22.8" fill="#000000" transform="matrix(1.00, 0.00, -0.00, -1.00, 384.6, 348.4)">e</text><text xml:space="preserve" font-family="TimesNewRomanPSMT,Times New Roman" font-size="22.8" fill="#000000" transform="matrix(1.00, 0.00, -0.00, -1.00, 394.7, 348.4)">r</text><text xml:space="preserve" font-family="TimesNewRomanPSMT,Times New Roman" font-size="22.8" fill="#000000" transform="matrix(1.00, 0.00, -0.00, -1.00, 402.3, 348.4)">e</text><text xml:space="preserve" font-family="TimesNewRomanPSMT,Times New Roman" font-size="22.8" fill="#000000" transform="matrix(1.00, 0.00, -0.00, -1.00, 412.4, 348.4)">d</text><text xml:space="preserve" font-family="TimesNewRomanPSMT,Times New Roman" font-size="22.8" fill="#000000" transform="matrix(1.00, 0.00, -0.00, -1.00, 423.8, 348.4)"> </text><text xml:space="preserve" font-family="TimesNewRomanPSMT,Times New Roman" font-size="22.8" fill="#000000" transform="matrix(1.00, 0.00, -0.00, -1.00, 429.5, 348.4)">s</text><text xml:space="preserve" font-family="TimesNewRomanPSMT,Times New Roman" font-size="22.8" fill="#000000" transform="matrix(1.00, 0.00, -0.00, -1.00, 438.3, 348.4)">i</text><text xml:space="preserve" font-family="TimesNewRomanPSMT,Times New Roman" font-size="22.8" fill="#000000" transform="matrix(1.00, 0.00, -0.00, -1.00, 444.6, 348.4)">n</text><text xml:space="preserve" font-family="TimesNewRomanPSMT,Times New Roman" font-size="22.8" fill="#000000" transform="matrix(1.00, 0.00, -0.00, -1.00, 456.0, 348.4)">c</text><text xml:space="preserve" font-family="TimesNewRomanPSMT,Times New Roman" font-size="22.8" fill="#000000" transform="matrix(1.00, 0.00, -0.00, -1.00, 466.1, 348.4)">e</text><text xml:space="preserve" font-family="TimesNewRomanPSMT,Times New Roman" font-size="22.8" fill="#000000" transform="matrix(1.00, 0.00, -0.00, -1.00, 476.2, 348.4)"> </text><text xml:space="preserve" font-family="TimesNewRomanPSMT,Times New Roman" font-size="22.8" fill="#000000" transform="matrix(1.00, 0.00, -0.00, -1.00, 481.9, 348.4)">2</text><text xml:space="preserve" font-family="TimesNewRomanPSMT,Times New Roman" font-size="22.8" fill="#000000" transform="matrix(1.00, 0.00, -0.00, -1.00, 493.3, 348.4)">0</text><text xml:space="preserve" font-family="TimesNewRomanPSMT,Times New Roman" font-size="22.8" fill="#000000" transform="matrix(1.00, 0.00, -0.00, -1.00, 504.6, 348.4)">1</text><text xml:space="preserve" font-family="TimesNewRomanPSMT,Times New Roman" font-size="22.8" fill="#000000" transform="matrix(1.00, 0.00, -0.00, -1.00, 516.0, 348.4)">0</text><text xml:space="preserve" font-family="ArialMT,Arial" font-size="22.8" fill="#000000" transform="matrix(1.00, 0.00, -0.00, -1.00, 40.4, 309.7)">•</text><text xml:space="preserve" font-family="TimesNewRomanPSMT,Times New Roman" font-size="22.8" fill="#000000" transform="matrix(1.00, 0.00, -0.00, -1.00, 64.9, 310.4)">L</text><text xml:space="preserve" font-family="TimesNewRomanPSMT,Times New Roman" font-size="22.8" fill="#000000" transform="matrix(1.00, 0.00, -0.00, -1.00, 78.8, 310.4)">o</text><text xml:space="preserve" font-family="TimesNewRomanPSMT,Times New Roman" font-size="22.8" fill="#000000" transform="matrix(1.00, 0.00, -0.00, -1.00, 90.2, 310.4)">c</text><text xml:space="preserve" font-family="TimesNewRomanPSMT,Times New Roman" font-size="22.8" fill="#000000" transform="matrix(1.00, 0.00, -0.00, -1.00, 100.3, 310.4)">a</text><text xml:space="preserve" font-family="TimesNewRomanPSMT,Times New Roman" font-size="22.8" fill="#000000" transform="matrix(1.00, 0.00, -0.00, -1.00, 110.4, 310.4)">t</text><text xml:space="preserve" font-family="TimesNewRomanPSMT,Times New Roman" font-size="22.8" fill="#000000" transform="matrix(1.00, 0.00, -0.00, -1.00, 116.7, 310.4)">i</text><text xml:space="preserve" font-family="TimesNewRomanPSMT,Times New Roman" font-size="22.8" fill="#000000" transform="matrix(1.00, 0.00, -0.00, -1.00, 123.0, 310.4)">o</text><text xml:space="preserve" font-family="TimesNewRomanPSMT,Times New Roman" font-size="22.8" fill="#000000" transform="matrix(1.00, 0.00, -0.00, -1.00, 134.4, 310.4)">n</text><text xml:space="preserve" font-family="TimesNewRomanPSMT,Times New Roman" font-size="22.8" fill="#000000" transform="matrix(1.00, 0.00, -0.00, -1.00, 145.8, 310.4)">:</text><text xml:space="preserve" font-family="TimesNewRomanPSMT,Times New Roman" font-size="22.8" fill="#000000" transform="matrix(1.00, 0.00, -0.00, -1.00, 152.1, 310.4)"> </text><text xml:space="preserve" font-family="TimesNewRomanPSMT,Times New Roman" font-size="22.8" fill="#000000" transform="matrix(1.00, 0.00, -0.00, -1.00, 157.8, 310.4)">5</text><text xml:space="preserve" font-family="TimesNewRomanPSMT,Times New Roman" font-size="22.8" fill="#000000" transform="matrix(1.00, 0.00, -0.00, -1.00, 169.2, 310.4)"> </text><text xml:space="preserve" font-family="TimesNewRomanPSMT,Times New Roman" font-size="22.8" fill="#000000" transform="matrix(1.00, 0.00, -0.00, -1.00, 174.8, 310.4)">b</text><text xml:space="preserve" font-family="TimesNewRomanPSMT,Times New Roman" font-size="22.8" fill="#000000" transform="matrix(1.00, 0.00, -0.00, -1.00, 186.2, 310.4)">o</text><text xml:space="preserve" font-family="TimesNewRomanPSMT,Times New Roman" font-size="22.8" fill="#000000" transform="matrix(1.00, 0.00, -0.00, -1.00, 197.6, 310.4)">r</text><text xml:space="preserve" font-family="TimesNewRomanPSMT,Times New Roman" font-size="22.8" fill="#000000" transform="matrix(1.00, 0.00, -0.00, -1.00, 205.2, 310.4)">o</text><text xml:space="preserve" font-family="TimesNewRomanPSMT,Times New Roman" font-size="22.8" fill="#000000" transform="matrix(1.00, 0.00, -0.00, -1.00, 216.6, 310.4)">u</text><text xml:space="preserve" font-family="TimesNewRomanPSMT,Times New Roman" font-size="22.8" fill="#000000" transform="matrix(1.00, 0.00, -0.00, -1.00, 227.9, 310.4)">g</text><text xml:space="preserve" font-family="TimesNewRomanPSMT,Times New Roman" font-size="22.8" fill="#000000" transform="matrix(1.00, 0.00, -0.00, -1.00, 239.3, 310.4)">h</text><text xml:space="preserve" font-family="TimesNewRomanPSMT,Times New Roman" font-size="22.8" fill="#000000" transform="matrix(1.00, 0.00, -0.00, -1.00, 250.7, 310.4)">,</text><text xml:space="preserve" font-family="TimesNewRomanPSMT,Times New Roman" font-size="22.8" fill="#000000" transform="matrix(1.00, 0.00, -0.00, -1.00, 256.4, 310.4)"> </text><text xml:space="preserve" font-family="TimesNewRomanPSMT,Times New Roman" font-size="22.8" fill="#000000" transform="matrix(1.00, 0.00, -0.00, -1.00, 262.1, 310.4)">~</text><text xml:space="preserve" font-family="TimesNewRomanPSMT,Times New Roman" font-size="22.8" fill="#000000" transform="matrix(1.00, 0.00, -0.00, -1.00, 274.4, 310.4)"> </text><text xml:space="preserve" font-family="TimesNewRomanPSMT,Times New Roman" font-size="22.8" fill="#000000" transform="matrix(1.00, 0.00, -0.00, -1.00, 280.0, 310.4)">6</text><text xml:space="preserve" font-family="TimesNewRomanPSMT,Times New Roman" font-size="22.8" fill="#000000" transform="matrix(1.00, 0.00, -0.00, -1.00, 291.4, 310.4)">0</text><text xml:space="preserve" font-family="TimesNewRomanPSMT,Times New Roman" font-size="22.8" fill="#000000" transform="matrix(1.00, 0.00, -0.00, -1.00, 302.8, 310.4)"> </text><text xml:space="preserve" font-family="TimesNewRomanPSMT,Times New Roman" font-size="22.8" fill="#000000" transform="matrix(1.00, 0.00, -0.00, -1.00, 308.5, 310.4)">d</text><text xml:space="preserve" font-family="TimesNewRomanPSMT,Times New Roman" font-size="22.8" fill="#000000" transform="matrix(1.00, 0.00, -0.00, -1.00, 319.9, 310.4)">i</text><text xml:space="preserve" font-family="TimesNewRomanPSMT,Times New Roman" font-size="22.8" fill="#000000" transform="matrix(1.00, 0.00, -0.00, -1.00, 326.2, 310.4)">s</text><text xml:space="preserve" font-family="TimesNewRomanPSMT,Times New Roman" font-size="22.8" fill="#000000" transform="matrix(1.00, 0.00, -0.00, -1.00, 335.0, 310.4)">t</text><text xml:space="preserve" font-family="TimesNewRomanPSMT,Times New Roman" font-size="22.8" fill="#000000" transform="matrix(1.00, 0.00, -0.00, -1.00, 341.3, 310.4)">r</text><text xml:space="preserve" font-family="TimesNewRomanPSMT,Times New Roman" font-size="22.8" fill="#000000" transform="matrix(1.00, 0.00, -0.00, -1.00, 348.9, 310.4)">i</text><text xml:space="preserve" font-family="TimesNewRomanPSMT,Times New Roman" font-size="22.8" fill="#000000" transform="matrix(1.00, 0.00, -0.00, -1.00, 355.2, 310.4)">c</text><text xml:space="preserve" font-family="TimesNewRomanPSMT,Times New Roman" font-size="22.8" fill="#000000" transform="matrix(1.00, 0.00, -0.00, -1.00, 365.3, 310.4)">t</text><text xml:space="preserve" font-family="TimesNewRomanPSMT,Times New Roman" font-size="22.8" fill="#000000" transform="matrix(1.00, 0.00, -0.00, -1.00, 371.6, 310.4)">s</text><text xml:space="preserve" font-family="TimesNewRomanPSMT,Times New Roman" font-size="22.8" fill="#000000" transform="matrix(1.00, 0.00, -0.00, -1.00, 380.5, 310.4)">,</text><text xml:space="preserve" font-family="TimesNewRomanPSMT,Times New Roman" font-size="22.8" fill="#000000" transform="matrix(1.00, 0.00, -0.00, -1.00, 386.2, 310.4)"> </text><text xml:space="preserve" font-family="TimesNewRomanPSMT,Times New Roman" font-size="22.8" fill="#000000" transform="matrix(1.00, 0.00, -0.00, -1.00, 391.9, 310.4)">~</text><text xml:space="preserve" font-family="TimesNewRomanPSMT,Times New Roman" font-size="22.8" fill="#000000" transform="matrix(1.00, 0.00, -0.00, -1.00, 404.2, 310.4)">2</text><text xml:space="preserve" font-family="TimesNewRomanPSMT,Times New Roman" font-size="22.8" fill="#000000" transform="matrix(1.00, 0.00, -0.00, -1.00, 415.6, 310.4)">0</text><text xml:space="preserve" font-family="TimesNewRomanPSMT,Times New Roman" font-size="22.8" fill="#000000" transform="matrix(1.00, 0.00, -0.00, -1.00, 426.9, 310.4)">0</text><text xml:space="preserve" font-family="TimesNewRomanPSMT,Times New Roman" font-size="22.8" fill="#000000" transform="matrix(1.00, 0.00, -0.00, -1.00, 438.3, 310.4)"> </text><text xml:space="preserve" font-family="TimesNewRomanPSMT,Times New Roman" font-size="22.8" fill="#000000" transform="matrix(1.00, 0.00, -0.00, -1.00, 444.0, 310.4)">z</text><text xml:space="preserve" font-family="TimesNewRomanPSMT,Times New Roman" font-size="22.8" fill="#000000" transform="matrix(1.00, 0.00, -0.00, -1.00, 454.1, 310.4)">i</text><text xml:space="preserve" font-family="TimesNewRomanPSMT,Times New Roman" font-size="22.8" fill="#000000" transform="matrix(1.00, 0.00, -0.00, -1.00, 460.4, 310.4)">p</text><text xml:space="preserve" font-family="TimesNewRomanPSMT,Times New Roman" font-size="22.8" fill="#000000" transform="matrix(1.00, 0.00, -0.00, -1.00, 471.8, 310.4)"> </text><text xml:space="preserve" font-family="TimesNewRomanPSMT,Times New Roman" font-size="22.8" fill="#000000" transform="matrix(1.00, 0.00, -0.00, -1.00, 477.5, 310.4)">c</text><text xml:space="preserve" font-family="TimesNewRomanPSMT,Times New Roman" font-size="22.8" fill="#000000" transform="matrix(1.00, 0.00, -0.00, -1.00, 487.6, 310.4)">o</text><text xml:space="preserve" font-family="TimesNewRomanPSMT,Times New Roman" font-size="22.8" fill="#000000" transform="matrix(1.00, 0.00, -0.00, -1.00, 498.9, 310.4)">d</text><text xml:space="preserve" font-family="TimesNewRomanPSMT,Times New Roman" font-size="22.8" fill="#000000" transform="matrix(1.00, 0.00, -0.00, -1.00, 510.3, 310.4)">e</text><text xml:space="preserve" font-family="TimesNewRomanPSMT,Times New Roman" font-size="22.8" fill="#000000" transform="matrix(1.00, 0.00, -0.00, -1.00, 520.4, 310.4)">,</text><text xml:space="preserve" font-family="TimesNewRomanPSMT,Times New Roman" font-size="22.8" fill="#000000" transform="matrix(1.00, 0.00, -0.00, -1.00, 526.1, 310.4)"> </text><text xml:space="preserve" font-family="TimesNewRomanPSMT,Times New Roman" font-size="22.8" fill="#000000" transform="matrix(1.00, 0.00, -0.00, -1.00, 531.8, 310.4)">l</text><text xml:space="preserve" font-family="TimesNewRomanPSMT,Times New Roman" font-size="22.8" fill="#000000" transform="matrix(1.00, 0.00, -0.00, -1.00, 538.1, 310.4)">a</text><text xml:space="preserve" font-family="TimesNewRomanPSMT,Times New Roman" font-size="22.8" fill="#000000" transform="matrix(1.00, 0.00, -0.00, -1.00, 548.2, 310.4)">t</text><text xml:space="preserve" font-family="TimesNewRomanPSMT,Times New Roman" font-size="22.8" fill="#000000" transform="matrix(1.00, 0.00, -0.00, -1.00, 554.5, 310.4)">-</text><text xml:space="preserve" font-family="TimesNewRomanPSMT,Times New Roman" font-size="22.8" fill="#000000" transform="matrix(1.00, 0.00, -0.00, -1.00, 562.1, 310.4)">l</text><text xml:space="preserve" font-family="TimesNewRomanPSMT,Times New Roman" font-size="22.8" fill="#000000" transform="matrix(1.00, 0.00, -0.00, -1.00, 568.4, 310.4)">o</text><text xml:space="preserve" font-family="TimesNewRomanPSMT,Times New Roman" font-size="22.8" fill="#000000" transform="matrix(1.00, 0.00, -0.00, -1.00, 579.8, 310.4)">n</text><text xml:space="preserve" font-family="TimesNewRomanPSMT,Times New Roman" font-size="22.8" fill="#000000" transform="matrix(1.00, 0.00, -0.00, -1.00, 591.2, 310.4)">g</text><text xml:space="preserve" font-family="ArialMT,Arial" font-size="22.8" fill="#000000" transform="matrix(1.00, 0.00, -0.00, -1.00, 40.4, 271.7)">•</text><text xml:space="preserve" font-family="TimesNewRomanPSMT,Times New Roman" font-size="22.8" fill="#000000" transform="matrix(1.00, 0.00, -0.00, -1.00, 64.9, 272.4)">T</text><text xml:space="preserve" font-family="TimesNewRomanPSMT,Times New Roman" font-size="22.8" fill="#000000" transform="matrix(1.00, 0.00, -0.00, -1.00, 78.0, 272.4)">i</text><text xml:space="preserve" font-family="TimesNewRomanPSMT,Times New Roman" font-size="22.8" fill="#000000" transform="matrix(1.00, 0.00, -0.00, -1.00, 84.4, 272.4)">m</text><text xml:space="preserve" font-family="TimesNewRomanPSMT,Times New Roman" font-size="22.8" fill="#000000" transform="matrix(1.00, 0.00, -0.00, -1.00, 102.0, 272.4)">e</text><text xml:space="preserve" font-family="TimesNewRomanPSMT,Times New Roman" font-size="22.8" fill="#000000" transform="matrix(1.00, 0.00, -0.00, -1.00, 112.1, 272.4)">s</text><text xml:space="preserve" font-family="TimesNewRomanPSMT,Times New Roman" font-size="22.8" fill="#000000" transform="matrix(1.00, 0.00, -0.00, -1.00, 121.0, 272.4)">t</text><text xml:space="preserve" font-family="TimesNewRomanPSMT,Times New Roman" font-size="22.8" fill="#000000" transform="matrix(1.00, 0.00, -0.00, -1.00, 127.3, 272.4)">a</text><text xml:space="preserve" font-family="TimesNewRomanPSMT,Times New Roman" font-size="22.8" fill="#000000" transform="matrix(1.00, 0.00, -0.00, -1.00, 137.4, 272.4)">m</text><text xml:space="preserve" font-family="TimesNewRomanPSMT,Times New Roman" font-size="22.8" fill="#000000" transform="matrix(1.00, 0.00, -0.00, -1.00, 155.1, 272.4)">p</text><text xml:space="preserve" font-family="TimesNewRomanPSMT,Times New Roman" font-size="22.8" fill="#000000" transform="matrix(1.00, 0.00, -0.00, -1.00, 166.5, 272.4)">s</text><text xml:space="preserve" font-family="TimesNewRomanPSMT,Times New Roman" font-size="22.8" fill="#000000" transform="matrix(1.00, 0.00, -0.00, -1.00, 175.3, 272.4)">:</text><text xml:space="preserve" font-family="TimesNewRomanPSMT,Times New Roman" font-size="22.8" fill="#000000" transform="matrix(1.00, 0.00, -0.00, -1.00, 181.6, 272.4)"> </text><text xml:space="preserve" font-family="TimesNewRomanPSMT,Times New Roman" font-size="22.8" fill="#000000" transform="matrix(1.00, 0.00, -0.00, -1.00, 187.3, 272.4)">c</text><text xml:space="preserve" font-family="TimesNewRomanPSMT,Times New Roman" font-size="22.8" fill="#000000" transform="matrix(1.00, 0.00, -0.00, -1.00, 197.4, 272.4)">r</text><text xml:space="preserve" font-family="TimesNewRomanPSMT,Times New Roman" font-size="22.8" fill="#000000" transform="matrix(1.00, 0.00, -0.00, -1.00, 205.0, 272.4)">e</text><text xml:space="preserve" font-family="TimesNewRomanPSMT,Times New Roman" font-size="22.8" fill="#000000" transform="matrix(1.00, 0.00, -0.00, -1.00, 215.1, 272.4)">a</text><text xml:space="preserve" font-family="TimesNewRomanPSMT,Times New Roman" font-size="22.8" fill="#000000" transform="matrix(1.00, 0.00, -0.00, -1.00, 225.2, 272.4)">t</text><text xml:space="preserve" font-family="TimesNewRomanPSMT,Times New Roman" font-size="22.8" fill="#000000" transform="matrix(1.00, 0.00, -0.00, -1.00, 231.5, 272.4)">e</text><text xml:space="preserve" font-family="TimesNewRomanPSMT,Times New Roman" font-size="22.8" fill="#000000" transform="matrix(1.00, 0.00, -0.00, -1.00, 241.6, 272.4)">d</text><text xml:space="preserve" font-family="TimesNewRomanPSMT,Times New Roman" font-size="22.8" fill="#000000" transform="matrix(1.00, 0.00, -0.00, -1.00, 253.0, 272.4)">,</text><text xml:space="preserve" font-family="TimesNewRomanPSMT,Times New Roman" font-size="22.8" fill="#000000" transform="matrix(1.00, 0.00, -0.00, -1.00, 258.7, 272.4)"> </text><text xml:space="preserve" font-family="TimesNewRomanPSMT,Times New Roman" font-size="22.8" fill="#000000" transform="matrix(1.00, 0.00, -0.00, -1.00, 264.4, 272.4)">r</text><text xml:space="preserve" font-family="TimesNewRomanPSMT,Times New Roman" font-size="22.8" fill="#000000" transform="matrix(1.00, 0.00, -0.00, -1.00, 271.9, 272.4)">e</text><text xml:space="preserve" font-family="TimesNewRomanPSMT,Times New Roman" font-size="22.8" fill="#000000" transform="matrix(1.00, 0.00, -0.00, -1.00, 282.0, 272.4)">s</text><text xml:space="preserve" font-family="TimesNewRomanPSMT,Times New Roman" font-size="22.8" fill="#000000" transform="matrix(1.00, 0.00, -0.00, -1.00, 290.9, 272.4)">o</text><text xml:space="preserve" font-family="TimesNewRomanPSMT,Times New Roman" font-size="22.8" fill="#000000" transform="matrix(1.00, 0.00, -0.00, -1.00, 302.3, 272.4)">l</text><text xml:space="preserve" font-family="TimesNewRomanPSMT,Times New Roman" font-size="22.8" fill="#000000" transform="matrix(1.00, 0.00, -0.00, -1.00, 308.6, 272.4)">v</text><text xml:space="preserve" font-family="TimesNewRomanPSMT,Times New Roman" font-size="22.8" fill="#000000" transform="matrix(1.00, 0.00, -0.00, -1.00, 319.9, 272.4)">e</text><text xml:space="preserve" font-family="TimesNewRomanPSMT,Times New Roman" font-size="22.8" fill="#000000" transform="matrix(1.00, 0.00, -0.00, -1.00, 330.0, 272.4)">d</text><text xml:space="preserve" font-family="TimesNewRomanPSMT,Times New Roman" font-size="22.8" fill="#000000" transform="matrix(1.00, 0.00, -0.00, -1.00, 341.4, 272.4)">,</text><text xml:space="preserve" font-family="TimesNewRomanPSMT,Times New Roman" font-size="22.8" fill="#000000" transform="matrix(1.00, 0.00, -0.00, -1.00, 347.1, 272.4)"> </text><text xml:space="preserve" font-family="TimesNewRomanPSMT,Times New Roman" font-size="22.8" fill="#000000" transform="matrix(1.00, 0.00, -0.00, -1.00, 352.8, 272.4)">d</text><text xml:space="preserve" font-family="TimesNewRomanPSMT,Times New Roman" font-size="22.8" fill="#000000" transform="matrix(1.00, 0.00, -0.00, -1.00, 364.2, 272.4)">u</text><text xml:space="preserve" font-family="TimesNewRomanPSMT,Times New Roman" font-size="22.8" fill="#000000" transform="matrix(1.00, 0.00, -0.00, -1.00, 375.5, 272.4)">e</text><text xml:space="preserve" font-family="TimesNewRomanPSMT,Times New Roman" font-size="22.8" fill="#000000" transform="matrix(1.00, 0.00, -0.00, -1.00, 385.6, 272.4)"> </text><text xml:space="preserve" font-family="TimesNewRomanPSMT,Times New Roman" font-size="22.8" fill="#000000" transform="matrix(1.00, 0.00, -0.00, -1.00, 391.3, 272.4)">d</text><text xml:space="preserve" font-family="TimesNewRomanPSMT,Times New Roman" font-size="22.8" fill="#000000" transform="matrix(1.00, 0.00, -0.00, -1.00, 402.7, 272.4)">a</text><text xml:space="preserve" font-family="TimesNewRomanPSMT,Times New Roman" font-size="22.8" fill="#000000" transform="matrix(1.00, 0.00, -0.00, -1.00, 412.8, 272.4)">t</text><text xml:space="preserve" font-family="TimesNewRomanPSMT,Times New Roman" font-size="22.8" fill="#000000" transform="matrix(1.00, 0.00, -0.00, -1.00, 419.1, 272.4)">e</text><text xml:space="preserve" font-family="TrebuchetMS,Trebuchet MS" font-size="12.0" fill="#878787" transform="matrix(1.00, 0.00, -0.00, -1.00, 674.1, 20.8)">2</text><image xlink:href="../../A9DD2F64-C117-4B9D-BFC0-39826EC2761F/assets/8D4AD54096D86F0E5E444EF699FFCD69.jpeg" width="179.00" height="180.00" transform="matrix(0.52, 0.00, -0.00, -0.52, 106.5, 525.8)"></image><g><clipPath id="clip0x610000cb1460"><path d="M 23.0 31.5 L 361.1 31.5 L 361.1 249.6 L 23.0 249.6 Z M 23.0 31.5 "></path></clipPath><g clip-path="url(#clip0x610000cb1460)"><image xlink:href="../../69FBD07F-B1EE-4AD0-A425-866476803199/assets/4D6C8833FE3A7FE5C39553254334C7A3.png" width="389.00" height="251.00" transform="matrix(0.87, 0.00, -0.00, -0.87, 23.0, 249.6)"></image></g></g><g><clipPath id="clip0x618000ca6cc0"><path d="M 148.8 2.2 L 235.3 2.2 L 235.3 45.0 L 148.8 45.0 Z M 148.8 2.2 "></path></clipPath><g clip-path="url(#clip0x618000ca6cc0)"><text xml:space="preserve" font-family="TrebuchetMS,Trebuchet MS" font-size="18.0" fill="#000000" transform="matrix(1.00, 0.00, -0.00, -1.00, 167.7, 22.8)">S</text><text xml:space="preserve" font-family="TrebuchetMS,Trebuchet MS" font-size="18.0" fill="#000000" transform="matrix(1.00, 0.00, -0.00, -1.00, 176.4, 22.8)">e</text><text xml:space="preserve" font-family="TrebuchetMS,Trebuchet MS" font-size="18.0" fill="#000000" transform="matrix(1.00, 0.00, -0.00, -1.00, 186.2, 22.8)">w</text><text xml:space="preserve" font-family="TrebuchetMS,Trebuchet MS" font-size="18.0" fill="#000000" transform="matrix(1.00, 0.00, -0.00, -1.00, 199.6, 22.8)">e</text><text xml:space="preserve" font-family="TrebuchetMS,Trebuchet MS" font-size="18.0" fill="#000000" transform="matrix(1.00, 0.00, -0.00, -1.00, 209.4, 22.8)">r</text></g></g><g><clipPath id="clip0x618000aa90c0"><path d="M 405.4 2.0 L 667.6 2.0 L 667.6 44.3 L 405.4 44.3 Z M 405.4 2.0 "></path></clipPath><g clip-path="url(#clip0x618000aa90c0)"><text xml:space="preserve" font-family="TrebuchetMS,Trebuchet MS" font-size="18.0" fill="#000000" transform="matrix(1.00, 0.00, -0.00, -1.00, 451.0, 22.1)">G</text><text xml:space="preserve" font-family="TrebuchetMS,Trebuchet MS" font-size="18.0" fill="#000000" transform="matrix(1.00, 0.00, -0.00, -1.00, 463.2, 22.1)">e</text><text xml:space="preserve" font-family="TrebuchetMS,Trebuchet MS" font-size="18.0" fill="#000000" transform="matrix(1.00, 0.00, -0.00, -1.00, 473.0, 22.1)">n</text><text xml:space="preserve" font-family="TrebuchetMS,Trebuchet MS" font-size="18.0" fill="#000000" transform="matrix(1.00, 0.00, -0.00, -1.00, 482.8, 22.1)">e</text><text xml:space="preserve" font-family="TrebuchetMS,Trebuchet MS" font-size="18.0" fill="#000000" transform="matrix(1.00, 0.00, -0.00, -1.00, 492.7, 22.1)">r</text><text xml:space="preserve" font-family="TrebuchetMS,Trebuchet MS" font-size="18.0" fill="#000000" transform="matrix(1.00, 0.00, -0.00, -1.00, 499.6, 22.1)">a</text><text xml:space="preserve" font-family="TrebuchetMS,Trebuchet MS" font-size="18.0" fill="#000000" transform="matrix(1.00, 0.00, -0.00, -1.00, 509.1, 22.1)">l</text><text xml:space="preserve" font-family="TrebuchetMS,Trebuchet MS" font-size="18.0" fill="#000000" transform="matrix(1.00, 0.00, -0.00, -1.00, 514.4, 22.1)"> </text><text xml:space="preserve" font-family="TrebuchetMS,Trebuchet MS" font-size="18.0" fill="#000000" transform="matrix(1.00, 0.00, -0.00, -1.00, 519.8, 22.1)">C</text><text xml:space="preserve" font-family="TrebuchetMS,Trebuchet MS" font-size="18.0" fill="#000000" transform="matrix(1.00, 0.00, -0.00, -1.00, 530.6, 22.1)">o</text><text xml:space="preserve" font-family="TrebuchetMS,Trebuchet MS" font-size="18.0" fill="#000000" transform="matrix(1.00, 0.00, -0.00, -1.00, 540.3, 22.1)">n</text><text xml:space="preserve" font-family="TrebuchetMS,Trebuchet MS" font-size="18.0" fill="#000000" transform="matrix(1.00, 0.00, -0.00, -1.00, 550.1, 22.1)">s</text><text xml:space="preserve" font-family="TrebuchetMS,Trebuchet MS" font-size="18.0" fill="#000000" transform="matrix(1.00, 0.00, -0.00, -1.00, 557.4, 22.1)">t</text><text xml:space="preserve" font-family="TrebuchetMS,Trebuchet MS" font-size="18.0" fill="#000000" transform="matrix(1.00, 0.00, -0.00, -1.00, 564.5, 22.1)">r</text><text xml:space="preserve" font-family="TrebuchetMS,Trebuchet MS" font-size="18.0" fill="#000000" transform="matrix(1.00, 0.00, -0.00, -1.00, 571.5, 22.1)">u</text><text xml:space="preserve" font-family="TrebuchetMS,Trebuchet MS" font-size="18.0" fill="#000000" transform="matrix(1.00, 0.00, -0.00, -1.00, 581.3, 22.1)">c</text><text xml:space="preserve" font-family="TrebuchetMS,Trebuchet MS" font-size="18.0" fill="#000000" transform="matrix(1.00, 0.00, -0.00, -1.00, 590.3, 22.1)">t</text><text xml:space="preserve" font-family="TrebuchetMS,Trebuchet MS" font-size="18.0" fill="#000000" transform="matrix(1.00, 0.00, -0.00, -1.00, 597.4, 22.1)">i</text><text xml:space="preserve" font-family="TrebuchetMS,Trebuchet MS" font-size="18.0" fill="#000000" transform="matrix(1.00, 0.00, -0.00, -1.00, 602.5, 22.1)">o</text><text xml:space="preserve" font-family="TrebuchetMS,Trebuchet MS" font-size="18.0" fill="#000000" transform="matrix(1.00, 0.00, -0.00, -1.00, 612.2, 22.1)">n</text></g></g><g><clipPath id="clip0x618000ca5640"><path d="M 376.0 32.4 L 697.0 32.4 L 697.0 247.9 L 376.0 247.9 Z M 376.0 32.4 "></path></clipPath><g clip-path="url(#clip0x618000ca5640)"><image xlink:href="../../69FBD07F-B1EE-4AD0-A425-866476803199/assets/ED504C19D507534C75F614BBDC5549C1.png" width="374.00" height="251.00" transform="matrix(0.86, 0.00, -0.00, -0.86, 376.0, 247.9)"></image></g></g></g></svg>