<?xml version="1.0" encoding="UTF-8" standalone="no"?><svg xmlns="http://www.w3.org/2000/svg" xmlns:xlink="http://www.w3.org/1999/xlink" clip-rule="evenodd" stroke-miterlimit="10" viewBox="0 0 720 540"><desc>SVG generated by Keynote</desc><defs></defs><g transform="matrix(1.00, 0.00, -0.00, -1.00, 0.0, 540.0)"><path d="M 0.0 540.0 L 720.0 540.0 L 720.0 0.0 L 0.0 0.0 Z M 0.0 540.0 " fill="#FFFFFF"></path><text xml:space="preserve" font-family="TrebuchetMS,Trebuchet MS" font-size="12.0" fill="#878787" transform="matrix(1.00, 0.00, -0.00, -1.00, 667.8, 20.8)">1</text><text xml:space="preserve" font-family="TrebuchetMS,Trebuchet MS" font-size="12.0" fill="#878787" transform="matrix(1.00, 0.00, -0.00, -1.00, 674.1, 20.8)">2</text><text xml:space="preserve" font-family="Times-Roman,Times" font-size="27.0" fill="#000000" transform="matrix(1.00, 0.00, -0.00, -1.00, 59.6, 479.4)">A</text><text xml:space="preserve" font-family="Times-Roman,Times" font-size="27.0" fill="#000000" transform="matrix(1.00, 0.00, -0.00, -1.00, 79.1, 479.4)">l</text><text xml:space="preserve" font-family="Times-Roman,Times" font-size="27.0" fill="#000000" transform="matrix(1.00, 0.00, -0.00, -1.00, 86.6, 479.4)">l</text><text xml:space="preserve" font-family="Times-Roman,Times" font-size="27.0" fill="#000000" transform="matrix(1.00, 0.00, -0.00, -1.00, 94.1, 479.4)"> </text><text xml:space="preserve" font-family="Times-Roman,Times" font-size="27.0" fill="#000000" transform="matrix(1.00, 0.00, -0.00, -1.00, 100.8, 479.4)">o</text><text xml:space="preserve" font-family="Times-Roman,Times" font-size="27.0" fill="#000000" transform="matrix(1.00, 0.00, -0.00, -1.00, 114.3, 479.4)">f</text><text xml:space="preserve" font-family="Times-Roman,Times" font-size="27.0" fill="#000000" transform="matrix(1.00, 0.00, -0.00, -1.00, 123.3, 479.4)"> </text><text xml:space="preserve" font-family="Times-Roman,Times" font-size="27.0" fill="#000000" transform="matrix(1.00, 0.00, -0.00, -1.00, 130.0, 479.4)">B</text><text xml:space="preserve" font-family="Times-Roman,Times" font-size="27.0" fill="#000000" transform="matrix(1.00, 0.00, -0.00, -1.00, 148.1, 479.4)">r</text><text xml:space="preserve" font-family="Times-Roman,Times" font-size="27.0" fill="#000000" transform="matrix(1.00, 0.00, -0.00, -1.00, 157.0, 479.4)">o</text><text xml:space="preserve" font-family="Times-Roman,Times" font-size="27.0" fill="#000000" transform="matrix(1.00, 0.00, -0.00, -1.00, 170.5, 479.4)">n</text><text xml:space="preserve" font-family="Times-Roman,Times" font-size="27.0" fill="#000000" transform="matrix(1.00, 0.00, -0.00, -1.00, 184.0, 479.4)">x</text><text xml:space="preserve" font-family="Times-Roman,Times" font-size="27.0" fill="#000000" transform="matrix(1.00, 0.00, -0.00, -1.00, 197.5, 479.4)"> </text><text xml:space="preserve" font-family="Times-Roman,Times" font-size="27.0" fill="#000000" transform="matrix(1.00, 0.00, -0.00, -1.00, 204.3, 479.4)">	</text><text xml:space="preserve" font-family="Times-Roman,Times" font-size="27.0" fill="#000000" transform="matrix(1.00, 0.00, -0.00, -1.00, 232.3, 479.4)">
</text><text xml:space="preserve" font-family="Times-Roman,Times" font-size="27.0" fill="#000000" transform="matrix(1.00, 0.00, -0.00, -1.00, 232.3, 479.4)"></text><text xml:space="preserve" font-family="Times-Roman,Times" font-size="27.0" fill="#000000" transform="matrix(1.00, 0.00, -0.00, -1.00, 47.6, 415.4)">(</text><text xml:space="preserve" font-family="Times-Roman,Times" font-size="27.0" fill="#000000" transform="matrix(1.00, 0.00, -0.00, -1.00, 56.6, 415.4)">l</text><text xml:space="preserve" font-family="Times-Roman,Times" font-size="27.0" fill="#000000" transform="matrix(1.00, 0.00, -0.00, -1.00, 64.0, 415.4)">a</text><text xml:space="preserve" font-family="Times-Roman,Times" font-size="27.0" fill="#000000" transform="matrix(1.00, 0.00, -0.00, -1.00, 76.0, 415.4)">s</text><text xml:space="preserve" font-family="Times-Roman,Times" font-size="27.0" fill="#000000" transform="matrix(1.00, 0.00, -0.00, -1.00, 86.5, 415.4)">t</text><text xml:space="preserve" font-family="Times-Roman,Times" font-size="27.0" fill="#000000" transform="matrix(1.00, 0.00, -0.00, -1.00, 94.0, 415.4)"> </text><text xml:space="preserve" font-family="Times-Roman,Times" font-size="27.0" fill="#000000" transform="matrix(1.00, 0.00, -0.00, -1.00, 100.8, 415.4)">3</text><text xml:space="preserve" font-family="Times-Roman,Times" font-size="27.0" fill="#000000" transform="matrix(1.00, 0.00, -0.00, -1.00, 114.3, 415.4)"> </text><text xml:space="preserve" font-family="Times-Roman,Times" font-size="27.0" fill="#000000" transform="matrix(1.00, 0.00, -0.00, -1.00, 121.0, 415.4)">m</text><text xml:space="preserve" font-family="Times-Roman,Times" font-size="27.0" fill="#000000" transform="matrix(1.00, 0.00, -0.00, -1.00, 142.0, 415.4)">o</text><text xml:space="preserve" font-family="Times-Roman,Times" font-size="27.0" fill="#000000" transform="matrix(1.00, 0.00, -0.00, -1.00, 155.5, 415.4)">n</text><text xml:space="preserve" font-family="Times-Roman,Times" font-size="27.0" fill="#000000" transform="matrix(1.00, 0.00, -0.00, -1.00, 169.0, 415.4)">t</text><text xml:space="preserve" font-family="Times-Roman,Times" font-size="27.0" fill="#000000" transform="matrix(1.00, 0.00, -0.00, -1.00, 176.5, 415.4)">h</text><text xml:space="preserve" font-family="Times-Roman,Times" font-size="27.0" fill="#000000" transform="matrix(1.00, 0.00, -0.00, -1.00, 190.0, 415.4)">s</text><text xml:space="preserve" font-family="Times-Roman,Times" font-size="27.0" fill="#000000" transform="matrix(1.00, 0.00, -0.00, -1.00, 200.5, 415.4)">)</text><g><clipPath id="clip0x618000aae460"><path d="M 4.0 1.7 L 775.8 1.7 L 775.8 160.3 L 4.0 160.3 Z M 4.0 1.7 "></path></clipPath><g clip-path="url(#clip0x618000aae460)"><image xlink:href="EBFF0BBA2C9B08EF711CCCA640277891.png" width="2298.00" height="472.00" transform="matrix(0.34, 0.00, -0.00, -0.34, 4.0, 160.3)"></image></g></g><g><clipPath id="clip0x618000aa8c40"><path d="M 310.5 101.2 L 380.9 101.2 L 380.9 131.4 L 310.5 131.4 Z M 310.5 101.2 "></path></clipPath><g clip-path="url(#clip0x618000aa8c40)"><path d="M 9.7 22.4 C -3.2 17.2 -3.2 9.0 9.7 3.8 C 22.7 -1.3 43.8 -1.3 56.7 3.8 C 69.7 9.0 69.7 17.2 56.7 22.4 C 43.8 27.5 22.7 27.5 9.7 22.4 Z M 9.7 22.4 " fill="none" stroke="#FF2600" stroke-width="2.00" stroke-linejoin="bevel" transform="matrix(1.00, 0.00, 0.00, -1.00, 312.5, 129.4)"></path></g></g><g><clipPath id="clip0x618000ca8820"><path d="M 187.1 51.6 L 249.9 51.6 L 249.9 81.8 L 187.1 81.8 Z M 187.1 51.6 "></path></clipPath><g clip-path="url(#clip0x618000ca8820)"><path d="M 8.6 3.8 C -2.9 9.0 -2.9 17.2 8.6 22.4 C 20.1 27.5 38.7 27.5 50.2 22.4 C 61.6 17.2 61.6 9.0 50.2 3.8 C 38.7 -1.3 20.1 -1.3 8.6 3.8 Z M 8.6 3.8 " fill="none" stroke="#FF2600" stroke-width="2.00" stroke-linejoin="bevel" transform="matrix(1.00, 0.00, 0.00, -1.00, 189.1, 79.8)"></path></g></g><image xlink:href="7ED3DBF93A08575CAD21A6309DA70C77.png" width="800.00" height="600.00" transform="matrix(0.66, 0.00, -0.00, -0.66, 228.8, 567.8)"></image><g><clipPath id="clip0x6000010b7040"><path d="M 278.2 176.3 L 725.2 176.3 L 725.2 206.5 L 278.2 206.5 Z M 278.2 176.3 "></path></clipPath><g clip-path="url(#clip0x6000010b7040)"><path d="M 279.0 205.0 L 724.0 205.0 L 724.0 177.0 L 279.0 177.0 Z M 279.2 205.5 " fill="#FFFFFF"></path></g></g><g><clipPath id="clip0x6000010b71c0"><path d="M 277.6 175.7 L 725.8 175.7 L 725.8 207.1 L 277.6 207.1 Z M 277.6 175.7 "></path></clipPath><g clip-path="url(#clip0x6000010b71c0)"><text xml:space="preserve" font-family="TrebuchetMS,Trebuchet MS" font-size="18.0" fill="#000000" transform="matrix(1.00, 0.00, -0.00, -1.00, 282.8, 184.9)"> </text><text xml:space="preserve" font-family="TrebuchetMS,Trebuchet MS" font-size="18.0" fill="#000000" transform="matrix(1.00, 0.00, -0.00, -1.00, 288.2, 184.9)"> </text><text xml:space="preserve" font-family="TrebuchetMS,Trebuchet MS" font-size="18.0" fill="#000000" transform="matrix(1.00, 0.00, -0.00, -1.00, 293.7, 184.9)"> </text><text xml:space="preserve" font-family="TrebuchetMS,Trebuchet MS" font-size="18.0" fill="#000000" transform="matrix(1.00, 0.00, -0.00, -1.00, 299.1, 184.9)"> </text><text xml:space="preserve" font-family="TrebuchetMS,Trebuchet MS" font-size="18.0" fill="#000000" transform="matrix(1.00, 0.00, -0.00, -1.00, 304.5, 184.9)"> </text><text xml:space="preserve" font-family="TrebuchetMS,Trebuchet MS" font-size="18.0" fill="#000000" transform="matrix(1.00, 0.00, -0.00, -1.00, 310.0, 184.9)"> </text></g></g><g><clipPath id="clip0x6000010b7520"><path d="M 297.1 169.3 L 360.6 169.3 L 360.6 209.5 L 297.1 209.5 Z M 297.1 169.3 "></path></clipPath><g clip-path="url(#clip0x6000010b7520)"><text xml:space="preserve" font-family="TrebuchetMS,Trebuchet MS" font-size="14.0" fill="#000000" transform="matrix(1.00, 0.00, -0.00, -1.00, 303.7, 192.5)">A</text><text xml:space="preserve" font-family="TrebuchetMS,Trebuchet MS" font-size="14.0" fill="#000000" transform="matrix(1.00, 0.00, -0.00, -1.00, 312.0, 192.5)">u</text><text xml:space="preserve" font-family="TrebuchetMS,Trebuchet MS" font-size="14.0" fill="#000000" transform="matrix(1.00, 0.00, -0.00, -1.00, 319.6, 192.5)">g</text><text xml:space="preserve" font-family="TrebuchetMS,Trebuchet MS" font-size="14.0" fill="#000000" transform="matrix(1.00, 0.00, -0.00, -1.00, 326.7, 192.5)"> </text><text xml:space="preserve" font-family="TrebuchetMS,Trebuchet MS" font-size="14.0" fill="#000000" transform="matrix(1.00, 0.00, -0.00, -1.00, 307.9, 176.5)">1</text><text xml:space="preserve" font-family="TrebuchetMS,Trebuchet MS" font-size="14.0" fill="#000000" transform="matrix(1.00, 0.00, -0.00, -1.00, 315.2, 176.5)">0</text></g></g><g><clipPath id="clip0x6000010b7940"><path d="M 391.1 169.3 L 454.6 169.3 L 454.6 209.5 L 391.1 209.5 Z M 391.1 169.3 "></path></clipPath><g clip-path="url(#clip0x6000010b7940)"><text xml:space="preserve" font-family="TrebuchetMS,Trebuchet MS" font-size="14.0" fill="#000000" transform="matrix(1.00, 0.00, -0.00, -1.00, 397.7, 192.5)">A</text><text xml:space="preserve" font-family="TrebuchetMS,Trebuchet MS" font-size="14.0" fill="#000000" transform="matrix(1.00, 0.00, -0.00, -1.00, 406.0, 192.5)">u</text><text xml:space="preserve" font-family="TrebuchetMS,Trebuchet MS" font-size="14.0" fill="#000000" transform="matrix(1.00, 0.00, -0.00, -1.00, 413.6, 192.5)">g</text><text xml:space="preserve" font-family="TrebuchetMS,Trebuchet MS" font-size="14.0" fill="#000000" transform="matrix(1.00, 0.00, -0.00, -1.00, 420.7, 192.5)"> </text><text xml:space="preserve" font-family="TrebuchetMS,Trebuchet MS" font-size="14.0" fill="#000000" transform="matrix(1.00, 0.00, -0.00, -1.00, 401.9, 176.5)">1</text><text xml:space="preserve" font-family="TrebuchetMS,Trebuchet MS" font-size="14.0" fill="#000000" transform="matrix(1.00, 0.00, -0.00, -1.00, 409.2, 176.5)">1</text></g></g><g><clipPath id="clip0x6000010b7d60"><path d="M 485.6 169.3 L 549.2 169.3 L 549.2 209.5 L 485.6 209.5 Z M 485.6 169.3 "></path></clipPath><g clip-path="url(#clip0x6000010b7d60)"><text xml:space="preserve" font-family="TrebuchetMS,Trebuchet MS" font-size="14.0" fill="#000000" transform="matrix(1.00, 0.00, -0.00, -1.00, 492.3, 192.5)">A</text><text xml:space="preserve" font-family="TrebuchetMS,Trebuchet MS" font-size="14.0" fill="#000000" transform="matrix(1.00, 0.00, -0.00, -1.00, 500.5, 192.5)">u</text><text xml:space="preserve" font-family="TrebuchetMS,Trebuchet MS" font-size="14.0" fill="#000000" transform="matrix(1.00, 0.00, -0.00, -1.00, 508.2, 192.5)">g</text><text xml:space="preserve" font-family="TrebuchetMS,Trebuchet MS" font-size="14.0" fill="#000000" transform="matrix(1.00, 0.00, -0.00, -1.00, 515.2, 192.5)"> </text><text xml:space="preserve" font-family="TrebuchetMS,Trebuchet MS" font-size="14.0" fill="#000000" transform="matrix(1.00, 0.00, -0.00, -1.00, 496.4, 176.5)">1</text><text xml:space="preserve" font-family="TrebuchetMS,Trebuchet MS" font-size="14.0" fill="#000000" transform="matrix(1.00, 0.00, -0.00, -1.00, 503.7, 176.5)">2</text></g></g><g><clipPath id="clip0x6000010b8180"><path d="M 580.0 169.3 L 643.6 169.3 L 643.6 209.5 L 580.0 209.5 Z M 580.0 169.3 "></path></clipPath><g clip-path="url(#clip0x6000010b8180)"><text xml:space="preserve" font-family="TrebuchetMS,Trebuchet MS" font-size="14.0" fill="#000000" transform="matrix(1.00, 0.00, -0.00, -1.00, 586.7, 192.5)">A</text><text xml:space="preserve" font-family="TrebuchetMS,Trebuchet MS" font-size="14.0" fill="#000000" transform="matrix(1.00, 0.00, -0.00, -1.00, 594.9, 192.5)">u</text><text xml:space="preserve" font-family="TrebuchetMS,Trebuchet MS" font-size="14.0" fill="#000000" transform="matrix(1.00, 0.00, -0.00, -1.00, 602.6, 192.5)">g</text><text xml:space="preserve" font-family="TrebuchetMS,Trebuchet MS" font-size="14.0" fill="#000000" transform="matrix(1.00, 0.00, -0.00, -1.00, 609.6, 192.5)"> </text><text xml:space="preserve" font-family="TrebuchetMS,Trebuchet MS" font-size="14.0" fill="#000000" transform="matrix(1.00, 0.00, -0.00, -1.00, 590.8, 176.5)">1</text><text xml:space="preserve" font-family="TrebuchetMS,Trebuchet MS" font-size="14.0" fill="#000000" transform="matrix(1.00, 0.00, -0.00, -1.00, 598.1, 176.5)">3</text></g></g><g><clipPath id="clip0x6000010b85a0"><path d="M 344.1 169.3 L 407.4 169.3 L 407.4 209.5 L 344.1 209.5 Z M 344.1 169.3 "></path></clipPath><g clip-path="url(#clip0x6000010b85a0)"><text xml:space="preserve" font-family="TrebuchetMS,Trebuchet MS" font-size="14.0" fill="#000000" transform="matrix(1.00, 0.00, -0.00, -1.00, 350.8, 192.5)">F</text><text xml:space="preserve" font-family="TrebuchetMS,Trebuchet MS" font-size="14.0" fill="#000000" transform="matrix(1.00, 0.00, -0.00, -1.00, 358.1, 192.5)">e</text><text xml:space="preserve" font-family="TrebuchetMS,Trebuchet MS" font-size="14.0" fill="#000000" transform="matrix(1.00, 0.00, -0.00, -1.00, 365.8, 192.5)">b</text><text xml:space="preserve" font-family="TrebuchetMS,Trebuchet MS" font-size="14.0" fill="#000000" transform="matrix(1.00, 0.00, -0.00, -1.00, 373.6, 192.5)"> </text><text xml:space="preserve" font-family="TrebuchetMS,Trebuchet MS" font-size="14.0" fill="#000000" transform="matrix(1.00, 0.00, -0.00, -1.00, 354.9, 176.5)">1</text><text xml:space="preserve" font-family="TrebuchetMS,Trebuchet MS" font-size="14.0" fill="#000000" transform="matrix(1.00, 0.00, -0.00, -1.00, 362.2, 176.5)">1</text></g></g><g><clipPath id="clip0x6000010b89c0"><path d="M 438.5 169.3 L 501.8 169.3 L 501.8 209.5 L 438.5 209.5 Z M 438.5 169.3 "></path></clipPath><g clip-path="url(#clip0x6000010b89c0)"><text xml:space="preserve" font-family="TrebuchetMS,Trebuchet MS" font-size="14.0" fill="#000000" transform="matrix(1.00, 0.00, -0.00, -1.00, 445.2, 192.5)">F</text><text xml:space="preserve" font-family="TrebuchetMS,Trebuchet MS" font-size="14.0" fill="#000000" transform="matrix(1.00, 0.00, -0.00, -1.00, 452.5, 192.5)">e</text><text xml:space="preserve" font-family="TrebuchetMS,Trebuchet MS" font-size="14.0" fill="#000000" transform="matrix(1.00, 0.00, -0.00, -1.00, 460.2, 192.5)">b</text><text xml:space="preserve" font-family="TrebuchetMS,Trebuchet MS" font-size="14.0" fill="#000000" transform="matrix(1.00, 0.00, -0.00, -1.00, 468.0, 192.5)"> </text><text xml:space="preserve" font-family="TrebuchetMS,Trebuchet MS" font-size="14.0" fill="#000000" transform="matrix(1.00, 0.00, -0.00, -1.00, 449.3, 176.5)">1</text><text xml:space="preserve" font-family="TrebuchetMS,Trebuchet MS" font-size="14.0" fill="#000000" transform="matrix(1.00, 0.00, -0.00, -1.00, 456.6, 176.5)">2</text></g></g><g><clipPath id="clip0x6000010b8de0"><path d="M 532.9 169.3 L 596.2 169.3 L 596.2 209.5 L 532.9 209.5 Z M 532.9 169.3 "></path></clipPath><g clip-path="url(#clip0x6000010b8de0)"><text xml:space="preserve" font-family="TrebuchetMS,Trebuchet MS" font-size="14.0" fill="#000000" transform="matrix(1.00, 0.00, -0.00, -1.00, 539.6, 192.5)">F</text><text xml:space="preserve" font-family="TrebuchetMS,Trebuchet MS" font-size="14.0" fill="#000000" transform="matrix(1.00, 0.00, -0.00, -1.00, 546.9, 192.5)">e</text><text xml:space="preserve" font-family="TrebuchetMS,Trebuchet MS" font-size="14.0" fill="#000000" transform="matrix(1.00, 0.00, -0.00, -1.00, 554.6, 192.5)">b</text><text xml:space="preserve" font-family="TrebuchetMS,Trebuchet MS" font-size="14.0" fill="#000000" transform="matrix(1.00, 0.00, -0.00, -1.00, 562.4, 192.5)"> </text><text xml:space="preserve" font-family="TrebuchetMS,Trebuchet MS" font-size="14.0" fill="#000000" transform="matrix(1.00, 0.00, -0.00, -1.00, 543.7, 176.5)">1</text><text xml:space="preserve" font-family="TrebuchetMS,Trebuchet MS" font-size="14.0" fill="#000000" transform="matrix(1.00, 0.00, -0.00, -1.00, 551.0, 176.5)">3</text></g></g><g><clipPath id="clip0x6000010b9200"><path d="M 628.2 169.3 L 691.5 169.3 L 691.5 209.5 L 628.2 209.5 Z M 628.2 169.3 "></path></clipPath><g clip-path="url(#clip0x6000010b9200)"><text xml:space="preserve" font-family="TrebuchetMS,Trebuchet MS" font-size="14.0" fill="#000000" transform="matrix(1.00, 0.00, -0.00, -1.00, 634.9, 192.5)">F</text><text xml:space="preserve" font-family="TrebuchetMS,Trebuchet MS" font-size="14.0" fill="#000000" transform="matrix(1.00, 0.00, -0.00, -1.00, 642.2, 192.5)">e</text><text xml:space="preserve" font-family="TrebuchetMS,Trebuchet MS" font-size="14.0" fill="#000000" transform="matrix(1.00, 0.00, -0.00, -1.00, 649.9, 192.5)">b</text><text xml:space="preserve" font-family="TrebuchetMS,Trebuchet MS" font-size="14.0" fill="#000000" transform="matrix(1.00, 0.00, -0.00, -1.00, 657.7, 192.5)"> </text><text xml:space="preserve" font-family="TrebuchetMS,Trebuchet MS" font-size="14.0" fill="#000000" transform="matrix(1.00, 0.00, -0.00, -1.00, 638.9, 176.5)">1</text><text xml:space="preserve" font-family="TrebuchetMS,Trebuchet MS" font-size="14.0" fill="#000000" transform="matrix(1.00, 0.00, -0.00, -1.00, 646.3, 176.5)">4</text></g></g><g><clipPath id="clip0x6000010b9620"><path d="M 674.2 169.3 L 737.7 169.3 L 737.7 209.5 L 674.2 209.5 Z M 674.2 169.3 "></path></clipPath><g clip-path="url(#clip0x6000010b9620)"><text xml:space="preserve" font-family="TrebuchetMS,Trebuchet MS" font-size="14.0" fill="#000000" transform="matrix(1.00, 0.00, -0.00, -1.00, 680.8, 192.5)">A</text><text xml:space="preserve" font-family="TrebuchetMS,Trebuchet MS" font-size="14.0" fill="#000000" transform="matrix(1.00, 0.00, -0.00, -1.00, 689.1, 192.5)">u</text><text xml:space="preserve" font-family="TrebuchetMS,Trebuchet MS" font-size="14.0" fill="#000000" transform="matrix(1.00, 0.00, -0.00, -1.00, 696.7, 192.5)">g</text><text xml:space="preserve" font-family="TrebuchetMS,Trebuchet MS" font-size="14.0" fill="#000000" transform="matrix(1.00, 0.00, -0.00, -1.00, 703.8, 192.5)"> </text><text xml:space="preserve" font-family="TrebuchetMS,Trebuchet MS" font-size="14.0" fill="#000000" transform="matrix(1.00, 0.00, -0.00, -1.00, 685.0, 176.5)">1</text><text xml:space="preserve" font-family="TrebuchetMS,Trebuchet MS" font-size="14.0" fill="#000000" transform="matrix(1.00, 0.00, -0.00, -1.00, 692.3, 176.5)">4</text></g></g></g></svg>