<?xml version="1.0" encoding="UTF-8" standalone="no"?><svg xmlns="http://www.w3.org/2000/svg" xmlns:xlink="http://www.w3.org/1999/xlink" clip-rule="evenodd" stroke-miterlimit="10" viewBox="0 0 720 540"><desc>SVG generated by Keynote</desc><defs></defs><g transform="matrix(1.00, 0.00, -0.00, -1.00, 0.0, 540.0)"><path d="M 0.0 540.0 L 720.0 540.0 L 720.0 0.0 L 0.0 0.0 Z M 0.0 540.0 " fill="#EAEAEA"></path><text xml:space="preserve" font-family="TimesNewRomanPSMT,Times New Roman" font-size="40.0" fill="#000000" transform="matrix(1.00, 0.00, -0.00, -1.00, 195.0, 468.5)"> </text><text xml:space="preserve" font-family="TimesNewRomanPSMT,Times New Roman" font-size="40.0" fill="#000000" transform="matrix(1.00, 0.00, -0.00, -1.00, 205.0, 468.5)"> </text><text xml:space="preserve" font-family="TimesNewRomanPSMT,Times New Roman" font-size="40.0" fill="#000000" transform="matrix(1.00, 0.00, -0.00, -1.00, 215.0, 468.5)"> </text><text xml:space="preserve" font-family="TimesNewRomanPSMT,Times New Roman" font-size="40.0" fill="#000000" transform="matrix(1.00, 0.00, -0.00, -1.00, 225.0, 468.5)"> </text><text xml:space="preserve" font-family="TimesNewRomanPSMT,Times New Roman" font-size="40.0" fill="#000000" transform="matrix(1.00, 0.00, -0.00, -1.00, 235.0, 468.5)">C</text><text xml:space="preserve" font-family="TimesNewRomanPSMT,Times New Roman" font-size="40.0" fill="#000000" transform="matrix(1.00, 0.00, -0.00, -1.00, 261.7, 468.5)">o</text><text xml:space="preserve" font-family="TimesNewRomanPSMT,Times New Roman" font-size="40.0" fill="#000000" transform="matrix(1.00, 0.00, -0.00, -1.00, 281.7, 468.5)">m</text><text xml:space="preserve" font-family="TimesNewRomanPSMT,Times New Roman" font-size="40.0" fill="#000000" transform="matrix(1.00, 0.00, -0.00, -1.00, 312.8, 468.5)">p</text><text xml:space="preserve" font-family="TimesNewRomanPSMT,Times New Roman" font-size="40.0" fill="#000000" transform="matrix(1.00, 0.00, -0.00, -1.00, 332.8, 468.5)">l</text><text xml:space="preserve" font-family="TimesNewRomanPSMT,Times New Roman" font-size="40.0" fill="#000000" transform="matrix(1.00, 0.00, -0.00, -1.00, 343.9, 468.5)">a</text><text xml:space="preserve" font-family="TimesNewRomanPSMT,Times New Roman" font-size="40.0" fill="#000000" transform="matrix(1.00, 0.00, -0.00, -1.00, 361.7, 468.5)">i</text><text xml:space="preserve" font-family="TimesNewRomanPSMT,Times New Roman" font-size="40.0" fill="#000000" transform="matrix(1.00, 0.00, -0.00, -1.00, 372.8, 468.5)">n</text><text xml:space="preserve" font-family="TimesNewRomanPSMT,Times New Roman" font-size="40.0" fill="#000000" transform="matrix(1.00, 0.00, -0.00, -1.00, 392.8, 468.5)">t</text><text xml:space="preserve" font-family="TimesNewRomanPSMT,Times New Roman" font-size="40.0" fill="#000000" transform="matrix(1.00, 0.00, -0.00, -1.00, 403.9, 468.5)"> </text><text xml:space="preserve" font-family="TimesNewRomanPSMT,Times New Roman" font-size="40.0" fill="#000000" transform="matrix(1.00, 0.00, -0.00, -1.00, 413.9, 468.5)">d</text><text xml:space="preserve" font-family="TimesNewRomanPSMT,Times New Roman" font-size="40.0" fill="#000000" transform="matrix(1.00, 0.00, -0.00, -1.00, 433.9, 468.5)">a</text><text xml:space="preserve" font-family="TimesNewRomanPSMT,Times New Roman" font-size="40.0" fill="#000000" transform="matrix(1.00, 0.00, -0.00, -1.00, 451.6, 468.5)">t</text><text xml:space="preserve" font-family="TimesNewRomanPSMT,Times New Roman" font-size="40.0" fill="#000000" transform="matrix(1.00, 0.00, -0.00, -1.00, 462.7, 468.5)">a</text><text xml:space="preserve" font-family="TimesNewRomanPSMT,Times New Roman" font-size="40.0" fill="#000000" transform="matrix(1.00, 0.00, -0.00, -1.00, 480.5, 468.5)">s</text><text xml:space="preserve" font-family="TimesNewRomanPSMT,Times New Roman" font-size="40.0" fill="#000000" transform="matrix(1.00, 0.00, -0.00, -1.00, 496.0, 468.5)">e</text><text xml:space="preserve" font-family="TimesNewRomanPSMT,Times New Roman" font-size="40.0" fill="#000000" transform="matrix(1.00, 0.00, -0.00, -1.00, 513.8, 468.5)">t</text><text xml:space="preserve" font-family="TrebuchetMS,Trebuchet MS" font-size="12.0" fill="#878787" transform="matrix(1.00, 0.00, -0.00, -1.00, 674.1, 20.8)">2</text><image xlink:href="8D4AD54096D86F0E5E444EF699FFCD69.jpeg" width="179.00" height="180.00" transform="matrix(0.52, 0.00, -0.00, -0.52, 106.5, 525.8)"></image></g></svg>