<?xml version="1.0" encoding="UTF-8" standalone="no"?><svg xmlns="http://www.w3.org/2000/svg" xmlns:xlink="http://www.w3.org/1999/xlink" clip-rule="evenodd" stroke-miterlimit="10" viewBox="0 0 124 111"><desc>SVG generated by Keynote</desc><defs></defs><g transform="matrix(1.00, 0.00, -0.00, -1.00, 0.0, 111.0)"><g><clipPath id="clip0x7feb788a5bc0"><path d="M 39.8 0.5 L 123.8 0.5 L 123.8 110.5 L 39.8 110.5 Z M 39.8 0.5 "></path></clipPath><g clip-path="url(#clip0x7feb788a5bc0)"><image xlink:href="3B3831770445E2771D55CAEA7538E24D.png" width="82.00" height="108.00" transform="matrix(1.00, 0.00, -0.00, -1.00, 40.8, 109.5)" opacity="0.35"></image><path d="M 44.8 22.3 L 45.0 92.3 C 45.0 100.6 51.5 107.0 59.8 107.0 L 103.8 107.0 C 112.1 107.0 119.0 100.6 119.0 92.3 L 119.0 22.3 C 119.0 14.0 112.1 7.0 103.8 7.0 L 59.8 7.0 C 51.5 7.0 44.8 14.0 44.8 22.3 Z M 44.8 22.3 " fill="#FFFFFF"></path><path d="M 0.0 85.0 L 0.2 15.0 C 0.2 6.7 6.7 0.3 15.0 0.3 L 59.0 0.3 C 67.3 0.3 74.2 6.7 74.2 15.0 L 74.2 85.0 C 74.2 93.3 67.3 100.3 59.0 100.3 L 15.0 100.3 C 6.7 100.3 0.0 93.3 0.0 85.0 Z M 0.0 85.0 " fill="none" stroke="#4E81BD" stroke-width="2.00" stroke-linejoin="bevel" transform="matrix(1.00, 0.00, 0.00, -1.00, 44.8, 107.3)"></path></g></g><g><clipPath id="clip0x7feb772d08e0"><path d="M 44.1 7.3 L 119.4 7.3 L 119.4 107.3 L 44.1 107.3 Z M 44.1 7.3 "></path></clipPath><g clip-path="url(#clip0x7feb772d08e0)"><text xml:space="preserve" font-family="TrebuchetMS,Trebuchet MS" font-size="18.0" fill="#000000" transform="matrix(1.00, 0.00, -0.00, -1.00, 54.1, 50.4)">P</text><text xml:space="preserve" font-family="TrebuchetMS,Trebuchet MS" font-size="18.0" fill="#000000" transform="matrix(1.00, 0.00, -0.00, -1.00, 64.1, 50.4)">y</text><text xml:space="preserve" font-family="TrebuchetMS,Trebuchet MS" font-size="18.0" fill="#000000" transform="matrix(1.00, 0.00, -0.00, -1.00, 73.0, 50.4)">t</text><text xml:space="preserve" font-family="TrebuchetMS,Trebuchet MS" font-size="18.0" fill="#000000" transform="matrix(1.00, 0.00, -0.00, -1.00, 80.2, 50.4)">h</text><text xml:space="preserve" font-family="TrebuchetMS,Trebuchet MS" font-size="18.0" fill="#000000" transform="matrix(1.00, 0.00, -0.00, -1.00, 90.0, 50.4)">o</text><text xml:space="preserve" font-family="TrebuchetMS,Trebuchet MS" font-size="18.0" fill="#000000" transform="matrix(1.00, 0.00, -0.00, -1.00, 99.7, 50.4)">n</text></g></g><g><clipPath id="clip0x7feb772c1750"><path d="M 0.6 50.5 L 42.7 50.5 L 42.7 62.1 L 0.6 62.1 Z M 0.6 50.5 "></path></clipPath><g clip-path="url(#clip0x7feb772c1750)"><path d="M 0.4 0.3 L 30.5 0.3 L 31.4 0.3 " fill="none" stroke="#4E81BD" stroke-width="2.00" stroke-linejoin="bevel" transform="matrix(1.00, 0.00, 0.00, -1.00, 1.6, 56.3)"></path><path d="M 32.0 51.2 L 41.6 56.0 L 32.0 60.8 Z M 32.0 51.2 " fill="#4E81BD"></path></g></g></g></svg>