<?xml version="1.0" encoding="UTF-8" standalone="no"?><svg xmlns="http://www.w3.org/2000/svg" xmlns:xlink="http://www.w3.org/1999/xlink" clip-rule="evenodd" stroke-miterlimit="10" viewBox="0 0 125 111"><desc>SVG generated by Keynote</desc><defs></defs><g transform="matrix(1.00, 0.00, -0.00, -1.00, 0.0, 111.0)"><g><clipPath id="clip0x7feb77544470"><path d="M 40.5 0.5 L 124.5 0.5 L 124.5 110.5 L 40.5 110.5 Z M 40.5 0.5 "></path></clipPath><g clip-path="url(#clip0x7feb77544470)"><image xlink:href="2EDAA1E37032D067E60736ABA2C03F46.png" width="82.00" height="108.00" transform="matrix(1.00, 0.00, -0.00, -1.00, 41.5, 109.5)" opacity="0.35"></image><path d="M 45.5 22.3 L 45.0 92.3 C 45.0 100.6 52.2 107.0 60.5 107.0 L 104.5 107.0 C 112.8 107.0 119.0 100.6 119.0 92.3 L 119.0 22.3 C 119.0 14.0 112.8 7.0 104.5 7.0 L 60.5 7.0 C 52.2 7.0 45.5 14.0 45.5 22.3 Z M 45.5 22.3 " fill="#FFFFFF"></path><path d="M 0.0 85.0 L -0.5 15.0 C -0.5 6.7 6.7 0.3 15.0 0.3 L 59.0 0.3 C 67.3 0.3 73.5 6.7 73.5 15.0 L 73.5 85.0 C 73.5 93.3 67.3 100.3 59.0 100.3 L 15.0 100.3 C 6.7 100.3 0.0 93.3 0.0 85.0 Z M 0.0 85.0 " fill="none" stroke="#4E81BD" stroke-width="2.00" stroke-linejoin="bevel" transform="matrix(1.00, 0.00, 0.00, -1.00, 45.5, 107.3)"></path></g></g><g><clipPath id="clip0x7feb7768c720"><path d="M 44.8 7.3 L 120.1 7.3 L 120.1 107.3 L 44.8 107.3 Z M 44.8 7.3 "></path></clipPath><g clip-path="url(#clip0x7feb7768c720)"><text xml:space="preserve" font-family="TrebuchetMS,Trebuchet MS" font-size="18.0" fill="#000000" transform="matrix(1.00, 0.00, -0.00, -1.00, 60.9, 61.0)">F</text><text xml:space="preserve" font-family="TrebuchetMS,Trebuchet MS" font-size="18.0" fill="#000000" transform="matrix(1.00, 0.00, -0.00, -1.00, 70.4, 61.0)">r</text><text xml:space="preserve" font-family="TrebuchetMS,Trebuchet MS" font-size="18.0" fill="#000000" transform="matrix(1.00, 0.00, -0.00, -1.00, 77.4, 61.0)">o</text><text xml:space="preserve" font-family="TrebuchetMS,Trebuchet MS" font-size="18.0" fill="#000000" transform="matrix(1.00, 0.00, -0.00, -1.00, 87.0, 61.0)">n</text><text xml:space="preserve" font-family="TrebuchetMS,Trebuchet MS" font-size="18.0" fill="#000000" transform="matrix(1.00, 0.00, -0.00, -1.00, 96.9, 61.0)">t</text><text xml:space="preserve" font-family="TrebuchetMS,Trebuchet MS" font-size="18.0" fill="#000000" transform="matrix(1.00, 0.00, -0.00, -1.00, 104.0, 61.0)"> </text><text xml:space="preserve" font-family="TrebuchetMS,Trebuchet MS" font-size="18.0" fill="#000000" transform="matrix(1.00, 0.00, -0.00, -1.00, 67.7, 40.0)">E</text><text xml:space="preserve" font-family="TrebuchetMS,Trebuchet MS" font-size="18.0" fill="#000000" transform="matrix(1.00, 0.00, -0.00, -1.00, 77.4, 40.0)">n</text><text xml:space="preserve" font-family="TrebuchetMS,Trebuchet MS" font-size="18.0" fill="#000000" transform="matrix(1.00, 0.00, -0.00, -1.00, 87.2, 40.0)">d</text></g></g><g><clipPath id="clip0x7feb788047e0"><path d="M 0.7 51.5 L 42.8 51.5 L 42.8 63.1 L 0.7 63.1 Z M 0.7 51.5 "></path></clipPath><g clip-path="url(#clip0x7feb788047e0)"><path d="M 0.3 0.3 L 30.5 0.3 L 31.3 0.3 " fill="none" stroke="#4E81BD" stroke-width="2.00" stroke-linejoin="bevel" transform="matrix(1.00, 0.00, 0.00, -1.00, 1.7, 57.3)"></path><path d="M 32.0 52.2 L 41.6 57.0 L 32.0 61.8 Z M 32.0 52.2 " fill="#4E81BD"></path></g></g></g></svg>